{"glyphs":{"0":{"ha":625,"x_min":189,"x_max":703,"o":"m 611 619 q 582 632 596 632 q 542 622 568 632 q 505 605 515 611 q 483 603 494 599 q 471 614 471 607 q 431 606 471 640 q 390 564 410 588 q 349 515 368 542 q 331 484 331 488 q 318 449 331 481 q 292 395 308 433 q 271 340 275 357 l 271 265 q 290 171 271 208 l 324 129 q 349 113 339 115 q 385 117 360 111 q 438 136 418 117 q 497 192 464 154 q 597 388 551 256 q 617 470 617 417 q 624 549 617 524 q 622 597 624 586 q 611 619 619 608 m 519 735 q 580 740 539 740 q 662 717 621 740 q 703 672 703 693 q 701 658 703 660 q 689 658 700 656 l 675 658 l 689 618 q 703 558 703 588 q 688 458 703 529 q 664 368 672 386 q 656 332 656 350 l 621 256 q 614 236 608 242 q 599 205 614 231 q 581 179 585 179 q 574 174 574 179 q 513 97 574 158 q 451 52 492 75 q 392 29 410 29 q 338 49 374 29 q 281 86 301 68 q 212 201 235 131 q 201 349 189 272 q 265 513 214 426 q 383 659 315 600 q 519 735 450 718 z "},"1":{"ha":625,"x_min":217,"x_max":694,"o":"m 518 701 q 644 772 635 774 q 669 758 653 769 q 686 735 685 746 q 680 694 694 725 q 633 568 665 664 q 586 423 600 472 q 556 328 572 374 q 529 246 539 283 q 478 69 501 181 q 465 33 472 56 q 446 -14 451 -10 q 401 8 433 -24 q 394 32 393 22 q 440 232 396 54 q 481 340 451 238 q 538 522 511 443 l 567 628 q 417 531 493 588 q 322 465 340 475 q 276 433 285 436 q 256 436 268 429 q 233 499 217 469 q 285 533 238 500 q 338 569 332 567 q 349 575 343 571 q 363 587 354 579 q 379 599 372 594 q 403 618 383 604 q 458 658 422 632 q 518 701 493 683 z "},"2":{"ha":625,"x_min":165,"x_max":729,"o":"m 517 725 l 557 718 q 601 692 574 719 q 642 635 628 664 q 614 476 681 575 q 528 381 599 458 q 444 293 458 304 q 360 210 419 281 q 306 140 301 140 q 308 135 304 135 q 340 145 313 136 q 453 165 368 154 q 547 169 538 176 l 554 167 q 589 172 560 175 q 650 160 618 169 q 684 142 682 150 q 697 122 686 135 q 682 96 729 94 q 631 103 663 97 q 582 101 594 103 q 513 94 569 99 q 422 82 472 100 q 303 46 372 64 q 222 32 233 28 q 193 51 211 36 q 170 76 175 67 q 170 103 165 85 q 181 122 175 122 q 203 144 185 118 q 224 176 222 169 q 243 193 225 181 q 265 219 243 194 q 303 260 286 244 q 453 425 447 399 q 475 443 460 433 q 508 471 490 453 q 551 536 514 499 q 582 594 575 571 q 585 622 589 618 q 550 635 581 625 q 389 607 468 663 q 365 600 379 604 q 329 590 335 589 q 319 597 324 592 q 309 609 315 601 q 299 621 303 617 l 285 650 l 328 674 q 517 725 443 749 z "},"3":{"ha":625,"x_min":197,"x_max":704,"o":"m 492 668 l 486 668 q 433 663 476 672 q 388 648 389 653 q 358 633 386 643 q 322 625 331 624 q 299 650 313 626 q 290 685 286 674 q 376 735 294 696 q 465 745 403 742 q 556 746 526 749 q 697 642 681 732 q 697 597 704 611 q 649 546 689 582 q 534 474 550 483 q 500 453 518 464 q 454 419 454 424 q 489 394 474 407 q 610 300 560 368 q 524 76 671 164 q 338 22 440 29 q 240 40 282 22 q 200 81 197 57 q 210 105 201 101 q 249 103 218 108 q 400 113 317 89 q 523 176 483 136 q 558 250 563 215 q 435 346 553 313 q 356 358 381 361 q 306 369 332 356 q 281 408 293 383 q 299 430 279 417 q 442 510 319 443 q 601 608 565 578 q 626 651 628 642 q 590 668 625 661 q 492 668 492 676 z "},"4":{"ha":625,"x_min":249,"x_max":738,"o":"m 299 511 l 306 531 q 383 652 318 557 q 468 768 447 747 q 508 775 501 785 q 519 740 514 763 q 521 718 525 718 q 514 710 514 718 q 469 650 514 703 q 343 456 389 540 q 329 378 321 386 q 440 392 353 365 q 522 413 507 406 q 551 426 551 413 q 561 453 551 431 q 635 601 624 583 q 669 680 650 635 q 693 725 689 725 q 724 704 714 725 q 736 686 735 692 q 728 652 738 681 q 714 617 718 624 q 681 551 690 574 q 541 237 576 343 q 500 105 506 131 q 503 53 494 79 q 476 -4 506 15 q 440 10 450 -18 q 430 40 429 22 q 440 97 431 57 q 461 192 449 136 q 475 253 474 247 l 499 324 q 438 310 471 324 q 330 300 368 293 q 269 344 292 307 q 253 385 258 356 q 260 426 249 415 q 275 461 265 442 q 299 511 299 506 z "},"5":{"ha":625,"x_min":176,"x_max":681,"o":"m 374 542 q 403 528 374 532 q 444 522 433 525 q 511 493 471 518 q 593 395 567 460 q 610 267 619 331 q 576 165 601 204 q 403 35 513 76 q 232 33 293 -7 q 207 64 207 51 q 196 72 201 72 q 183 88 190 71 q 181 122 176 104 q 208 135 188 138 q 231 117 228 132 q 296 92 235 90 q 422 132 357 94 q 521 215 486 169 q 548 308 544 271 q 546 349 551 346 q 537 381 543 364 q 506 421 531 399 q 457 453 481 443 q 375 457 410 463 l 318 458 q 285 480 307 461 q 263 508 263 499 q 304 590 267 529 q 372 681 342 650 q 578 769 458 776 q 637 763 621 768 q 669 736 653 757 q 679 703 681 718 q 642 683 676 669 q 517 679 606 707 q 455 644 488 668 q 415 604 422 619 q 408 599 411 601 q 400 593 406 593 q 392 578 392 585 l 381 564 q 375 568 378 564 q 374 554 375 561 q 374 542 374 547 z "},"6":{"ha":625,"x_min":163,"x_max":660,"o":"m 588 407 q 581 408 585 407 q 504 417 533 422 q 422 400 475 413 q 352 381 368 388 q 326 371 336 374 q 290 353 307 356 q 261 325 272 350 q 235 227 250 300 q 229 139 219 154 q 258 111 232 117 q 297 106 281 106 q 346 121 313 107 q 382 128 376 129 q 466 182 413 149 q 560 273 519 215 q 594 369 601 331 q 592 390 596 376 q 588 407 588 404 m 364 610 q 399 642 383 622 q 472 696 415 661 q 590 739 528 731 q 608 732 611 742 q 628 721 613 724 q 644 697 629 721 q 621 651 649 678 q 581 640 590 629 q 567 650 581 647 q 502 619 554 653 q 421 553 450 586 q 386 514 390 525 l 340 461 q 360 458 344 454 q 378 467 375 461 q 409 481 378 472 q 472 493 440 490 q 531 490 488 499 q 585 475 574 481 q 611 450 596 469 q 658 336 660 403 q 635 263 658 292 q 587 197 617 233 q 540 149 557 160 l 525 139 q 458 89 522 124 q 275 33 342 25 q 215 65 243 38 q 172 136 179 92 q 163 183 163 171 q 176 253 164 194 q 197 338 189 313 q 229 397 206 364 q 276 494 256 471 q 326 560 307 540 l 364 610 z "},"7":{"ha":625,"x_min":247,"x_max":693,"o":"m 290 413 l 372 410 q 412 408 397 410 q 433 410 426 406 q 461 443 439 415 q 495 494 467 453 q 538 563 524 536 q 608 713 629 692 q 572 718 600 719 q 471 688 544 717 q 378 653 397 658 q 343 657 358 649 q 325 704 317 661 q 507 774 331 729 q 646 763 629 792 q 658 756 657 761 q 679 718 669 735 q 691 692 689 701 q 690 661 693 683 q 661 611 681 628 q 625 568 644 588 q 618 556 624 564 q 613 544 613 547 l 536 429 q 516 399 510 406 q 535 386 522 392 q 594 331 583 364 q 588 299 596 303 q 565 291 579 290 q 547 297 551 292 q 516 319 542 308 q 482 329 490 329 q 423 241 463 318 q 379 156 383 164 q 369 139 375 149 q 357 117 363 129 q 347 76 351 106 q 350 44 343 46 q 374 26 367 49 q 357 -10 385 11 q 307 -25 329 -31 q 257 28 276 -19 q 354 275 247 74 q 384 337 389 332 q 357 342 379 342 q 307 357 310 353 q 281 389 275 374 q 290 396 283 394 q 290 413 319 403 m 290 413 q 288 414 289 414 q 290 413 289 414 z "},"8":{"ha":625,"x_min":169,"x_max":738,"o":"m 482 257 q 444 328 454 314 q 419 351 435 343 q 392 321 400 340 q 353 264 367 290 l 322 233 q 299 178 322 222 q 264 102 275 135 q 254 49 253 69 q 267 26 256 28 q 329 46 285 25 q 408 90 374 67 q 482 257 514 176 m 593 671 q 376 614 411 735 q 379 522 360 561 q 400 499 394 517 q 411 486 400 486 q 438 470 414 469 q 482 485 461 471 q 533 514 510 510 q 563 503 556 518 q 600 519 567 496 q 647 557 633 542 q 656 611 660 579 q 647 643 657 632 q 593 671 636 654 m 432 778 q 621 735 561 760 q 679 698 646 725 q 714 664 713 671 q 720 650 715 657 q 731 629 725 643 q 735 582 738 615 q 719 529 732 549 q 676 487 685 490 q 661 478 668 483 q 635 460 644 461 q 610 436 617 436 q 593 436 593 447 q 556 415 592 431 q 513 401 519 399 q 494 397 506 404 q 515 353 476 400 q 558 154 596 206 q 501 56 532 94 q 453 19 471 17 q 433 7 442 13 q 406 -8 428 -11 q 365 -22 393 -3 q 297 -47 338 -40 q 244 -44 257 -53 q 189 -8 225 -42 q 175 69 169 33 q 192 144 175 118 q 261 271 208 192 q 342 384 314 350 q 367 432 369 418 q 339 482 365 446 q 328 503 335 493 q 325 513 322 513 q 314 532 319 518 q 294 592 293 553 q 314 671 294 632 q 432 778 356 767 z "},"9":{"ha":625,"x_min":288,"x_max":721,"o":"m 632 706 q 553 711 613 733 q 464 669 518 704 q 446 663 456 661 q 436 657 436 664 q 419 625 443 644 q 371 547 385 588 q 372 492 357 506 q 466 491 403 458 q 574 593 529 524 q 619 651 615 649 q 632 706 650 686 m 390 26 l 393 74 q 463 335 399 150 q 481 396 483 385 q 444 404 478 407 q 334 438 381 393 q 292 544 288 482 q 331 636 293 578 q 426 739 369 694 q 539 794 483 783 q 631 790 594 804 q 694 733 668 775 q 714 667 721 690 q 661 554 699 594 q 581 431 629 526 q 508 267 532 335 q 478 163 485 199 q 471 105 471 126 q 478 82 471 83 l 507 74 q 471 -10 524 49 q 435 -37 444 -39 q 413 -25 425 -36 q 400 -8 400 -14 q 401 -2 401 -3 q 394 -1 400 -1 l 390 26 z "},"\u0000":{"ha":0,"x_min":0,"x_max":0,"o":""},"\r":{"ha":336,"x_min":0,"x_max":0,"o":""}," ":{"ha":336,"x_min":0,"x_max":0,"o":""},"!":{"ha":292,"x_min":67,"x_max":549,"o":"m 329 644 l 347 693 q 419 850 372 735 q 469 986 467 965 q 493 1003 472 1007 q 515 1008 500 1008 q 535 987 522 1001 q 549 949 549 972 q 545 915 549 926 q 539 897 542 904 q 528 874 536 889 q 517 853 521 860 q 489 801 511 839 q 449 722 449 724 q 431 678 449 719 q 388 589 388 606 q 376 567 381 571 q 369 556 369 567 l 369 551 q 343 478 369 532 q 292 298 296 343 q 287 247 289 253 q 274 236 285 242 q 233 250 247 232 q 229 396 204 288 q 249 454 249 435 q 296 571 265 514 q 308 581 301 571 q 314 611 314 590 q 329 644 314 632 m 144 122 q 181 139 169 138 q 218 129 193 140 q 255 71 260 103 q 199 14 250 39 q 117 21 151 -6 q 144 122 67 69 z "},"\"":{"ha":329,"x_min":242,"x_max":592,"o":"m 524 910 q 537 903 526 908 q 551 897 547 899 q 563 889 556 894 q 575 879 571 883 q 558 769 592 858 q 547 736 550 746 q 476 625 535 692 q 463 617 476 619 q 443 611 450 614 q 411 621 424 610 q 443 688 408 633 q 485 765 478 743 q 497 804 493 788 q 506 864 507 843 q 510 899 506 885 q 524 910 514 914 m 357 910 q 370 903 360 908 q 385 897 381 899 q 397 889 389 894 q 408 879 404 883 q 392 769 425 858 q 381 736 383 746 q 310 625 368 692 q 297 617 310 619 q 276 611 283 614 q 244 621 257 610 q 276 688 242 633 q 319 765 311 743 q 331 804 326 788 q 340 864 340 843 q 343 899 339 885 q 357 910 347 914 z "},"#":{"ha":776,"x_min":99,"x_max":958,"o":"m 393 378 q 386 367 386 378 l 386 363 q 378 328 386 353 l 601 332 q 618 378 615 374 q 632 408 632 378 q 647 451 632 439 l 661 504 q 672 529 665 510 q 453 526 536 526 q 400 401 400 417 q 393 378 400 385 m 342 451 l 356 504 l 365 525 l 288 525 q 239 532 260 525 q 199 551 210 532 q 194 578 183 572 q 399 603 222 597 q 503 872 447 724 q 558 1032 558 1019 q 581 1054 558 1054 q 603 1061 588 1061 l 625 1039 q 640 1001 640 1025 q 639 970 640 978 q 636 956 638 963 q 629 938 635 950 q 619 915 624 925 q 603 880 615 906 q 583 838 590 854 q 535 728 575 821 q 483 606 496 635 q 707 611 544 608 q 864 1027 864 1000 q 886 1054 864 1054 q 908 1061 893 1061 l 931 1039 q 946 1001 946 1025 q 944 970 946 978 q 942 956 943 963 q 935 938 940 950 q 925 915 929 925 q 908 880 921 906 q 888 836 896 854 q 790 613 814 669 l 860 613 q 908 609 896 613 q 936 592 921 606 q 951 552 958 571 q 914 539 944 533 l 792 531 l 760 531 q 706 401 706 418 q 699 378 706 385 q 692 367 692 378 l 692 363 q 685 333 692 358 q 769 335 726 335 q 824 331 811 335 q 851 314 836 328 q 867 274 874 293 q 829 261 860 256 l 742 254 l 658 251 q 554 -131 554 -93 q 552 -179 554 -169 q 540 -194 550 -189 q 485 -161 500 -206 q 488 -39 471 -117 q 503 19 503 1 q 574 251 508 50 q 351 249 432 249 q 249 -133 249 -96 q 247 -179 249 -169 q 235 -194 244 -189 q 180 -161 194 -206 q 182 -39 165 -117 q 197 19 197 1 q 267 247 204 54 l 203 247 q 154 254 175 247 q 114 274 125 254 q 110 300 99 294 q 293 325 136 317 q 313 378 308 372 q 326 408 326 378 q 342 451 326 439 z "},"$":{"ha":625,"x_min":76,"x_max":794,"o":"m 428 546 l 460 511 q 574 738 481 546 q 471 679 507 721 q 404 593 404 638 q 428 546 411 567 m 465 378 q 457 363 460 378 q 428 297 457 340 l 364 140 q 392 149 381 142 q 506 213 485 176 q 523 235 521 226 q 524 272 525 243 q 517 315 522 301 q 498 352 513 328 q 472 388 483 376 q 465 378 471 383 m 663 746 q 571 576 571 582 q 549 534 571 569 q 510 463 528 499 q 538 432 538 435 l 538 426 q 560 399 540 426 q 579 367 579 372 q 592 346 583 358 q 605 303 599 342 q 611 244 611 265 q 472 117 611 188 q 336 74 401 82 q 269 -118 272 -87 q 263 -159 267 -149 q 247 -172 260 -169 q 204 -136 210 -181 q 224 -15 199 -92 q 247 46 244 14 l 256 67 q 167 76 181 67 q 138 93 154 81 q 76 175 81 121 q 104 204 76 188 q 160 207 132 221 q 149 158 142 175 q 200 135 157 142 q 283 133 243 128 q 397 386 375 351 q 410 396 403 386 q 417 416 417 406 q 419 433 418 426 q 365 497 388 485 q 354 515 361 501 q 343 532 347 528 q 328 614 310 565 q 444 750 351 683 q 496 780 485 778 q 518 786 507 782 q 581 806 561 806 q 607 808 601 806 q 699 1014 696 997 q 726 1032 707 1036 q 749 1035 735 1040 l 768 1015 q 760 914 792 975 q 736 875 754 904 l 700 813 q 785 758 767 794 q 765 717 794 738 q 718 728 751 713 q 663 746 685 743 z "},"%":{"ha":833,"x_min":136,"x_max":964,"o":"m 468 558 q 542 725 544 646 q 536 758 542 754 q 465 742 503 776 q 358 579 417 703 q 363 504 335 522 q 468 558 399 485 m 290 588 q 323 677 285 613 q 408 781 361 742 q 500 829 454 819 q 535 835 524 836 q 561 817 546 833 q 613 744 607 797 q 556 563 621 657 q 449 465 515 506 q 361 433 403 435 q 318 454 342 433 q 283 536 275 497 l 285 561 q 286 575 281 565 q 290 588 293 575 m 661 46 q 736 213 738 133 q 729 246 735 242 q 658 229 696 264 q 551 67 610 190 q 556 -8 528 10 q 661 46 592 -28 m 485 74 q 517 163 479 99 q 602 267 556 228 q 694 315 649 306 q 729 321 718 322 q 756 303 740 319 q 807 231 801 283 q 750 49 815 143 q 643 -49 710 -8 q 556 -81 597 -79 q 513 -60 536 -81 q 478 22 469 -17 l 479 47 q 481 61 475 51 q 485 74 488 61 m 503 292 q 456 235 503 275 q 207 -86 235 -29 q 174 -131 189 -129 q 138 -82 136 -125 q 185 24 140 -39 q 219 63 215 49 q 337 200 231 81 q 446 325 443 319 q 458 331 451 324 q 472 356 465 338 q 501 379 478 374 q 508 389 503 382 q 513 399 513 396 q 519 409 514 403 q 526 419 525 415 q 724 616 564 451 q 893 797 885 781 q 918 804 901 813 q 940 804 928 810 q 953 775 942 796 q 931 703 964 751 q 917 690 926 699 q 900 674 907 681 q 874 649 893 667 q 841 619 854 632 q 783 563 828 606 q 700 482 739 519 q 660 442 661 444 q 632 414 644 439 q 528 309 531 313 q 508 299 526 306 l 503 292 z "},"&":{"ha":783,"x_min":88,"x_max":917,"o":"m 419 310 q 376 365 397 329 q 342 336 369 365 q 303 286 315 307 q 229 200 263 257 q 217 181 219 185 q 231 93 190 119 q 522 182 351 56 q 451 269 472 240 q 419 310 429 299 m 635 775 q 589 801 629 785 q 526 815 549 817 q 392 703 474 819 q 389 496 311 586 q 475 569 400 508 q 635 775 651 715 m 471 882 q 576 874 518 894 q 649 861 631 867 q 683 838 668 856 q 736 753 736 797 q 632 615 736 708 l 576 558 q 569 542 576 551 q 551 529 561 533 q 434 420 436 429 q 506 316 432 411 q 593 221 581 221 q 690 309 625 251 q 789 397 756 367 q 851 458 840 451 q 878 450 863 464 q 897 433 894 447 q 894 406 899 418 q 886 390 889 393 q 759 265 857 353 q 647 161 661 176 q 754 51 714 82 q 826 10 794 19 q 913 -75 908 -18 q 810 -71 917 -118 l 754 -42 q 579 118 700 -26 q 430 40 464 54 q 358 15 396 26 q 190 33 267 7 q 146 60 175 38 q 104 97 117 83 q 104 165 88 107 q 183 285 113 192 q 321 446 253 378 q 269 584 268 517 q 328 754 269 651 q 432 872 363 811 q 460 889 457 893 q 471 882 464 882 z "},"'":{"ha":163,"x_min":228,"x_max":411,"o":"m 343 910 q 356 903 346 908 q 371 897 367 899 q 383 889 375 894 q 394 879 390 883 q 378 769 411 858 q 367 736 369 746 q 296 625 354 692 q 283 617 296 619 q 263 611 269 614 q 231 621 243 610 q 263 688 228 633 q 305 765 297 743 q 317 804 313 788 q 326 864 326 843 q 329 899 325 885 q 343 910 333 914 z "},"(":{"ha":458,"x_min":204,"x_max":751,"o":"m 301 276 q 289 229 294 276 q 279 153 283 182 q 290 14 276 61 q 343 -75 304 -33 q 410 -104 375 -103 l 457 -133 q 436 -172 449 -164 q 399 -178 424 -181 q 294 -125 340 -167 q 231 -24 249 -83 q 205 128 204 35 q 228 299 206 222 q 253 411 250 376 q 305 535 258 429 q 368 685 351 640 q 473 858 397 749 q 578 991 549 967 q 615 1017 607 1015 q 637 1041 621 1031 q 667 1051 653 1051 q 717 1061 699 1069 q 744 1023 736 1053 q 748 988 751 993 q 717 969 744 982 q 651 932 668 951 q 600 881 621 893 q 575 858 575 871 q 525 778 560 822 q 487 714 514 760 q 442 636 460 668 q 410 588 424 604 q 389 533 410 567 q 360 460 381 503 q 320 356 339 417 q 301 276 301 296 z "},")":{"ha":458,"x_min":43,"x_max":519,"o":"m 342 260 q 349 293 349 267 q 368 342 371 304 q 375 358 368 343 q 394 432 392 399 q 424 557 417 503 q 435 682 431 611 q 440 782 439 753 q 442 822 442 811 l 442 850 q 428 904 442 883 q 404 949 414 949 q 394 963 396 949 q 396 992 392 978 q 401 1005 394 999 q 423 1010 407 1011 q 456 989 439 1010 q 476 968 463 996 q 517 855 515 878 q 513 732 519 832 q 474 414 511 593 q 410 226 456 342 q 344 76 365 110 q 303 8 350 76 q 243 -82 256 -61 q 169 -151 211 -126 q 100 -167 128 -175 q 43 -114 44 -151 q 50 -85 43 -99 q 90 -87 61 -96 q 128 -83 117 -89 q 161 -51 139 -76 q 224 43 219 32 q 274 99 251 64 q 299 169 274 129 q 319 210 307 188 q 342 260 342 253 z "},"*":{"ha":504,"x_min":260,"x_max":725,"o":"m 604 606 q 601 583 614 600 q 586 565 589 565 q 553 573 572 557 q 526 606 535 589 q 514 633 517 622 q 494 686 503 664 l 492 738 q 438 699 488 742 q 350 618 388 656 q 278 569 294 567 q 263 585 263 571 q 260 603 260 589 q 265 628 261 618 q 343 709 279 644 q 418 783 407 774 q 429 796 429 792 q 418 811 429 800 q 410 829 408 825 q 404 835 411 833 q 396 858 396 847 l 396 872 q 387 899 388 878 q 392 926 386 921 q 404 919 396 926 q 432 886 408 919 q 471 843 453 843 q 494 906 490 872 q 526 956 508 925 l 563 1013 q 574 1028 567 1026 q 592 1042 588 1044 q 614 1013 608 1028 l 628 990 q 556 861 574 921 q 553 844 550 844 q 588 858 554 846 q 639 874 622 869 q 672 886 653 874 q 706 886 693 893 q 725 835 725 867 q 614 791 676 810 q 549 763 551 772 q 549 739 532 763 q 553 690 550 735 q 560 660 557 675 q 568 629 564 644 q 574 638 574 629 q 583 643 574 643 q 600 630 592 643 q 604 614 608 617 l 604 606 z "},"+":{"ha":619,"x_min":143,"x_max":668,"o":"m 367 249 q 267 247 315 247 q 199 254 219 247 q 158 274 169 254 q 154 300 143 294 q 219 315 168 310 q 363 329 264 325 q 361 435 361 379 q 365 503 361 490 q 382 531 368 515 q 422 546 403 553 q 435 508 440 539 l 442 421 l 444 332 q 575 335 544 335 q 618 331 606 335 q 646 314 631 328 q 661 274 668 293 q 624 261 654 256 l 536 254 l 446 251 q 449 126 449 149 q 442 83 449 104 q 422 43 442 54 q 396 39 401 28 q 381 104 386 53 q 367 249 372 140 z "},",":{"ha":275,"x_min":46,"x_max":231,"o":"m 201 -8 q 167 -56 196 -22 q 133 -90 139 -90 q 117 -100 126 -90 q 84 -110 107 -110 q 58 -108 61 -110 q 46 -96 51 -108 q 65 -62 46 -85 q 154 46 132 4 q 175 128 164 76 q 182 163 175 156 q 219 125 210 190 l 222 108 q 201 -8 231 60 z "},"-":{"ha":453,"x_min":143,"x_max":501,"o":"m 219 315 q 373 335 307 335 q 451 331 439 335 q 479 314 464 328 q 494 274 501 293 q 457 261 488 256 q 251 247 282 247 q 199 254 219 247 q 158 274 169 254 q 154 300 143 294 q 219 315 168 310 z "},".":{"ha":275,"x_min":81,"x_max":274,"o":"m 158 181 q 195 197 183 196 q 232 188 207 199 q 269 129 274 161 q 213 72 264 97 q 131 79 165 53 q 158 181 81 128 z "},"/":{"ha":458,"x_min":40,"x_max":700,"o":"m 425 519 q 417 507 418 519 q 379 438 415 494 q 221 140 317 324 q 118 -76 125 -43 q 107 -118 111 -108 q 93 -131 103 -128 q 46 -87 51 -133 q 74 32 40 -40 q 105 95 99 79 q 225 318 111 111 q 347 536 339 525 q 367 563 360 533 q 390 601 375 594 q 403 630 403 626 q 409 640 404 633 q 415 651 414 647 q 531 823 446 689 q 619 976 615 957 q 647 990 624 994 q 669 993 654 996 q 687 967 674 985 q 690 914 700 949 q 674 873 688 890 q 655 847 661 856 q 631 815 649 838 q 602 777 614 793 q 578 744 590 761 q 549 706 550 710 q 540 689 549 703 q 525 664 531 675 q 474 594 510 644 q 434 533 439 544 q 425 519 429 522 z "},":":{"ha":275,"x_min":89,"x_max":379,"o":"m 264 472 q 301 489 289 488 q 338 479 313 490 q 374 421 379 453 q 318 364 369 389 q 236 371 271 344 q 264 472 186 419 m 167 181 q 203 197 192 196 q 240 188 215 199 q 277 129 282 161 q 221 72 272 97 q 139 79 174 53 q 167 181 89 128 z "},";":{"ha":275,"x_min":56,"x_max":379,"o":"m 264 472 q 301 489 289 488 q 338 479 313 490 q 374 421 379 453 q 318 364 369 389 q 236 371 271 344 q 264 472 186 419 m 211 -8 q 177 -56 206 -22 q 142 -90 149 -90 q 126 -100 136 -90 q 94 -110 117 -110 q 67 -108 71 -110 q 56 -96 61 -108 q 75 -62 56 -85 q 164 46 142 4 q 185 128 174 76 q 192 163 185 156 q 229 125 219 190 l 232 108 q 211 -8 240 60 z "},"<":{"ha":619,"x_min":171,"x_max":642,"o":"m 626 519 q 605 493 618 501 q 564 471 592 485 q 435 401 486 432 q 360 358 383 371 q 324 338 336 344 q 300 322 313 331 q 281 285 278 306 q 531 156 308 224 q 635 104 618 133 q 624 81 642 90 q 513 76 568 65 q 463 90 474 88 q 441 96 453 92 q 423 102 429 100 q 408 108 417 104 q 379 126 390 117 q 232 226 296 153 l 181 288 l 171 329 q 205 346 185 332 q 226 360 225 360 q 403 468 263 389 q 522 538 460 494 q 565 561 553 561 q 585 552 576 561 q 610 535 593 543 q 626 519 626 528 z "},"=":{"ha":619,"x_min":136,"x_max":658,"o":"m 231 253 q 423 272 332 272 q 528 269 514 272 q 561 248 542 265 q 573 212 581 231 q 535 199 565 193 q 262 185 293 185 q 201 192 231 185 q 160 211 171 192 q 167 244 136 236 q 231 253 185 249 m 307 450 q 499 469 408 469 q 604 466 590 469 q 638 445 618 463 q 651 409 658 428 q 611 396 644 390 q 352 382 397 382 q 276 389 307 382 q 236 408 247 389 q 243 442 213 433 q 307 450 261 446 z "},">":{"ha":619,"x_min":197,"x_max":667,"o":"m 221 132 q 264 150 233 138 q 397 209 343 182 q 476 247 451 236 q 513 265 500 258 q 539 281 525 271 q 560 317 563 296 q 318 461 533 381 q 218 525 222 494 q 232 543 217 536 q 381 525 299 554 q 410 515 401 518 q 432 507 419 513 q 474 481 454 497 q 613 368 553 447 l 660 304 l 667 263 q 632 249 654 263 q 608 236 610 236 q 426 142 581 215 q 332 99 354 114 q 258 60 274 58 q 240 67 247 58 q 224 81 232 76 q 210 89 215 86 q 202 108 197 96 q 221 132 207 121 z "},"?":{"ha":519,"x_min":176,"x_max":754,"o":"m 254 122 q 291 139 279 138 q 328 129 303 140 q 365 71 369 103 q 308 14 360 39 q 226 21 261 -6 q 254 122 176 69 m 413 753 l 419 715 q 384 714 411 713 q 344 721 357 715 q 324 758 325 747 q 323 778 322 768 q 324 796 324 789 q 454 965 364 919 l 524 999 q 569 1003 536 999 q 582 1003 575 1001 q 599 997 599 1004 l 639 997 q 733 943 701 979 q 728 771 754 881 q 647 601 701 661 q 597 556 646 600 q 531 492 549 511 q 449 416 486 467 q 393 310 413 365 q 372 271 378 276 q 347 266 367 265 q 316 282 326 267 q 306 315 306 297 q 308 342 306 332 q 313 362 310 353 q 324 388 317 371 q 336 417 332 404 q 383 478 351 443 q 438 531 414 514 l 461 547 q 481 568 461 553 q 514 590 500 583 q 560 625 546 613 q 617 706 603 669 q 649 832 631 742 q 649 898 651 879 q 632 928 647 917 q 518 913 588 951 q 418 807 449 875 q 413 753 407 774 z "},"@":{"ha":893,"x_min":119,"x_max":968,"o":"m 642 364 q 564 364 590 378 q 483 269 524 347 q 447 144 442 192 q 476 116 457 124 q 517 118 494 108 q 566 157 539 132 q 596 190 593 182 q 610 219 599 199 q 646 307 639 265 q 657 338 646 308 q 642 364 657 354 m 514 -133 q 422 -174 514 -174 q 239 -101 331 -174 q 163 -4 196 -61 q 142 182 119 56 q 168 268 153 239 l 174 290 q 193 337 174 310 q 232 390 213 364 q 256 423 251 417 q 276 449 260 429 q 297 476 292 469 q 315 498 301 482 q 336 521 329 514 q 381 563 369 554 q 406 583 392 571 q 449 615 421 594 q 537 662 478 636 q 625 692 596 688 q 851 626 760 711 q 960 454 936 560 q 965 363 968 425 q 949 274 961 300 q 865 151 919 211 q 779 82 810 90 q 723 92 757 82 q 683 108 689 101 q 647 132 676 115 q 551 56 596 76 q 489 40 507 36 q 430 61 446 51 q 386 108 414 71 q 376 156 376 133 q 390 224 376 178 q 451 350 404 283 q 565 439 490 408 q 613 447 582 447 q 665 433 644 447 q 695 410 678 432 q 722 365 713 388 q 725 317 728 335 q 704 230 714 263 q 700 183 694 197 q 721 165 697 172 q 751 157 744 157 q 801 188 775 157 q 832 219 825 211 q 849 239 839 228 q 862 256 858 250 q 872 272 865 263 q 890 318 879 286 q 893 365 893 340 q 858 503 893 440 q 678 606 801 606 q 557 583 608 606 q 451 515 521 571 q 346 419 381 460 q 210 133 231 281 q 221 42 203 78 q 319 -62 251 -19 q 486 -89 399 -94 q 501 -96 497 -92 q 503 -111 504 -100 q 514 -133 508 -122 z "},"A":{"ha":697,"x_min":65,"x_max":747,"o":"m 622 424 l 625 424 q 642 575 628 432 q 663 833 653 682 q 597 764 649 833 q 504 615 544 694 q 458 547 467 547 q 413 472 449 538 q 383 401 376 407 q 469 414 435 413 q 576 436 553 433 q 610 433 600 439 q 622 424 617 424 m 746 847 q 747 824 747 839 q 747 793 747 808 q 744 754 746 778 q 740 713 742 731 q 736 667 739 696 q 732 615 733 638 q 715 447 731 593 q 692 21 685 147 q 692 -4 693 11 q 690 -21 690 -19 q 644 -26 678 -35 q 607 1 611 -18 q 600 13 600 7 q 606 125 600 19 l 613 350 l 594 349 q 471 338 567 349 q 351 319 375 326 q 289 260 322 319 q 267 216 281 239 q 254 190 254 193 l 232 164 q 203 86 232 149 q 118 -62 176 26 l 96 -46 q 69 -22 74 -35 q 77 20 65 -8 q 115 98 89 49 q 187 237 140 147 q 233 340 233 326 q 254 374 228 361 q 307 442 286 406 q 453 700 324 481 q 585 900 504 792 q 640 942 617 943 q 697 917 664 942 q 746 847 740 885 z "},"B":{"ha":711,"x_min":92,"x_max":785,"o":"m 488 803 q 465 760 488 782 l 453 735 q 429 678 453 731 q 342 456 342 483 q 468 483 439 472 q 526 525 504 504 q 597 606 549 546 q 668 708 646 667 q 702 783 699 757 q 688 825 706 808 q 615 847 671 844 q 525 839 558 850 q 488 803 488 828 m 514 925 q 528 926 515 925 q 589 928 561 929 q 733 874 682 919 q 783 751 785 828 q 735 649 782 717 q 632 532 688 582 q 553 471 576 482 q 606 451 554 469 q 750 299 722 410 q 719 136 764 238 l 699 106 q 674 63 697 100 q 632 4 650 26 q 381 -103 510 -101 q 276 -81 310 -103 q 222 -43 242 -58 q 193 -12 203 -28 q 210 40 174 18 q 268 4 224 49 q 429 -19 324 -47 q 614 111 535 13 q 662 235 654 164 q 647 326 669 306 q 406 390 569 433 q 325 374 378 386 q 298 350 306 368 q 234 174 290 332 q 157 6 178 15 q 118 35 143 0 q 115 117 92 76 q 138 176 126 135 q 242 446 156 231 q 371 756 329 661 q 399 854 413 850 q 394 867 399 858 q 392 879 390 875 q 431 904 392 888 q 488 918 469 921 q 514 925 514 918 z "},"C":{"ha":669,"x_min":169,"x_max":806,"o":"m 693 131 q 617 44 693 90 q 550 1 589 17 q 429 -62 499 -36 q 311 -78 360 -89 q 267 -60 282 -67 q 231 -31 251 -53 q 174 190 169 29 q 217 425 174 314 q 236 471 218 428 q 269 549 254 514 q 344 669 285 583 q 492 849 429 800 q 592 921 515 868 q 694 941 638 954 q 775 878 751 928 q 778 722 806 819 q 692 569 750 624 q 659 557 671 554 q 625 579 647 560 q 611 611 608 610 q 617 613 614 613 q 653 672 629 628 q 686 740 678 715 q 694 780 690 768 q 699 802 697 792 q 701 817 700 813 q 702 828 701 822 q 702 839 703 835 q 700 847 701 843 q 691 862 700 853 q 643 850 682 871 q 558 788 610 836 q 465 682 507 739 q 315 435 344 524 l 300 399 q 283 335 304 376 q 266 138 260 238 q 304 7 272 38 q 456 31 339 -18 q 525 58 475 38 q 610 111 575 79 q 668 138 646 138 q 690 143 686 144 q 693 131 693 142 z "},"D":{"ha":803,"x_min":101,"x_max":904,"o":"m 301 939 q 374 968 304 956 q 487 977 444 981 q 549 969 529 974 q 580 960 568 964 q 615 947 592 956 q 650 933 639 938 q 794 827 721 906 q 889 663 868 749 q 901 585 897 632 q 894 519 904 538 q 897 496 885 500 q 885 460 894 490 q 872 418 876 429 q 794 213 864 331 q 785 207 786 211 q 769 181 785 200 q 752 160 765 178 q 733 139 739 143 q 725 123 732 129 q 713 117 718 117 q 708 111 713 113 q 617 22 683 75 q 500 -53 551 -31 q 442 -82 493 -58 q 385 -109 431 -92 q 297 -134 340 -126 q 199 -126 253 -142 q 168 -111 178 -122 q 156 -98 158 -100 q 148 -87 154 -96 q 138 -74 142 -78 q 115 -1 101 -22 q 163 -25 128 19 q 283 -54 201 -65 q 426 -1 381 -36 l 589 107 q 618 124 592 114 q 661 166 625 129 q 703 207 697 203 q 708 226 704 214 q 711 243 711 238 q 761 330 728 261 q 807 449 794 399 q 805 666 833 583 q 703 813 776 749 q 606 865 674 836 q 531 890 539 893 q 512 861 524 888 q 481 784 500 835 q 445 687 463 733 q 402 569 428 640 q 363 460 376 497 q 346 406 357 438 q 321 325 321 332 q 276 133 296 288 q 260 69 263 78 q 256 55 258 60 q 253 46 254 50 q 247 39 250 39 l 242 33 q 217 26 242 17 q 182 46 192 36 q 188 129 172 78 q 245 329 213 233 q 306 524 278 425 q 357 664 335 622 q 414 821 403 794 l 424 867 l 408 874 q 371 874 383 865 q 333 885 357 869 q 306 915 308 901 l 301 939 z "},"E":{"ha":761,"x_min":118,"x_max":911,"o":"m 325 56 l 381 51 q 439 63 414 51 q 622 113 586 88 q 647 119 638 119 q 647 115 644 115 q 672 139 653 118 q 743 180 708 169 q 779 185 778 190 q 759 119 792 163 q 661 39 726 75 q 347 -33 532 -31 q 286 -17 310 -31 q 203 42 236 15 q 150 267 118 126 q 185 378 164 335 q 319 614 215 451 l 328 625 q 368 711 328 635 q 388 769 403 749 q 421 810 381 781 q 492 857 461 839 q 556 885 524 882 q 593 872 589 889 q 640 876 606 868 q 685 885 674 883 q 778 907 694 897 l 854 910 q 901 876 882 919 q 894 838 911 850 q 767 811 878 825 q 603 786 657 797 q 526 758 550 775 q 471 694 501 742 q 415 600 458 686 q 325 460 318 468 q 361 451 354 451 q 428 467 372 457 q 678 528 649 524 q 746 503 718 551 q 719 457 760 474 q 538 402 679 440 q 351 361 397 364 q 300 385 304 358 q 278 370 290 389 q 256 320 265 351 q 238 253 246 289 q 231 138 219 172 q 262 86 243 104 q 325 56 281 68 z "},"F":{"ha":647,"x_min":128,"x_max":922,"o":"m 150 -14 q 131 8 133 -1 q 169 158 128 29 q 227 320 210 286 q 253 385 244 354 q 264 421 261 415 q 263 441 261 436 q 275 458 264 446 q 317 524 294 475 l 386 722 q 393 767 399 767 q 352 762 392 767 q 311 757 313 757 q 275 776 275 751 q 325 829 282 825 q 443 851 432 854 q 461 871 461 864 q 482 886 461 885 q 513 874 503 888 q 633 881 522 857 q 757 882 733 889 q 786 886 769 885 q 825 890 819 888 q 886 875 882 881 q 892 858 894 867 l 901 851 q 915 819 922 840 q 902 805 914 807 q 839 804 890 803 q 588 797 739 818 q 503 775 517 792 q 428 618 478 746 q 376 486 379 490 q 635 492 424 472 q 709 499 699 504 q 726 472 719 493 q 726 439 732 450 q 475 406 714 410 q 356 408 389 404 q 343 383 343 399 q 269 211 318 339 q 221 58 221 83 q 205 3 210 31 q 196 -26 200 -24 q 179 -31 194 -31 q 150 -14 164 -31 z "},"G":{"ha":692,"x_min":172,"x_max":838,"o":"m 496 389 q 504 450 475 421 q 592 459 521 461 q 707 436 664 457 q 744 297 765 408 q 660 135 732 243 q 565 38 628 90 q 463 -29 501 -14 q 253 -43 321 -92 q 194 24 215 -19 q 175 113 172 67 q 232 458 174 276 q 342 717 292 632 q 440 850 393 801 q 514 914 488 899 q 683 936 581 953 q 792 889 763 915 q 804 871 794 883 q 803 790 838 828 q 765 789 782 769 q 738 820 751 811 q 706 839 725 829 q 686 849 688 849 q 617 858 664 864 q 544 830 571 853 q 481 763 517 807 q 425 682 444 719 q 307 408 342 536 q 265 228 272 279 q 256 149 258 176 q 256 94 254 121 q 267 51 258 67 q 292 25 276 35 q 399 29 325 3 q 503 83 444 35 q 600 192 561 131 q 661 361 672 325 q 633 378 656 376 q 563 379 610 379 q 496 389 517 379 z "},"H":{"ha":783,"x_min":110,"x_max":1007,"o":"m 758 215 l 722 92 q 690 -60 690 -56 q 647 -51 683 -67 q 615 -19 619 -36 q 620 17 611 -1 q 665 172 629 36 q 704 304 682 219 q 729 392 726 389 l 729 406 q 616 412 729 413 q 426 401 503 411 l 325 401 q 283 273 318 386 q 228 65 247 160 q 181 -115 208 -31 q 151 -108 167 -108 q 120 -84 131 -103 q 115 -43 110 -65 q 126 10 126 -32 q 142 69 133 24 q 192 258 151 114 q 242 413 232 403 l 242 428 q 257 471 242 449 q 271 528 271 513 q 351 724 271 528 l 351 731 q 386 805 354 733 q 429 900 418 876 q 446 934 440 924 q 456 951 451 944 q 460 963 460 958 q 492 970 471 978 q 525 940 514 963 l 539 918 l 489 818 q 438 710 438 728 q 394 592 406 629 q 371 529 382 554 q 349 475 349 479 q 425 481 349 479 q 693 486 667 482 l 765 493 l 874 825 q 907 902 894 885 q 932 919 919 919 q 958 913 944 919 q 975 897 971 907 q 968 811 1007 868 q 928 721 946 772 q 906 658 911 669 q 896 619 906 629 q 872 576 886 610 q 858 524 858 542 q 844 493 858 507 q 758 215 782 276 z "},"I":{"ha":556,"x_min":61,"x_max":849,"o":"m 690 885 q 795 890 768 893 q 832 867 822 886 q 807 813 849 808 q 693 804 783 807 q 588 785 594 796 q 578 772 583 781 q 569 761 572 764 q 556 697 572 746 q 522 594 539 649 q 469 439 478 458 q 456 394 460 419 q 397 201 428 299 q 353 57 365 104 q 456 67 383 60 q 550 72 529 74 q 578 51 571 69 q 564 -8 614 3 q 486 -12 539 -14 q 340 -21 371 -17 q 306 -37 308 -25 q 267 -43 306 -58 q 140 -22 249 -18 q 86 -14 111 -26 q 67 17 61 -1 q 182 54 69 53 l 256 56 l 269 83 q 294 160 281 115 q 325 258 307 204 q 376 419 372 403 q 422 568 397 464 q 475 772 486 768 q 399 767 461 774 q 331 757 338 761 q 307 753 324 747 q 286 772 290 758 q 295 806 282 796 q 360 831 308 815 q 465 853 413 847 q 546 882 518 858 q 594 890 575 892 q 690 885 611 879 z "},"J":{"ha":425,"x_min":-60,"x_max":618,"o":"m 453 418 l 367 160 q 349 114 367 132 q 260 -97 271 -79 q 240 -135 240 -129 q 233 -142 240 -142 q 225 -156 225 -147 q 182 -207 218 -172 q 117 -255 146 -242 q 40 -255 88 -268 q -40 -206 -7 -242 q -51 -157 -60 -183 q -32 -131 -43 -131 q 3 -157 -17 -131 q 161 -94 78 -224 q 197 -12 168 -78 q 279 174 274 154 q 292 201 285 193 q 299 224 292 203 q 310 263 306 244 l 368 428 q 395 523 382 492 q 431 622 408 554 q 464 724 453 689 q 483 781 475 758 q 497 825 490 804 q 507 874 510 869 l 429 860 q 387 853 413 853 q 361 863 361 853 l 361 869 q 342 877 354 864 q 332 901 331 890 q 431 936 332 924 l 531 950 q 565 945 538 956 q 604 924 593 935 q 612 869 618 896 q 579 770 606 843 q 544 672 553 697 q 514 586 535 646 q 453 418 467 453 z "},"K":{"ha":686,"x_min":107,"x_max":939,"o":"m 122 64 q 132 78 132 64 q 136 107 132 93 q 147 142 140 121 q 168 206 157 178 q 189 267 189 256 q 207 306 189 278 q 221 374 221 343 q 253 449 249 435 q 268 494 257 464 q 290 556 279 524 q 310 610 301 589 q 336 669 319 631 q 374 743 367 743 l 374 758 q 378 772 374 763 q 392 799 383 782 q 407 828 400 817 q 431 886 424 856 q 446 908 439 901 q 506 895 486 936 q 504 824 525 854 q 361 492 361 522 l 408 526 q 524 622 444 563 l 694 761 q 771 811 722 775 q 888 888 879 889 q 921 874 903 894 q 936 835 939 853 q 930 810 939 821 q 874 776 921 800 q 819 738 828 753 q 728 669 781 707 q 582 553 610 593 q 572 549 578 553 q 561 546 565 544 q 535 525 542 533 q 500 494 521 493 q 394 418 468 475 q 450 231 407 304 q 532 100 490 142 q 626 32 594 32 q 661 13 639 28 q 679 -54 706 -18 q 665 -72 674 -68 q 618 -62 656 -75 q 542 -21 596 -64 q 458 58 488 22 q 353 254 374 178 q 334 322 346 286 q 321 367 322 357 l 321 393 l 304 351 q 297 331 304 350 q 253 200 274 274 q 164 -64 182 -50 q 128 -51 154 -71 q 109 -31 111 -42 q 115 10 107 -19 q 122 64 115 19 z "},"L":{"ha":592,"x_min":140,"x_max":628,"o":"m 268 353 l 268 349 q 263 339 265 349 q 258 325 261 329 q 249 285 249 317 q 224 190 233 247 q 217 106 214 133 q 293 32 222 60 q 340 19 325 19 q 468 39 372 13 q 504 46 483 43 q 547 57 525 49 q 613 67 604 72 q 621 33 628 54 q 576 0 617 22 q 499 -33 536 -22 q 394 -58 456 -53 q 301 -53 333 -64 q 203 2 247 -39 q 146 89 158 43 q 141 164 142 119 q 144 219 140 208 q 148 233 149 222 q 158 276 147 244 q 164 325 168 307 q 178 347 171 340 q 185 372 188 358 q 196 404 182 385 l 208 425 q 230 487 210 435 q 257 550 250 539 l 257 553 q 272 582 263 567 q 360 764 281 638 q 508 951 474 949 q 539 938 524 953 q 558 908 554 922 q 556 872 568 875 q 483 782 538 860 q 396 643 429 704 l 342 531 q 279 378 308 460 q 268 353 268 367 z "},"M":{"ha":1000,"x_min":46,"x_max":1111,"o":"m 485 772 q 507 821 507 799 q 519 867 507 843 q 543 889 531 892 q 592 868 575 889 q 597 860 593 865 q 603 852 601 854 q 607 844 604 850 q 611 835 610 839 q 614 824 613 831 q 615 809 615 817 q 613 791 614 801 q 610 763 613 781 q 601 700 608 744 q 593 649 593 656 q 521 331 551 524 q 503 122 490 139 q 519 120 511 114 q 544 158 528 126 q 604 243 561 190 q 651 322 614 261 q 907 756 794 558 q 946 817 919 774 q 1014 911 994 897 q 1074 906 1043 938 q 1108 814 1106 875 q 1053 540 1111 721 q 997 338 1033 444 q 986 279 994 318 q 975 188 972 204 q 954 38 954 149 q 936 -60 940 -57 q 918 -67 918 -54 q 899 -71 914 -81 q 876 -51 883 -61 q 867 64 861 -17 q 968 572 910 317 q 1017 779 999 681 q 1003 768 1017 788 q 989 743 989 749 q 933 660 944 681 q 906 609 922 640 q 878 558 890 578 q 833 476 867 538 q 786 391 800 414 q 746 317 772 368 q 696 238 732 283 l 661 181 q 633 133 661 174 q 567 53 604 93 q 503 6 531 14 q 438 31 475 -1 q 405 113 410 63 q 414 258 400 164 q 436 383 424 306 q 472 564 464 546 q 471 594 475 594 q 454 578 465 596 q 308 315 346 397 q 157 33 206 125 q 104 -64 108 -58 q 51 -29 83 -64 q 50 2 46 -11 q 82 76 54 15 q 139 172 125 161 q 158 221 156 194 q 210 311 176 246 q 310 490 263 393 q 363 581 338 538 q 404 653 388 625 q 431 697 421 681 q 451 729 440 713 q 485 772 475 764 z "},"N":{"ha":786,"x_min":68,"x_max":978,"o":"m 413 861 q 473 903 438 903 q 522 861 508 903 q 550 511 557 781 q 565 258 544 338 q 596 120 576 194 q 626 46 615 46 q 781 486 671 46 q 817 669 804 565 q 861 856 861 838 l 861 886 q 873 904 867 886 q 879 950 879 922 q 899 997 879 978 q 935 1005 904 1013 q 974 976 967 997 q 935 764 978 947 q 917 672 935 747 q 894 564 900 596 q 869 476 881 474 q 724 29 813 232 q 567 -22 653 -133 q 500 128 521 38 q 476 251 493 161 q 453 424 449 324 q 459 521 454 458 q 465 615 464 583 q 454 715 464 714 q 419 644 444 715 q 371 517 394 574 q 297 347 311 376 q 271 267 283 318 q 161 -50 179 22 q 142 -92 150 -78 q 89 -86 122 -122 q 69 -49 69 -65 q 79 5 68 -33 q 117 106 90 43 q 154 226 143 169 q 216 384 201 336 q 242 455 231 432 q 272 517 253 478 q 305 588 292 556 q 334 670 318 621 q 358 744 350 719 q 413 861 381 815 z "},"O":{"ha":689,"x_min":139,"x_max":828,"o":"m 714 608 q 714 632 714 608 q 712 717 714 656 q 683 807 710 778 q 589 821 646 847 q 463 702 549 804 q 378 574 376 600 q 371 553 378 563 q 290 372 333 514 q 244 153 247 231 q 241 74 240 76 q 263 36 242 72 q 291 15 271 22 q 332 13 311 8 q 422 49 379 18 q 533 160 464 81 q 626 285 601 239 q 689 460 651 331 q 714 608 714 560 m 540 892 q 631 921 606 931 q 747 858 708 904 q 807 706 786 811 q 809 507 828 600 q 701 268 790 414 q 469 -10 604 76 q 243 -28 333 -97 q 179 31 194 10 q 181 300 139 89 q 188 322 189 308 q 190 349 186 335 q 203 390 194 363 q 217 444 211 417 q 371 754 279 633 q 540 892 474 861 z "},"P":{"ha":656,"x_min":121,"x_max":833,"o":"m 335 399 l 333 372 q 335 363 333 368 q 379 363 338 357 q 571 438 468 375 q 668 532 621 472 q 732 718 746 661 q 694 786 725 754 q 532 829 636 847 q 499 810 510 822 q 472 757 489 797 q 414 624 440 696 q 360 461 385 521 q 335 399 336 401 m 203 257 l 210 303 q 240 360 226 303 q 247 386 243 372 q 257 419 256 414 q 294 510 268 456 q 372 743 336 664 q 384 772 378 757 q 393 795 390 788 q 397 810 396 803 q 396 826 401 821 q 422 888 371 844 q 461 918 444 914 q 511 919 478 922 q 617 917 544 917 q 646 906 625 913 q 694 883 694 888 q 711 871 694 872 q 758 839 728 869 q 819 669 833 758 q 803 600 814 614 q 781 572 781 583 q 745 513 781 560 q 678 435 710 465 q 592 361 642 393 q 363 290 428 288 q 333 286 360 290 q 301 274 307 282 q 285 238 296 267 q 274 193 274 208 q 237 90 265 178 q 201 -28 208 3 q 186 -62 193 -58 q 163 -67 179 -67 q 136 -49 147 -67 q 127 -5 121 -40 q 172 144 133 31 q 188 200 179 174 q 203 257 203 249 z "},"Q":{"ha":681,"x_min":139,"x_max":804,"o":"m 356 208 q 372 228 363 225 q 407 224 381 231 q 465 157 439 224 q 483 111 468 144 q 635 418 568 231 q 656 472 639 429 q 683 542 674 515 q 711 697 711 625 q 708 786 719 757 q 661 832 696 815 q 507 792 590 857 q 367 586 424 726 q 248 275 279 400 q 238 58 217 150 q 261 -7 240 14 q 315 -18 282 -28 q 425 44 371 -10 q 394 104 411 72 q 353 181 358 168 q 356 208 342 192 m 718 393 q 710 385 710 393 q 675 267 719 353 q 536 14 617 108 q 558 -28 550 -17 q 576 -61 561 -37 q 596 -99 592 -85 q 627 -160 628 -150 q 618 -173 626 -171 q 590 -176 610 -175 q 547 -160 569 -176 q 518 -124 524 -143 q 508 -107 510 -115 q 503 -97 507 -99 q 490 -82 500 -94 q 472 -46 485 -75 q 233 -67 342 -142 q 182 -12 196 -42 q 143 138 147 57 q 164 332 139 218 q 210 478 178 385 q 247 572 242 572 q 251 594 251 576 q 294 679 251 611 q 371 776 338 747 q 504 882 417 838 q 607 914 547 910 q 701 898 667 918 q 764 822 736 878 q 791 777 786 796 q 799 730 796 758 q 803 696 801 701 q 774 505 804 617 q 718 393 744 393 z "},"R":{"ha":692,"x_min":60,"x_max":875,"o":"m 664 807 q 540 826 581 829 q 490 783 500 822 q 462 718 490 779 q 421 624 433 657 q 331 434 333 446 q 333 418 329 422 q 494 465 390 422 q 674 580 594 511 q 749 714 753 649 q 721 769 749 740 q 664 807 693 799 m 447 908 q 711 879 593 942 q 819 642 875 783 q 707 510 797 586 q 539 401 617 435 q 389 347 499 382 q 333 340 364 340 l 336 339 q 460 167 368 268 q 578 52 503 117 q 707 -39 653 -12 q 710 -74 718 -51 q 692 -99 701 -96 q 619 -79 665 -108 q 360 147 489 -1 q 269 289 299 217 l 267 282 q 140 -83 225 140 q 82 -82 128 -119 q 60 -49 60 -60 q 99 50 60 -37 q 139 165 107 100 q 248 438 146 189 q 393 781 350 688 q 376 825 410 825 q 375 879 343 861 l 447 908 z "},"S":{"ha":675,"x_min":181,"x_max":928,"o":"m 781 964 q 870 931 833 961 q 914 853 907 901 q 889 735 928 803 q 758 622 836 639 q 739 625 744 619 q 785 731 715 653 q 821 878 879 869 q 744 871 806 882 q 682 853 682 860 l 676 846 q 574 788 671 847 q 474 722 476 729 q 442 694 471 707 q 340 567 400 669 q 307 498 317 535 q 307 439 297 461 q 350 381 314 415 q 440 315 386 347 q 619 172 593 231 q 647 38 667 106 q 613 -9 636 14 q 572 -31 589 -32 q 547 -41 560 -33 q 525 -54 533 -49 q 459 -66 517 -60 q 353 -69 401 -72 l 297 -53 q 294 -40 300 -46 q 275 -33 289 -35 q 192 65 214 6 q 182 91 181 86 q 199 103 183 96 q 222 109 214 113 q 240 82 229 106 q 349 21 267 33 q 506 43 431 8 q 569 87 557 64 q 560 146 582 110 q 547 168 556 161 q 494 218 522 193 q 423 251 464 232 q 333 312 382 271 q 267 383 283 353 q 226 478 233 414 q 246 594 219 543 q 319 699 263 632 q 407 786 376 765 l 451 828 q 467 835 453 829 q 533 878 501 849 q 781 964 711 964 z "},"T":{"ha":636,"x_min":229,"x_max":897,"o":"m 681 801 q 610 797 631 797 q 578 706 604 756 q 567 672 574 690 q 554 626 554 632 q 507 495 546 615 q 465 368 468 375 l 399 186 q 356 76 371 133 q 331 -15 340 19 q 317 -56 321 -50 q 307 -62 314 -62 q 294 -61 300 -61 q 274 -43 288 -61 q 261 -1 260 -25 q 284 96 263 24 q 324 208 306 168 q 334 248 328 228 q 340 271 340 268 q 363 326 356 289 q 464 654 371 364 q 488 707 476 675 q 499 736 499 714 q 524 786 521 783 l 524 788 q 292 767 317 768 q 239 799 229 760 q 297 836 246 828 q 428 856 325 843 q 699 881 518 868 q 758 874 711 881 q 825 861 806 868 q 892 806 881 849 q 881 779 897 786 q 876 776 878 778 q 794 774 825 761 q 778 786 785 782 q 681 801 761 796 z "},"U":{"ha":669,"x_min":157,"x_max":907,"o":"m 450 90 q 526 172 471 99 q 582 256 582 246 q 600 286 582 265 q 722 515 625 311 q 815 827 807 786 q 839 913 824 868 q 894 892 847 915 q 900 846 907 876 q 840 610 864 675 q 799 504 817 546 q 773 441 782 463 q 742 371 764 419 q 713 303 721 322 l 713 294 q 682 259 696 285 q 663 231 668 233 l 650 199 q 633 181 649 190 q 615 163 618 172 q 610 150 611 153 q 497 17 560 76 q 306 -72 388 -92 q 182 63 207 -37 q 200 382 157 164 q 272 624 221 483 q 364 838 322 765 q 422 928 406 911 q 456 942 439 944 q 501 897 494 931 q 475 839 508 863 q 428 761 458 821 q 386 681 397 701 q 278 308 300 433 q 249 71 249 174 q 256 57 251 65 q 263 44 261 49 q 269 33 265 39 q 285 22 274 26 q 397 39 331 0 q 426 64 406 54 q 433 60 431 58 q 438 69 435 63 q 450 90 436 76 z "},"V":{"ha":681,"x_min":264,"x_max":925,"o":"m 331 856 q 354 936 322 924 q 401 938 386 949 q 419 892 422 925 q 404 700 431 826 q 373 478 378 574 q 364 301 368 382 q 358 160 357 193 q 364 97 358 126 q 376 67 369 67 q 425 147 394 71 q 456 211 431 163 q 504 325 481 260 q 555 426 522 365 q 603 523 588 486 q 672 661 618 560 q 768 819 739 764 q 832 912 810 888 q 875 936 854 936 q 897 933 888 943 q 915 874 925 906 q 833 735 906 842 q 724 557 761 629 q 681 472 686 485 q 660 429 668 442 q 576 279 642 413 l 475 46 q 456 -1 469 29 q 443 -37 443 -32 q 402 -74 428 -61 q 361 -81 376 -87 q 347 -57 349 -78 q 338 -28 346 -36 q 306 -15 329 -21 q 277 42 283 7 q 264 217 271 78 q 290 507 275 399 q 294 575 289 528 q 296 636 299 622 q 309 706 303 657 q 321 776 315 756 q 331 856 331 851 z "},"W":{"ha":1000,"x_min":192,"x_max":1217,"o":"m 1053 419 q 1047 410 1053 419 q 1035 389 1040 400 q 1029 367 1029 378 q 956 226 1029 357 q 843 43 883 94 q 756 -41 803 -8 q 692 -74 710 -74 q 639 -43 651 -76 q 608 14 614 -18 q 631 369 592 189 q 660 495 649 451 q 667 539 672 539 q 646 508 663 539 q 606 428 629 476 q 432 104 529 268 q 388 41 425 96 q 326 -35 350 -14 q 215 -51 264 -94 q 200 11 192 -24 q 208 153 196 46 q 231 331 219 261 q 269 531 242 401 q 306 703 297 661 q 329 774 315 724 q 344 832 343 825 q 358 872 344 860 q 387 880 371 883 q 413 863 403 876 q 422 746 453 819 q 322 343 360 593 q 290 73 278 76 q 321 90 301 69 q 356 143 340 110 q 551 496 438 279 q 672 724 665 713 q 690 756 679 736 q 708 789 701 776 q 724 817 715 801 q 739 841 733 832 q 750 858 744 850 q 769 879 764 878 q 835 832 815 876 q 831 797 839 817 q 793 671 811 744 q 758 558 767 601 q 728 417 750 515 q 684 140 685 214 q 693 42 683 67 q 710 27 696 29 q 735 38 724 25 q 874 257 806 129 q 1060 661 943 385 q 1133 853 1119 833 q 1201 872 1167 900 q 1215 826 1217 857 q 1151 645 1201 778 q 1083 476 1100 513 q 1053 419 1065 439 z "},"X":{"ha":728,"x_min":72,"x_max":935,"o":"m 490 610 l 496 554 q 519 456 496 539 q 571 510 542 481 q 679 625 661 603 q 849 854 828 801 q 856 870 853 864 q 860 878 860 876 q 863 883 861 881 q 867 888 865 886 q 869 890 868 889 q 879 893 875 893 q 914 869 906 892 q 868 726 935 822 q 832 672 836 694 q 696 519 725 543 q 585 414 610 446 q 551 381 557 383 q 544 369 550 375 q 616 162 572 251 q 696 51 660 72 q 710 48 699 49 q 725 51 722 47 q 753 40 746 56 q 763 -3 761 24 q 740 -30 767 -18 q 683 -37 714 -42 q 572 71 629 -33 q 465 292 506 163 q 282 100 406 235 q 149 -53 158 -35 q 111 -65 139 -72 q 90 -65 104 -69 q 82 -36 86 -57 q 82 3 72 -21 q 97 35 92 28 q 106 47 101 42 q 121 64 110 53 q 140 83 132 75 q 172 111 149 90 q 209 147 194 132 q 242 178 224 161 q 271 204 260 194 q 282 217 282 214 q 287 225 282 219 q 299 239 292 231 q 313 256 307 247 q 442 376 336 274 q 421 503 431 433 q 401 582 411 572 q 407 592 399 589 q 400 627 410 594 q 381 750 390 660 q 365 872 371 853 q 383 897 369 883 q 442 890 414 919 q 471 817 471 861 q 479 764 471 772 q 481 703 476 758 q 490 633 486 647 q 490 610 485 617 z "},"Y":{"ha":700,"x_min":303,"x_max":943,"o":"m 885 886 q 914 904 894 901 q 927 884 922 901 q 938 856 932 867 q 942 836 943 846 q 911 797 940 826 q 814 701 881 771 q 708 583 747 632 q 540 400 582 438 l 511 371 q 488 274 504 346 q 464 196 479 246 q 428 75 443 124 q 401 -22 413 26 q 382 -85 389 -71 q 365 -96 375 -99 q 318 -68 354 -93 q 306 -40 303 -53 q 310 -19 308 -26 q 325 36 314 0 q 367 190 328 119 q 410 336 367 233 l 432 403 q 342 599 354 506 q 329 824 321 669 q 353 925 329 882 q 357 935 357 933 q 397 914 379 963 q 408 826 410 878 q 478 483 417 522 q 514 489 499 478 q 672 653 560 522 q 824 830 783 785 q 885 886 865 875 z "},"Z":{"ha":725,"x_min":81,"x_max":907,"o":"m 326 33 q 352 38 326 33 q 506 51 379 43 q 656 58 633 58 q 697 33 679 58 q 715 14 715 26 q 696 -12 714 1 q 663 -17 689 -12 q 556 -28 593 -31 q 381 -40 518 -25 q 169 -50 281 -56 q 101 -35 111 -46 q 88 -10 90 -24 q 114 64 81 29 q 467 406 254 215 q 683 611 576 500 q 803 774 789 722 q 788 822 814 811 q 663 839 763 832 q 400 818 564 846 q 378 822 392 815 q 364 836 364 829 q 358 865 375 851 q 369 901 350 882 q 413 910 378 906 q 471 918 447 914 q 565 924 494 922 q 663 922 636 925 q 717 917 689 919 q 758 914 744 915 q 795 909 772 913 q 831 901 818 906 q 858 890 843 897 q 906 814 900 871 q 894 767 907 797 q 878 728 881 736 q 779 594 853 681 q 579 391 706 508 q 367 200 453 274 q 210 60 281 126 q 226 26 186 31 q 326 33 272 22 z "},"[":{"ha":458,"x_min":61,"x_max":876,"o":"m 303 -142 q 257 -154 303 -154 q 217 -168 246 -160 q 169 -184 188 -176 q 140 -192 151 -192 q 113 -179 128 -192 q 94 -110 61 -157 q 113 -73 113 -97 q 151 90 113 -49 q 201 246 190 229 q 244 336 201 271 q 358 649 288 476 q 461 874 428 822 q 472 922 472 921 q 487 962 472 950 q 540 974 501 974 q 613 981 571 978 q 799 1028 708 989 q 836 1036 826 1040 q 857 1015 846 1032 q 874 983 876 993 q 842 961 871 974 q 632 914 740 928 q 564 890 569 897 q 530 826 558 882 q 501 767 501 771 q 461 691 494 760 q 425 608 428 622 q 408 564 422 594 q 352 415 374 482 q 325 336 331 349 q 310 288 325 313 q 286 225 296 263 l 269 192 q 257 136 269 181 q 250 121 254 133 q 219 22 238 74 q 201 -56 201 -29 l 194 -94 l 236 -86 q 431 -65 386 -65 q 476 -60 467 -58 q 501 -79 485 -61 q 508 -110 513 -106 q 354 -142 500 -121 l 303 -142 z "},"\\":{"ha":458,"x_min":236,"x_max":521,"o":"m 453 160 l 457 110 q 467 74 457 106 q 483 24 476 43 q 501 -19 489 4 q 517 -55 513 -43 q 517 -79 521 -67 q 496 -128 519 -112 l 471 -144 q 453 -136 456 -144 q 433 -111 428 -131 q 399 35 432 -93 q 358 186 367 163 q 350 231 346 226 q 343 261 340 253 q 336 303 333 268 q 324 336 333 336 q 282 565 317 365 q 249 781 247 765 q 249 806 250 797 q 244 828 247 815 q 240 849 242 840 q 256 972 236 929 q 314 997 276 1014 q 318 936 326 985 q 350 681 317 906 q 388 419 383 457 q 399 342 407 358 q 403 325 396 328 q 410 308 411 317 q 426 240 410 299 q 453 160 442 181 z "},"]":{"ha":458,"x_min":-65,"x_max":654,"o":"m 469 1017 l 501 1014 q 621 1022 600 1038 q 635 1014 626 1022 q 643 993 643 1006 q 653 969 653 974 q 643 949 654 964 q 605 875 632 933 q 578 807 578 817 q 569 796 579 797 q 563 785 563 794 q 558 755 564 775 q 546 735 551 735 q 539 721 539 733 q 528 676 539 708 q 506 616 517 644 q 490 572 496 588 q 479 548 483 557 q 472 526 475 539 q 453 442 458 494 q 418 364 428 406 l 410 325 q 396 267 410 317 q 372 200 382 218 q 347 103 372 181 q 325 6 331 17 l 313 -15 q 306 -44 313 -39 l 301 -67 l 303 -72 q 297 -108 297 -72 q 285 -151 297 -143 q 215 -154 272 -158 l 167 -154 q 121 -151 133 -154 q 42 -150 75 -156 q 1 -148 25 -151 q -31 -142 -22 -144 l -65 -114 l -49 -107 q 31 -82 -39 -94 q 118 -74 101 -69 l 165 -76 l 215 -72 l 229 -35 q 236 22 236 3 q 253 60 256 38 q 281 149 256 67 q 297 212 282 164 q 317 278 313 260 q 335 338 321 296 q 351 392 349 379 q 363 433 353 404 q 375 478 374 463 q 432 653 386 515 q 499 857 478 790 q 529 944 518 894 q 253 932 257 926 q 244 937 250 938 q 233 942 239 936 q 272 988 208 971 q 469 1017 381 1017 z "},"^":{"ha":619,"x_min":165,"x_max":625,"o":"m 560 410 q 551 433 558 414 q 490 571 544 453 q 458 632 475 596 q 432 678 440 668 q 339 622 408 707 q 257 485 296 572 q 186 419 226 397 q 199 519 165 433 q 218 559 208 538 q 233 590 228 581 q 258 629 243 611 q 346 726 286 678 q 446 771 406 775 q 586 517 481 767 q 611 457 610 460 q 598 407 625 426 q 560 410 571 388 z "},"_":{"ha":619,"x_min":58,"x_max":583,"o":"m 485 76 q 533 73 521 76 q 561 56 546 69 q 576 16 583 35 q 539 3 569 -3 q 163 -11 364 -11 q 114 -4 135 -11 q 74 15 85 -4 q 69 42 58 36 q 135 57 83 51 q 485 76 222 76 z "},"`":{"ha":490,"x_min":353,"x_max":511,"o":"m 417 825 q 477 741 444 815 q 510 654 510 667 q 502 628 511 642 q 482 613 493 615 q 459 606 465 601 q 444 635 453 610 q 411 686 439 646 q 372 799 353 775 q 417 825 406 828 z "},"a":{"ha":607,"x_min":96,"x_max":690,"o":"m 496 396 q 440 451 471 451 q 347 378 410 451 q 233 207 285 306 l 199 128 q 234 130 199 113 q 293 167 269 147 q 465 346 413 269 l 496 396 m 149 50 q 135 67 144 58 q 126 85 126 76 q 119 103 126 94 q 194 307 96 126 q 216 336 203 315 q 233 360 229 357 q 238 370 233 365 q 247 375 242 375 l 247 383 q 293 444 247 396 q 482 519 415 572 q 597 414 490 508 l 572 344 q 590 175 542 254 q 618 146 597 160 q 660 129 639 132 q 690 97 690 124 q 665 65 690 71 q 507 179 572 53 q 482 240 488 206 q 438 188 461 211 q 149 50 242 -10 z "},"b":{"ha":604,"x_min":168,"x_max":686,"o":"m 251 474 l 267 521 q 292 581 274 526 q 328 672 311 636 q 397 838 378 783 q 415 867 406 850 q 442 906 435 903 q 470 901 453 908 q 497 881 488 894 q 501 854 506 867 q 447 735 497 842 q 369 560 396 628 q 322 431 343 492 q 294 351 301 369 l 288 321 l 322 354 q 375 399 339 367 q 420 436 411 431 q 461 456 429 442 q 567 479 515 479 q 653 421 618 479 q 643 286 686 358 q 621 254 622 271 q 550 161 619 238 q 455 86 514 124 q 374 41 396 49 q 338 31 351 33 q 293 24 303 26 q 259 31 265 26 q 244 53 253 35 q 231 85 228 71 q 250 90 247 85 q 276 96 250 99 q 374 135 303 93 q 515 242 444 176 q 580 339 567 308 q 583 390 593 369 q 542 400 581 404 q 465 369 504 396 q 264 161 315 276 l 257 147 q 241 133 257 142 q 214 125 225 125 q 188 156 192 135 q 168 180 168 169 q 188 260 168 190 q 216 369 199 313 q 240 432 233 426 q 251 474 251 451 z "},"c":{"ha":493,"x_min":138,"x_max":547,"o":"m 519 392 q 501 346 514 365 q 474 326 488 326 q 460 318 460 326 q 444 315 460 306 q 426 335 428 325 q 426 353 424 344 q 433 376 428 361 q 401 458 468 486 q 231 178 286 393 q 224 119 219 139 q 231 97 228 99 q 283 95 250 92 q 347 115 317 99 q 404 151 376 131 q 446 184 432 172 q 468 200 460 196 q 490 221 481 219 q 513 222 499 222 q 547 199 546 211 q 542 193 547 196 l 535 186 q 486 125 540 175 q 417 75 432 75 q 401 67 401 75 q 359 41 401 61 q 290 15 317 21 q 185 36 228 4 q 143 133 143 68 q 170 285 138 194 q 263 448 203 375 q 356 534 324 521 q 424 547 388 547 q 473 526 449 542 q 497 496 497 511 l 504 489 q 524 451 517 489 q 519 392 531 414 z "},"d":{"ha":546,"x_min":100,"x_max":738,"o":"m 268 128 q 385 200 310 138 q 401 213 389 203 q 418 228 414 222 q 431 244 422 233 q 443 263 439 254 q 429 381 481 336 q 384 390 415 394 q 325 360 353 386 q 214 151 242 285 q 268 128 208 115 m 503 -26 q 456 4 468 -35 q 438 142 431 75 l 440 171 l 386 128 q 218 50 299 50 q 153 236 100 71 q 233 379 182 322 q 436 449 324 514 q 481 435 471 432 q 501 483 490 438 q 633 843 539 643 q 681 889 656 892 q 728 847 711 889 q 724 801 738 825 q 635 597 688 739 q 560 374 582 456 q 528 179 538 293 q 526 31 518 65 q 531 -13 535 -3 q 503 -26 526 -24 z "},"e":{"ha":451,"x_min":139,"x_max":535,"o":"m 382 343 q 394 348 382 343 q 430 378 406 353 q 454 422 454 403 q 435 452 454 440 q 389 457 415 464 q 335 425 363 450 q 289 376 307 400 q 275 347 271 351 q 319 335 281 336 q 382 343 358 333 m 380 119 q 382 120 380 119 q 384 121 383 121 q 387 122 385 121 q 389 125 389 124 q 413 148 399 133 q 435 163 428 163 q 449 156 442 163 q 460 147 457 149 q 453 111 482 147 q 383 49 425 75 q 278 20 339 10 q 182 81 218 31 q 150 254 139 135 q 217 413 156 332 q 346 521 278 494 q 382 534 365 533 q 438 529 399 535 q 500 496 478 524 q 535 415 535 461 q 492 339 529 382 q 401 269 454 296 q 275 279 324 246 q 241 275 250 289 q 225 206 232 261 q 271 100 214 110 q 288 97 276 99 q 302 94 299 94 q 314 92 306 93 q 328 93 322 92 q 349 102 339 96 q 365 111 360 108 q 380 119 376 117 z "},"f":{"ha":404,"x_min":107,"x_max":667,"o":"m 196 40 l 185 -96 q 171 -147 181 -137 q 122 -114 158 -156 q 109 -90 111 -101 q 111 -43 107 -79 q 118 15 118 -22 q 138 142 118 61 q 164 263 158 224 q 190 376 190 350 q 210 414 190 403 q 231 460 211 425 q 314 667 289 622 q 354 754 339 736 q 407 824 364 778 q 483 897 450 869 q 565 924 535 924 q 606 919 596 924 q 642 894 621 915 q 663 867 660 874 q 667 840 667 860 q 639 765 661 811 q 606 718 617 719 q 581 722 589 713 q 574 751 574 731 l 564 779 q 574 814 564 800 q 576 835 581 828 q 558 838 572 842 q 497 788 546 831 q 447 738 447 746 q 421 696 440 719 q 396 648 396 661 q 388 635 396 635 q 368 590 382 615 q 340 542 356 557 l 342 542 q 316 465 315 472 q 358 463 317 458 q 429 475 399 467 q 488 476 460 483 q 513 444 503 467 q 517 414 522 422 q 369 372 511 399 q 276 349 276 354 q 263 331 263 349 q 256 297 263 313 q 233 212 250 282 q 215 125 215 142 q 204 75 204 111 q 196 40 196 60 z "},"g":{"ha":493,"x_min":90,"x_max":554,"o":"m 424 424 q 416 453 422 446 q 393 457 410 460 q 275 368 339 449 q 240 299 254 340 q 223 222 225 258 q 235 179 221 185 q 383 282 318 182 q 424 424 431 347 m 349 532 q 411 535 375 546 q 488 493 444 531 q 536 419 521 460 q 528 346 554 381 q 497 301 510 328 q 481 261 483 275 q 410 -17 479 250 q 285 -265 347 -232 q 204 -261 247 -281 q 103 -136 132 -229 q 98 -87 90 -93 q 122 -87 106 -82 q 144 -107 139 -93 q 167 -146 149 -121 q 193 -172 185 -171 q 254 -175 232 -190 q 292 -128 276 -157 q 328 -37 308 -100 q 400 194 386 168 q 372 169 390 186 q 304 122 333 133 q 263 110 296 111 q 200 118 231 108 q 164 142 171 133 q 146 176 157 150 q 142 249 135 201 q 167 343 149 296 q 250 458 193 397 q 349 532 307 519 z "},"h":{"ha":644,"x_min":131,"x_max":703,"o":"m 621 283 l 614 210 l 606 165 l 628 165 l 658 158 q 681 143 671 143 q 689 122 703 143 q 672 106 682 113 q 563 106 606 63 q 540 232 519 149 q 547 321 547 292 q 532 350 546 350 q 401 277 500 350 q 251 129 301 204 q 187 74 210 76 q 148 86 164 72 q 131 110 132 100 q 136 147 131 121 q 218 426 174 306 q 260 552 235 488 q 304 667 286 617 q 339 764 322 718 q 364 831 356 810 q 383 886 375 860 q 406 908 383 908 q 447 869 433 908 q 440 788 460 831 q 372 611 419 746 q 303 432 324 476 q 274 357 303 415 q 256 295 274 351 q 235 211 239 239 q 306 292 256 247 q 400 369 382 357 l 443 399 q 454 406 443 406 q 465 415 465 406 q 497 431 465 424 q 550 439 529 439 q 581 432 571 439 q 606 401 590 425 q 621 283 644 351 z "},"i":{"ha":260,"x_min":132,"x_max":399,"o":"m 142 133 l 147 163 q 158 208 146 171 q 225 404 183 264 q 247 422 225 421 q 272 423 264 428 q 294 396 281 418 q 291 321 315 375 q 261 238 267 267 q 230 150 240 192 q 211 94 219 108 q 188 28 199 38 q 158 40 178 18 q 135 89 138 61 q 142 133 132 117 m 325 744 q 388 718 357 767 q 394 674 399 690 q 364 626 390 658 q 289 608 326 576 q 271 643 272 622 q 272 665 269 664 q 298 690 283 667 q 312 727 313 713 q 325 744 311 742 z "},"j":{"ha":283,"x_min":-112,"x_max":411,"o":"m 242 431 l 249 489 q 269 490 254 494 q 296 471 283 485 q 309 443 308 457 q 300 343 310 429 q 278 216 300 301 q 252 111 257 131 q 243 78 247 92 q 238 58 239 65 q 220 3 238 51 q 200 -64 203 -44 q 177 -127 197 -83 q 129 -213 157 -171 q 83 -269 101 -256 q 6 -300 54 -301 q -76 -264 -43 -299 q -103 -207 -93 -239 q -111 -153 -112 -175 q -96 -131 -110 -131 q -78 -140 -86 -131 q -69 -169 -69 -150 q -59 -203 -69 -187 q -32 -219 -49 -219 q 9 -210 -17 -225 q 51 -172 35 -196 q 103 -78 68 -147 q 154 35 138 -10 q 211 279 174 100 q 224 341 215 308 q 232 392 232 374 q 242 431 232 411 m 397 790 q 411 752 411 767 q 397 715 411 738 q 342 667 363 676 q 303 674 321 658 q 292 721 288 692 q 319 779 296 750 q 397 790 357 824 z "},"k":{"ha":507,"x_min":103,"x_max":597,"o":"m 442 918 q 460 925 449 925 q 486 903 471 925 q 501 867 501 882 q 419 644 501 811 q 294 340 283 351 q 382 392 326 353 q 447 433 407 408 q 510 472 506 467 q 544 479 533 482 q 569 458 556 476 q 574 427 582 439 q 538 397 567 415 q 461 350 508 379 q 384 303 414 321 q 351 281 354 285 q 392 208 372 239 q 422 156 422 163 q 468 92 438 111 q 540 91 499 74 q 592 75 581 108 q 595 59 597 64 q 576 38 593 54 q 474 8 522 -17 q 422 36 453 7 q 335 138 390 65 q 297 211 335 147 q 282 240 297 215 q 267 242 271 240 q 256 236 263 243 q 238 214 243 224 q 229 200 232 204 q 192 44 182 76 q 185 15 192 22 q 156 7 178 7 q 121 40 139 13 q 103 89 103 67 q 113 118 107 97 q 130 172 119 139 q 149 231 140 204 q 178 304 160 249 q 225 411 192 331 q 269 515 258 492 q 351 710 279 538 q 426 896 424 882 q 442 918 426 918 z "},"l":{"ha":235,"x_min":111,"x_max":461,"o":"m 232 465 l 246 518 q 324 712 268 561 q 379 882 379 863 q 401 901 379 901 q 424 908 408 908 l 446 886 q 461 849 461 872 q 460 817 461 825 q 457 803 458 810 q 450 785 456 797 q 440 763 444 772 q 424 727 436 753 q 403 683 411 701 q 386 645 396 665 q 371 613 376 625 q 365 599 365 601 q 363 590 365 596 q 357 573 361 583 q 346 547 353 563 q 290 412 290 425 q 283 392 290 399 q 276 381 276 392 l 276 376 q 254 303 276 363 q 194 63 194 101 q 192 15 194 25 q 181 0 190 6 q 126 33 140 -11 q 128 156 111 78 q 143 214 143 196 q 172 309 147 240 q 203 392 196 378 q 217 422 217 392 q 232 465 217 453 z "},"m":{"ha":778,"x_min":124,"x_max":876,"o":"m 210 429 q 218 448 210 429 q 225 486 225 467 q 241 517 225 506 q 272 525 257 528 q 313 475 311 517 q 301 421 314 453 q 240 257 240 271 q 265 272 242 251 q 315 315 289 292 q 398 375 340 339 q 486 421 456 411 q 500 419 494 421 q 509 417 506 418 q 519 412 513 417 q 528 406 525 407 q 553 378 539 393 q 560 328 568 364 l 532 240 q 671 347 636 329 q 772 332 739 382 q 790 301 789 315 q 790 283 790 288 l 790 236 q 803 122 799 128 q 840 110 808 115 q 874 90 871 106 q 856 61 876 75 q 764 59 818 39 q 711 186 710 79 q 713 251 714 228 q 703 275 713 275 q 625 228 685 275 q 494 103 551 168 q 483 90 488 93 q 472 80 479 86 q 461 72 465 74 q 450 69 457 71 q 410 92 440 67 q 403 124 397 103 l 435 215 q 469 322 479 322 q 435 309 457 321 q 407 286 413 297 q 388 271 403 286 q 363 250 372 256 q 317 201 356 239 q 265 151 278 163 q 233 115 251 139 q 202 76 214 92 q 188 60 190 60 q 133 101 144 60 q 132 161 124 122 q 147 228 140 200 q 158 273 154 256 q 164 303 161 290 q 168 320 167 315 q 174 339 169 325 q 188 372 179 353 q 210 429 196 392 z "},"n":{"ha":625,"x_min":144,"x_max":658,"o":"m 497 396 q 543 411 531 411 q 584 386 556 411 q 618 344 613 361 q 623 312 618 329 q 626 244 628 294 q 615 189 625 194 q 622 182 615 182 l 622 175 q 620 149 607 175 q 646 111 633 124 q 656 84 658 99 q 631 64 653 69 q 554 115 576 64 q 543 183 546 144 q 545 229 540 221 q 549 274 550 238 q 537 316 549 311 q 503 307 525 321 q 271 146 339 204 q 228 85 253 126 q 217 78 224 78 q 176 93 203 71 q 144 131 146 126 q 153 182 144 142 q 168 233 163 222 q 182 251 174 233 q 196 278 190 269 q 232 374 200 299 q 269 485 264 428 q 272 495 268 490 q 282 500 276 500 q 334 488 307 524 q 356 416 361 451 q 311 315 351 381 q 292 263 292 268 q 369 315 347 300 q 429 360 381 328 q 497 396 478 392 z "},"o":{"ha":490,"x_min":128,"x_max":560,"o":"m 460 324 q 467 384 468 346 q 456 428 467 422 q 364 407 417 450 q 226 196 294 347 q 231 99 197 126 q 368 168 272 64 q 460 324 428 236 m 192 333 q 408 517 285 488 q 451 524 438 525 q 483 501 464 522 q 530 468 515 488 q 549 411 544 449 q 476 183 560 303 q 417 113 444 138 q 343 61 389 89 q 235 21 289 25 q 181 47 211 21 q 136 150 128 101 l 139 182 q 135 193 132 189 q 140 199 139 197 q 146 212 149 199 q 157 263 143 225 q 192 333 171 301 z "},"p":{"ha":525,"x_min":40,"x_max":576,"o":"m 478 368 q 406 376 458 394 q 269 250 313 344 q 253 153 228 163 q 337 174 274 153 q 433 224 400 196 q 481 289 465 251 q 478 368 497 326 m 110 -8 l 119 42 q 174 219 126 79 q 254 446 221 360 q 283 556 283 514 q 299 579 283 563 q 343 575 315 596 q 355 560 347 572 q 365 540 363 549 q 365 500 367 531 q 342 432 364 469 q 516 445 456 479 q 576 326 576 411 q 562 266 576 301 q 533 218 547 231 q 511 189 525 218 q 451 142 493 167 q 393 124 410 118 q 386 115 386 124 q 334 92 386 106 q 257 79 282 79 q 219 90 232 79 q 210 69 210 81 q 196 17 210 57 q 174 -24 182 -24 q 174 -39 165 -31 q 165 -82 174 -68 q 151 -149 165 -118 q 147 -181 151 -165 q 136 -197 142 -197 q 127 -236 128 -200 q 114 -292 126 -272 q 85 -311 101 -311 q 78 -312 83 -311 q 71 -311 74 -312 q 56 -229 40 -304 q 71 -149 71 -171 l 78 -104 q 93 -39 93 -79 q 110 -8 93 -22 z "},"q":{"ha":524,"x_min":142,"x_max":586,"o":"m 494 450 q 442 444 482 465 q 375 401 403 422 q 242 247 275 325 l 226 207 q 408 290 299 186 q 472 378 443 322 q 494 450 501 433 m 379 178 q 228 121 260 121 q 169 153 196 121 q 142 225 142 186 q 217 367 142 264 q 278 433 232 393 q 348 486 325 472 q 401 514 371 500 q 438 529 426 529 q 533 529 492 542 q 586 440 572 503 q 581 399 586 417 q 549 322 575 381 q 513 259 529 292 q 497 219 497 226 q 438 86 490 200 q 425 39 436 78 q 386 -121 400 -57 q 386 -290 361 -254 q 378 -312 392 -307 q 342 -306 364 -317 q 303 -239 313 -286 q 313 -83 294 -192 q 371 138 332 26 q 379 178 383 160 z "},"r":{"ha":500,"x_min":139,"x_max":625,"o":"m 224 46 q 217 36 224 46 q 199 26 210 26 q 165 49 188 26 q 147 69 151 60 q 175 243 139 89 q 224 389 179 278 q 296 540 268 500 q 350 535 324 561 q 356 497 364 524 q 310 387 344 461 q 281 313 276 313 q 293 318 285 313 q 367 390 308 344 q 442 444 426 436 q 474 458 457 451 q 494 467 492 465 q 559 478 525 482 q 601 453 593 474 q 618 431 601 439 l 625 422 q 589 408 625 410 q 508 386 553 406 q 485 373 503 382 q 462 360 468 364 q 440 347 456 356 q 417 333 425 339 q 397 319 410 328 q 376 304 385 311 q 356 289 367 297 q 275 189 313 253 q 255 138 265 179 q 244 88 244 97 q 224 46 239 65 z "},"s":{"ha":474,"x_min":143,"x_max":588,"o":"m 343 111 l 318 121 q 278 151 318 133 q 208 224 201 214 l 208 231 q 187 258 199 231 q 175 309 175 285 q 197 378 175 333 q 251 454 218 422 q 347 526 285 486 q 529 578 475 610 q 588 508 571 553 q 563 421 588 421 q 556 410 556 421 q 535 381 556 399 q 465 374 474 336 q 453 388 458 388 q 444 406 444 392 l 453 421 q 481 453 461 421 q 500 496 500 486 q 498 507 500 506 q 485 508 496 508 q 350 435 376 460 q 343 423 344 425 q 336 421 342 421 q 292 369 336 432 q 263 326 282 356 q 252 299 253 317 q 251 278 251 281 q 251 272 250 275 q 252 266 251 268 q 256 260 253 264 q 263 255 260 257 q 272 247 265 253 q 285 238 279 242 q 419 111 411 143 q 435 47 443 68 q 397 13 426 26 q 310 -6 367 -1 q 224 -6 253 -11 q 175 23 199 4 q 143 56 151 42 q 152 76 143 75 q 238 71 161 78 q 307 78 268 71 q 350 96 346 86 q 343 111 354 99 z "},"t":{"ha":460,"x_min":158,"x_max":574,"o":"m 200 497 q 184 507 190 499 q 178 524 178 515 q 190 549 178 533 q 210 565 201 565 q 252 565 219 564 q 296 569 285 565 q 311 585 307 574 q 346 660 324 619 q 413 761 388 740 q 472 753 438 782 q 484 731 483 736 q 475 707 485 726 q 447 656 465 688 q 421 611 428 625 q 414 575 397 578 q 497 583 431 572 q 569 544 563 593 q 563 504 574 511 q 499 497 551 497 q 415 490 454 490 q 367 486 375 489 q 340 460 350 482 q 331 444 336 457 q 296 379 322 428 q 247 192 258 268 q 242 103 235 117 q 290 86 249 90 q 443 126 361 78 l 481 149 q 510 135 494 171 q 508 111 510 119 q 492 88 506 103 q 451 57 479 72 q 249 10 346 -10 q 203 40 226 14 q 174 88 181 65 l 167 99 q 161 170 158 106 q 171 262 164 235 q 196 338 178 289 q 218 401 214 386 l 256 482 l 200 497 z "},"u":{"ha":514,"x_min":146,"x_max":597,"o":"m 418 129 l 418 156 q 388 118 410 135 q 324 71 356 86 q 247 39 275 40 q 192 69 219 38 q 160 171 146 107 q 219 390 164 268 q 283 507 264 478 q 335 479 328 522 q 297 350 351 453 q 260 135 214 153 q 303 136 275 125 q 374 197 332 147 q 444 311 417 246 q 475 426 471 376 q 499 479 468 461 q 513 492 504 488 q 526 492 522 497 l 549 493 q 557 485 553 493 q 565 474 561 476 q 535 303 597 447 q 490 158 490 210 q 529 72 489 107 q 547 21 550 58 q 517 -5 542 1 q 471 3 492 -11 q 421 97 438 35 q 418 129 418 106 z "},"v":{"ha":460,"x_min":144,"x_max":582,"o":"m 174 483 q 207 490 189 493 q 263 321 238 479 q 276 244 268 274 q 285 211 285 214 q 317 190 301 175 q 395 287 346 219 q 460 374 444 354 q 532 453 514 447 q 564 449 554 456 q 543 381 582 435 q 526 351 535 369 q 508 315 517 332 q 458 243 499 299 q 409 180 417 188 q 390 163 401 172 q 343 114 356 133 q 290 75 310 82 q 254 85 271 68 q 216 178 239 96 q 184 313 193 260 q 158 415 175 365 q 174 483 144 465 z "},"w":{"ha":718,"x_min":172,"x_max":808,"o":"m 536 381 q 506 288 519 347 q 492 203 492 229 q 496 169 492 178 q 504 160 500 161 q 518 158 508 158 q 678 303 583 158 q 718 375 718 365 q 731 400 718 385 q 763 431 746 422 q 800 418 779 439 q 808 374 808 410 q 785 309 801 349 q 758 258 768 269 q 714 207 732 238 q 658 147 675 161 q 638 129 642 133 q 545 74 594 86 q 468 85 496 63 q 425 160 425 107 l 418 189 q 381 160 397 189 q 318 97 365 132 q 246 63 271 63 q 193 117 214 63 q 178 240 172 172 q 187 329 178 286 q 197 378 196 372 q 232 499 211 478 q 261 510 242 511 q 299 435 303 507 q 283 374 296 390 q 273 303 281 367 q 263 225 265 240 q 279 176 256 179 q 369 258 310 174 q 451 410 428 343 q 483 483 475 478 q 536 476 506 497 q 536 381 568 444 z "},"x":{"ha":476,"x_min":78,"x_max":565,"o":"m 307 374 q 374 382 307 336 l 410 418 q 458 453 418 425 q 507 485 497 481 q 544 476 524 496 q 565 436 565 456 q 557 407 565 417 q 521 382 549 397 q 388 278 440 324 l 351 249 l 374 211 q 410 160 396 167 q 465 111 421 144 q 512 78 508 78 q 543 64 515 78 q 560 26 560 47 q 543 4 560 4 q 514 13 521 4 q 400 74 471 13 q 329 153 329 136 q 328 159 329 158 q 322 160 328 160 q 314 175 314 167 q 300 189 314 189 q 207 104 263 160 q 136 49 151 49 q 99 66 121 49 q 78 100 78 83 q 174 197 122 153 l 263 285 l 247 338 q 211 425 222 392 q 194 454 194 447 q 204 478 193 461 q 222 492 217 490 q 247 485 228 494 q 283 438 258 485 q 307 374 307 392 z "},"y":{"ha":474,"x_min":-69,"x_max":569,"o":"m 507 511 q 524 521 519 521 q 544 513 529 521 q 567 461 569 485 q 533 379 564 438 q 489 283 508 306 q 406 104 443 178 q 353 -12 369 31 q 228 -197 264 -154 q 106 -278 151 -265 q 0 -271 60 -292 q -67 -215 -60 -250 q -55 -189 -69 -201 q -31 -189 -40 -176 q 189 -115 81 -264 q 290 58 260 1 q 238 107 263 67 q 217 165 213 147 l 217 181 q 194 253 201 181 q 190 365 186 326 q 199 494 193 403 q 214 536 197 525 q 272 485 264 557 q 272 379 276 447 q 321 117 258 163 q 360 205 349 182 q 374 235 372 228 q 381 253 375 243 q 408 308 386 264 q 453 427 444 413 q 466 452 461 442 q 474 468 471 463 q 481 481 476 474 q 488 493 485 489 q 494 501 490 497 q 507 511 500 508 z "},"z":{"ha":438,"x_min":15,"x_max":571,"o":"m 344 121 q 478 125 444 125 q 537 120 524 125 q 560 100 550 115 q 567 78 571 85 q 546 75 564 78 q 465 69 510 71 q 268 47 421 67 q 92 29 115 28 q 47 53 69 31 q 85 139 15 67 q 178 237 138 204 q 333 347 219 269 q 394 394 372 379 q 422 414 415 408 q 319 418 354 421 q 247 422 261 418 l 226 422 q 183 437 213 422 q 151 464 153 451 q 174 479 167 471 q 203 489 197 494 q 289 492 244 489 q 438 483 404 490 q 501 450 472 475 q 500 369 539 413 q 481 351 485 351 q 393 294 428 315 q 331 253 335 260 q 288 224 303 239 q 238 179 269 201 l 165 110 q 344 121 275 124 z "},"{":{"ha":458,"x_min":193,"x_max":747,"o":"m 232 -165 q 196 -81 193 -149 l 196 -42 q 207 -6 204 -35 q 272 176 232 92 q 310 279 310 246 q 240 338 310 324 q 213 378 199 338 q 235 404 218 394 q 271 408 253 414 q 344 454 303 408 q 446 758 431 547 q 472 883 451 838 q 544 978 493 928 q 580 1013 563 1004 q 608 1026 597 1021 q 621 1033 618 1032 q 714 1038 683 1056 q 735 1010 724 1033 q 742 982 747 986 q 724 978 739 982 q 692 975 708 975 q 592 921 639 963 q 552 863 561 881 q 542 829 543 846 q 525 775 528 793 q 512 671 519 749 q 494 566 504 593 q 479 529 483 539 q 383 375 442 426 q 358 356 360 361 q 368 335 356 350 q 375 317 368 333 q 382 289 382 300 q 383 234 392 265 q 342 128 375 203 q 315 51 315 75 q 289 -25 306 38 q 279 -76 283 -58 q 275 -97 275 -94 q 338 -114 275 -124 q 369 -108 361 -107 q 388 -122 378 -110 q 360 -168 419 -150 q 294 -186 329 -185 q 244 -176 258 -187 q 232 -165 232 -157 z "},"|":{"ha":458,"x_min":139,"x_max":614,"o":"m 315 451 l 329 504 q 442 782 353 549 q 532 1035 532 1015 q 554 1054 532 1054 q 576 1061 561 1061 l 599 1039 q 614 1001 614 1025 q 613 970 614 978 q 610 956 611 963 q 603 938 608 950 q 593 915 597 925 q 576 880 589 906 q 556 837 564 854 q 522 757 549 819 q 472 641 494 694 q 449 585 449 588 q 447 576 449 582 q 440 559 444 569 q 429 533 436 549 q 374 398 374 411 q 367 378 374 385 q 360 367 360 378 l 360 363 q 338 289 360 349 q 222 -134 222 -99 q 220 -179 222 -169 q 208 -194 218 -189 q 153 -161 168 -206 q 156 -39 139 -117 q 171 19 171 1 q 228 206 176 46 q 286 378 279 365 q 300 408 300 378 q 315 451 300 439 z "},"}":{"ha":458,"x_min":108,"x_max":588,"o":"m 294 64 l 297 163 q 294 240 297 183 q 293 318 292 296 q 306 363 294 340 q 318 408 322 378 q 309 459 307 436 q 324 490 311 482 q 350 519 338 507 q 370 541 363 532 q 382 555 378 550 q 392 568 386 560 q 413 604 403 585 q 511 815 489 725 l 511 829 q 492 901 522 857 q 464 934 481 924 q 419 952 447 944 q 388 974 390 960 q 399 1003 385 989 q 433 1017 408 1018 q 469 1006 458 1017 q 488 994 479 994 q 524 966 496 994 q 564 918 553 938 q 581 860 574 910 q 585 819 588 835 q 556 715 583 803 q 511 607 528 626 q 496 591 496 597 q 470 542 496 585 q 426 482 444 500 l 411 456 l 401 450 q 406 388 385 439 q 413 372 408 381 q 421 358 418 364 q 414 339 421 339 q 380 301 385 324 q 376 176 375 278 q 367 21 382 57 q 335 -76 344 -76 l 331 -82 q 290 -131 331 -110 q 204 -153 250 -151 q 133 -146 158 -156 q 108 -121 108 -136 l 117 -106 q 126 -106 126 -112 q 178 -87 146 -100 q 254 -59 236 -78 q 283 8 272 -40 q 294 64 294 57 z "},"~":{"ha":619,"x_min":142,"x_max":674,"o":"m 496 279 q 388 318 444 279 q 358 340 386 319 q 306 369 329 361 q 251 349 283 376 q 204 319 219 321 q 191 300 201 310 q 176 297 181 290 q 151 311 161 301 q 143 333 142 321 q 180 377 144 346 q 278 432 215 408 q 393 393 344 442 q 504 349 463 331 q 540 358 515 350 q 569 369 564 365 l 606 379 q 642 397 615 396 q 667 372 674 410 q 644 332 667 358 l 540 288 q 496 279 515 279 z "},"":{"ha":336,"x_min":0,"x_max":0,"o":""},"":{"ha":292,"x_min":1,"x_max":483,"o":"m 221 49 l 203 0 q 131 -157 178 -42 q 81 -293 83 -272 q 57 -310 78 -314 q 35 -315 50 -315 q 15 -294 28 -308 q 1 -256 1 -279 q 5 -222 1 -233 q 11 -203 8 -211 q 22 -181 14 -196 q 33 -158 29 -167 q 61 -108 39 -146 q 101 -28 101 -31 q 119 15 101 -26 q 163 104 163 88 q 174 126 169 122 q 181 138 181 126 l 181 142 q 207 215 181 161 q 258 395 254 350 q 263 446 261 440 q 276 457 265 451 q 317 442 303 461 q 321 297 346 406 q 301 239 301 258 q 254 122 285 179 q 242 113 249 122 q 236 82 236 103 q 221 49 236 61 m 406 571 q 369 554 381 556 q 332 564 357 553 q 295 622 290 590 q 351 679 300 654 q 433 672 399 699 q 406 571 483 624 z "},"":{"ha":625,"x_min":249,"x_max":786,"o":"m 457 458 l 478 504 q 547 635 493 526 l 532 644 q 461 576 508 644 q 375 411 404 518 q 374 372 369 396 q 381 344 378 347 q 394 340 385 340 l 419 386 q 432 396 425 386 q 440 415 439 406 q 457 458 440 449 m 488 378 q 481 369 482 378 q 476 347 479 361 q 579 374 551 361 q 654 393 621 400 q 671 367 676 385 q 620 326 665 350 q 575 288 575 303 l 553 282 q 510 273 546 282 q 462 257 474 264 q 431 250 450 250 q 386 153 418 222 q 321 -17 325 17 q 313 -62 317 -51 q 297 -75 310 -72 q 254 -39 260 -83 q 274 82 249 6 q 297 143 294 111 q 356 267 304 164 q 333 281 347 269 q 335 551 254 353 q 385 635 350 583 q 433 694 421 688 q 485 717 456 701 q 586 713 533 740 q 693 944 690 921 q 721 963 701 967 q 743 965 729 971 l 763 946 q 754 844 786 906 q 731 806 749 835 q 699 749 714 776 q 646 664 683 721 q 658 622 664 639 q 651 613 658 619 q 625 588 643 606 q 593 576 607 569 q 548 492 593 569 q 501 402 503 414 q 488 378 500 390 z "},"":{"ha":625,"x_min":33,"x_max":769,"o":"m 379 475 l 507 474 q 556 470 543 474 q 583 453 568 467 q 599 413 606 432 q 561 400 592 394 l 474 393 q 351 396 456 390 q 331 327 335 346 q 313 224 326 308 q 297 104 300 140 l 300 69 q 371 44 351 53 q 436 22 419 24 q 513 -1 472 -1 q 580 7 553 -1 q 610 26 607 15 q 620 33 615 26 q 625 46 625 39 l 658 53 q 692 18 701 53 q 610 -67 681 -26 q 511 -83 568 -87 q 411 -49 454 -78 q 371 -32 394 -32 q 335 -24 364 -28 q 300 -18 307 -19 q 210 -22 254 -8 q 99 -22 165 -36 q 33 22 33 -8 q 100 74 33 68 q 178 85 167 81 q 199 104 190 89 q 230 244 219 172 q 258 399 240 317 l 199 400 q 150 407 171 400 q 110 426 121 407 q 106 453 94 447 q 171 468 119 463 q 279 475 208 475 q 340 638 307 565 q 560 910 467 894 q 696 879 639 933 q 724 858 699 894 q 751 803 749 822 l 765 767 q 769 740 769 764 q 735 697 767 722 q 684 693 706 681 q 666 739 663 706 q 656 803 669 772 q 622 839 642 833 q 532 794 600 847 q 500 756 519 772 q 458 679 482 725 q 379 475 433 633 z "},"":{"ha":625,"x_min":172,"x_max":681,"o":"m 506 546 l 494 546 q 483 543 490 546 q 472 539 475 540 q 408 502 425 524 q 364 432 390 481 q 322 342 331 383 q 338 286 314 301 q 435 263 360 256 q 582 401 544 318 q 597 464 596 431 q 524 544 603 535 q 506 546 514 546 m 254 183 q 258 203 254 199 q 264 209 263 207 q 270 213 265 211 q 281 223 275 215 q 285 235 288 231 q 279 238 282 239 q 257 269 263 267 q 260 385 249 350 q 264 393 263 385 q 276 429 268 421 q 281 442 275 433 l 294 456 q 299 465 299 460 q 317 496 304 476 q 331 536 329 528 q 326 561 332 544 q 278 613 299 583 q 263 658 257 643 l 253 674 q 254 715 240 692 q 268 719 263 725 q 282 708 275 719 q 308 672 294 686 q 322 656 314 672 q 376 592 339 624 q 382 585 382 586 q 396 591 385 582 q 419 607 407 600 q 482 619 431 614 l 521 617 q 635 756 621 749 q 653 761 649 764 q 664 749 658 758 q 677 731 674 746 q 678 715 681 717 q 674 710 675 713 q 670 706 672 708 q 667 699 668 703 q 663 692 665 696 q 657 681 660 688 q 642 653 654 675 q 626 625 629 632 q 608 610 611 621 q 603 597 604 600 q 624 574 608 586 q 657 519 651 563 q 674 483 668 511 q 675 451 679 456 l 669 436 q 649 377 674 426 q 592 290 624 328 l 558 256 l 576 236 q 614 192 586 218 q 653 165 642 165 q 665 134 660 164 q 665 94 671 104 q 613 117 650 74 q 532 217 564 153 q 519 224 536 232 q 507 217 514 221 q 363 182 410 174 q 342 188 347 189 q 324 172 338 186 q 303 139 322 164 q 271 103 283 114 q 253 72 263 81 q 242 49 239 57 q 218 35 235 42 q 196 36 201 28 q 178 51 183 26 q 181 83 172 75 q 189 89 185 89 q 189 118 179 99 q 213 150 199 138 q 217 159 213 153 q 222 174 221 165 q 254 183 236 183 z "},"":{"ha":625,"x_min":125,"x_max":915,"o":"m 592 161 l 428 167 q 392 48 399 69 q 373 -22 385 26 q 354 -85 361 -71 q 337 -96 347 -99 q 290 -68 326 -93 q 278 -40 275 -53 q 282 -19 281 -26 q 297 36 286 0 q 326 165 300 101 q 243 161 285 161 q 181 168 201 161 q 140 188 151 168 q 136 214 125 208 q 201 229 150 224 q 347 238 243 238 q 382 336 356 271 l 389 356 q 288 358 308 358 q 247 365 268 358 q 207 385 218 365 q 203 411 192 406 q 381 435 231 429 q 314 599 325 518 q 301 824 293 669 q 325 925 301 882 q 329 935 329 933 q 369 914 351 963 q 381 826 382 878 q 450 483 389 522 q 486 489 471 478 q 644 653 532 522 q 797 830 756 785 q 857 886 838 875 q 886 904 867 901 q 899 884 894 901 q 910 856 904 867 q 914 836 915 846 q 883 797 913 826 q 786 701 853 771 q 681 583 719 632 q 544 432 596 486 l 604 432 q 653 428 640 432 q 681 411 665 425 q 696 372 703 390 q 658 358 689 353 l 571 351 q 479 353 564 350 q 460 274 476 343 l 447 236 q 528 235 483 235 q 586 231 574 235 q 614 214 599 228 q 629 174 636 193 q 592 161 622 156 z "},"":{"ha":458,"x_min":139,"x_max":614,"o":"m 338 289 q 222 -134 222 -99 q 220 -179 222 -169 q 208 -194 218 -189 q 153 -161 168 -206 q 156 -39 139 -117 q 171 19 171 1 q 211 155 175 42 q 271 336 247 268 q 310 338 272 357 q 340 296 353 314 l 338 289 m 532 1032 q 554 1054 532 1054 q 576 1061 561 1061 l 599 1039 q 614 1001 614 1025 q 613 970 614 978 q 610 956 611 963 q 603 938 608 950 q 593 915 597 925 q 576 880 589 906 q 556 837 564 854 q 522 757 549 819 q 472 641 494 694 q 449 585 449 588 q 447 576 449 582 q 440 558 444 569 q 413 494 432 539 q 371 487 406 469 q 339 526 336 504 q 361 578 340 531 q 457 822 382 625 q 532 1032 532 1018 z "},"":{"ha":535,"x_min":179,"x_max":685,"o":"m 453 421 q 415 467 432 444 q 354 404 403 457 q 329 347 329 372 l 344 343 q 424 331 375 317 q 478 376 472 346 q 453 421 467 379 m 433 602 q 434 594 433 602 q 435 574 435 586 q 449 533 435 561 q 474 504 463 506 q 518 446 488 474 q 555 324 568 365 q 460 263 542 282 q 351 268 401 247 q 368 246 361 251 q 413 194 386 215 q 449 69 463 110 q 354 13 436 28 q 258 13 300 0 q 197 59 215 26 q 194 103 179 92 q 217 97 203 104 q 239 86 232 89 q 319 83 271 67 q 372 125 367 99 q 362 144 372 126 q 347 174 351 161 q 278 267 304 217 q 253 353 253 317 q 290 454 236 403 q 372 540 317 493 q 358 600 358 572 q 393 713 343 644 q 556 840 472 801 q 633 836 621 840 q 663 809 646 832 q 685 764 681 786 q 677 722 685 754 q 665 679 669 690 q 656 661 660 668 q 653 651 653 654 q 624 636 649 625 q 592 667 600 647 q 588 729 581 711 q 596 757 611 757 q 588 756 592 757 q 526 722 571 756 q 444 639 472 683 q 433 602 432 618 z "},"":{"ha":490,"x_min":340,"x_max":632,"o":"m 379 733 q 419 747 401 756 q 443 715 436 738 q 451 681 454 694 q 429 643 449 668 q 347 649 382 579 q 343 669 340 663 q 371 725 356 713 l 379 733 m 557 733 q 597 747 579 756 q 621 715 614 738 q 629 681 632 694 q 607 643 626 668 q 525 649 560 579 q 521 669 518 663 q 549 725 533 713 l 557 733 z "},"":{"ha":689,"x_min":215,"x_max":811,"o":"m 576 322 l 554 318 q 501 306 529 318 q 424 308 472 294 q 394 335 415 308 q 411 497 358 390 q 476 603 419 532 q 544 625 493 613 q 609 598 579 624 q 632 553 639 572 q 623 541 632 551 q 610 524 614 531 q 599 517 606 518 q 585 525 592 517 q 578 544 578 533 q 538 568 558 572 q 504 547 518 564 q 485 513 490 531 q 463 469 468 494 q 456 428 458 444 q 451 403 453 413 q 451 380 449 394 q 457 363 453 365 q 600 410 514 343 q 619 406 613 419 q 629 392 625 393 q 612 349 628 368 q 576 322 596 331 m 708 568 q 656 657 708 583 q 481 692 564 726 q 308 500 346 651 q 288 416 289 436 q 304 364 286 396 q 308 329 301 349 q 315 301 314 310 q 346 256 315 293 q 400 213 376 218 q 469 201 422 193 q 574 242 517 210 q 653 295 610 258 q 694 350 696 332 q 694 365 692 357 q 703 375 697 374 q 728 452 722 392 q 722 539 735 513 q 708 568 708 565 m 804 479 l 804 471 q 805 403 811 460 q 793 346 799 347 q 789 340 786 342 q 785 329 792 339 q 749 300 767 304 q 753 296 746 297 q 733 267 757 293 q 672 210 710 240 q 607 171 635 181 l 596 160 q 552 135 586 146 q 492 128 518 125 q 254 268 304 124 q 233 324 238 296 q 227 357 229 351 q 224 368 225 363 q 222 378 224 374 q 222 410 221 383 q 225 442 222 438 q 226 457 229 450 q 251 569 215 481 q 303 667 288 658 q 306 671 306 667 q 442 761 306 690 q 742 663 613 846 q 759 627 746 649 q 772 600 772 606 q 799 534 790 574 q 803 489 808 494 q 804 479 804 486 z "},"":{"ha":486,"x_min":231,"x_max":718,"o":"m 510 821 q 442 756 489 821 q 365 628 396 692 q 326 532 335 565 q 352 542 329 526 q 389 569 375 557 q 524 732 469 653 l 547 772 q 510 821 525 821 m 253 492 q 249 511 253 506 l 250 511 q 307 693 231 531 q 338 742 315 701 q 349 754 338 749 l 349 763 q 386 817 349 774 q 449 880 424 861 q 501 901 474 899 q 550 886 529 904 l 600 832 l 643 789 l 625 728 q 615 660 615 697 q 643 564 615 622 q 686 538 654 543 q 718 508 718 529 q 690 476 718 483 q 618 499 654 471 q 557 579 582 528 q 540 617 546 597 q 526 600 536 611 q 515 586 517 589 q 318 450 393 450 q 274 463 290 450 l 271 464 l 263 481 q 253 492 253 490 z "},"":{"ha":897,"x_min":171,"x_max":863,"o":"m 853 593 q 837 563 849 574 q 800 533 825 553 q 660 415 750 494 q 567 322 579 342 q 558 285 556 301 q 627 197 574 249 q 768 96 681 144 q 857 25 844 58 q 842 3 863 8 q 733 22 788 -3 q 692 44 704 39 q 668 56 679 50 q 651 67 657 63 q 639 76 646 71 q 614 100 625 86 q 492 229 539 143 l 458 288 l 449 329 q 492 358 460 332 q 644 500 521 394 q 747 590 692 535 q 783 621 775 621 q 805 618 794 625 q 826 608 815 611 q 853 593 851 603 m 575 593 q 559 563 571 574 q 522 533 547 553 q 382 415 472 494 q 290 322 301 342 q 281 285 278 301 q 349 197 296 249 q 490 96 403 144 q 579 25 567 58 q 564 3 585 8 q 456 22 510 -3 q 414 44 426 39 q 390 56 401 50 q 374 67 379 63 q 361 76 368 71 q 336 100 347 86 q 214 229 261 143 l 181 288 l 171 329 q 214 358 182 332 q 367 500 243 394 q 469 590 414 535 q 506 621 497 621 q 527 618 517 625 q 549 608 538 611 q 575 593 574 603 z "},"":{"ha":646,"x_min":167,"x_max":697,"o":"m 593 432 q 642 428 629 432 q 669 411 654 425 q 681 365 697 382 q 685 275 685 319 q 681 218 685 231 q 664 190 678 206 q 624 175 643 168 q 611 213 606 182 l 600 354 q 271 344 460 344 q 222 351 243 344 q 182 371 193 351 q 178 397 167 392 q 243 413 192 407 q 593 432 331 432 z "},"":{"ha":453,"x_min":143,"x_max":501,"o":"m 219 315 q 373 335 307 335 q 451 331 439 335 q 479 314 464 328 q 494 274 501 293 q 457 261 488 256 q 251 247 282 247 q 199 254 219 247 q 158 274 169 254 q 154 300 143 294 q 219 315 168 310 z "},"":{"ha":689,"x_min":215,"x_max":811,"o":"m 531 586 l 513 569 q 506 549 513 561 q 494 533 500 536 q 476 438 465 440 q 516 458 497 443 q 542 488 535 474 q 569 518 550 492 q 575 551 575 528 q 571 569 581 563 q 531 586 567 575 m 460 621 q 504 632 460 636 q 556 622 549 628 q 591 613 574 621 q 608 600 608 604 q 635 550 632 579 q 615 494 635 521 q 546 419 593 453 l 529 401 q 551 372 532 393 q 579 347 569 351 q 597 347 592 353 q 599 319 603 342 q 585 299 589 300 q 561 311 581 297 q 528 327 540 315 q 498 353 515 339 q 473 374 481 367 q 446 382 465 381 l 435 353 q 426 307 435 336 q 406 291 421 292 q 381 303 392 290 q 374 338 369 315 q 399 410 379 360 q 404 440 399 440 q 453 553 414 501 q 454 574 453 568 q 448 594 457 583 q 460 621 439 606 m 708 568 q 656 657 708 583 q 481 692 564 726 q 308 500 346 651 q 288 416 289 436 q 304 364 286 396 q 308 329 301 349 q 315 301 314 310 q 346 256 315 293 q 400 213 376 218 q 469 201 422 193 q 574 242 517 210 q 653 295 610 258 q 694 350 696 332 q 694 365 692 357 q 703 375 697 374 q 728 452 722 392 q 722 539 735 513 q 708 568 708 565 m 804 479 l 804 471 q 805 403 811 460 q 793 346 799 347 q 789 340 786 342 q 785 329 792 339 q 749 300 767 304 q 753 296 746 297 q 733 267 757 293 q 672 210 710 240 q 607 171 635 181 l 596 160 q 552 135 586 146 q 492 128 518 125 q 254 268 304 124 q 233 324 238 296 q 227 357 229 351 q 224 368 225 363 q 222 378 224 374 q 222 410 221 383 q 225 442 222 438 q 226 457 229 450 q 251 569 215 481 q 303 667 288 658 q 306 671 306 667 q 442 761 306 690 q 742 663 613 846 q 759 627 746 649 q 772 600 772 606 q 799 534 790 574 q 803 489 808 494 q 804 479 804 486 z "},"":{"ha":490,"x_min":321,"x_max":657,"o":"m 532 646 l 418 640 q 374 646 390 640 q 332 665 343 646 q 331 691 321 683 q 415 709 342 699 q 552 719 489 719 q 638 703 615 719 q 651 665 657 682 q 615 650 644 647 q 532 646 574 646 z "},"":{"ha":393,"x_min":288,"x_max":653,"o":"m 503 932 q 408 889 435 932 q 382 789 382 846 q 447 664 382 664 q 521 712 478 664 q 563 819 564 760 q 548 905 561 878 q 503 932 535 932 m 465 1006 q 599 962 546 1006 q 653 836 653 918 q 640 756 653 790 q 616 706 628 721 q 571 653 604 692 q 463 592 519 592 q 353 626 388 592 q 329 653 335 644 q 315 678 324 663 q 300 714 306 694 q 288 785 288 767 q 300 842 288 803 q 365 953 321 914 q 387 971 372 960 q 406 986 401 982 q 465 1006 449 1006 z "},"":{"ha":619,"x_min":143,"x_max":668,"o":"m 569 113 q 618 109 606 113 q 646 92 631 106 q 661 52 668 71 q 624 39 654 33 q 247 25 449 25 q 199 32 219 25 q 158 51 169 32 q 154 78 143 72 q 219 93 168 88 q 569 113 307 113 m 442 492 l 444 429 q 575 432 544 432 q 618 428 606 432 q 646 411 631 425 q 661 372 668 390 q 624 358 654 353 l 536 351 l 447 349 q 449 275 449 311 q 442 222 449 239 q 422 190 442 199 q 394 188 401 179 q 381 239 386 197 q 367 346 371 274 q 268 344 317 344 q 199 351 219 344 q 158 371 169 351 q 154 397 143 392 q 219 413 168 407 q 363 426 264 422 q 361 506 361 464 q 365 557 361 547 q 382 579 368 567 q 422 592 403 596 q 435 563 440 588 l 442 492 z "},"":{"ha":444,"x_min":253,"x_max":708,"o":"m 274 554 q 293 596 293 588 l 313 610 l 310 610 l 339 639 l 338 639 q 404 710 397 701 q 465 781 463 768 q 482 796 474 792 l 508 819 q 540 869 518 842 l 565 919 q 565 932 568 929 q 511 946 553 946 q 431 919 469 946 q 403 910 415 917 q 372 907 390 903 l 351 932 l 339 956 l 376 978 q 524 1017 474 1038 l 554 1011 q 592 989 571 1010 q 636 906 636 944 q 603 821 636 868 q 540 749 594 808 q 475 680 486 689 q 436 644 464 671 q 365 567 357 567 l 369 564 q 474 587 414 579 q 547 590 533 594 q 639 578 576 599 q 654 566 650 574 q 663 554 658 558 q 607 532 708 513 l 526 524 l 518 524 q 453 515 489 528 q 360 488 417 501 q 293 479 304 475 q 253 515 265 492 q 260 539 253 524 q 274 554 268 554 z "},"":{"ha":444,"x_min":294,"x_max":690,"o":"m 635 607 q 551 475 635 533 q 408 431 489 435 q 329 446 364 431 q 296 483 294 461 q 306 508 297 504 q 343 507 314 511 q 453 515 393 494 q 540 565 514 535 q 567 625 567 594 q 485 700 567 675 q 422 715 447 713 q 381 725 404 710 q 357 760 379 726 q 373 783 356 769 q 454 835 390 796 q 601 935 563 900 l 600 935 q 614 967 618 960 q 599 978 610 975 q 525 975 532 983 q 485 972 517 978 q 453 961 454 965 q 426 949 451 957 q 397 942 401 940 q 377 964 389 943 q 365 997 365 985 q 432 1042 376 1015 q 572 1051 485 1056 l 574 1051 q 686 960 672 1040 q 683 922 690 938 q 628 858 665 886 l 543 801 l 504 771 l 528 753 q 621 668 579 728 q 635 607 635 631 z "},"":{"ha":490,"x_min":463,"x_max":663,"o":"m 600 813 q 657 774 624 826 q 638 735 663 760 q 576 680 613 710 q 528 635 539 650 q 506 608 514 611 q 482 617 499 606 q 467 644 472 625 q 465 673 463 663 q 524 744 467 683 q 600 813 581 806 z "},"":{"ha":514,"x_min":50,"x_max":597,"o":"m 418 129 l 418 156 q 388 118 410 135 q 324 71 356 86 q 253 40 279 43 q 200 60 226 36 l 185 4 q 96 -240 108 -225 q 65 -216 81 -235 q 50 -183 50 -197 q 72 -99 50 -168 q 162 216 146 132 q 219 390 178 300 q 283 507 264 478 q 335 479 328 522 q 297 350 351 453 q 260 135 214 153 q 303 136 275 125 q 374 197 332 147 q 444 311 417 246 q 475 426 471 376 q 499 479 468 461 q 513 492 504 488 q 526 492 522 497 l 549 493 q 557 485 553 493 q 565 474 561 476 q 535 303 597 447 q 490 158 490 210 q 529 72 489 107 q 547 21 550 58 q 517 -5 542 1 q 471 3 492 -11 q 421 97 438 35 q 418 129 418 106 z "},"":{"ha":589,"x_min":214,"x_max":813,"o":"m 553 367 q 554 375 553 369 q 557 390 556 381 q 561 405 558 399 q 569 422 564 411 q 583 458 576 439 l 599 481 q 608 511 592 481 q 643 610 624 542 q 696 715 683 694 q 713 781 713 768 q 640 768 647 793 q 597 690 635 754 q 571 629 590 672 q 547 572 551 586 q 508 485 524 525 q 476 406 485 438 q 438 311 474 400 q 382 192 401 222 q 376 165 379 183 q 371 143 372 147 q 299 -56 369 139 q 282 -71 289 -69 q 251 -65 275 -72 q 240 -3 217 -35 q 256 42 240 -1 q 326 219 289 160 q 335 250 329 228 q 376 338 349 300 l 397 404 q 363 406 390 406 q 304 411 335 406 q 231 568 214 444 q 238 593 232 572 q 247 620 244 614 q 256 644 249 626 q 267 672 263 663 q 281 694 272 681 q 319 736 296 719 q 413 796 378 778 q 521 843 449 814 q 633 853 565 843 q 770 829 728 846 q 807 783 813 813 q 797 747 801 754 q 773 701 792 739 q 743 644 754 663 q 694 526 721 600 q 657 438 669 479 q 639 406 647 421 q 596 297 633 369 q 549 167 554 199 q 528 119 544 158 q 501 61 513 81 l 485 3 l 458 3 q 449 7 456 4 q 425 22 432 14 q 428 76 421 38 q 454 122 451 121 q 462 146 460 126 q 485 197 464 165 l 496 233 q 512 272 496 242 q 533 325 528 303 q 553 367 549 367 z "},"":{"ha":260,"x_min":200,"x_max":329,"o":"m 256 481 q 318 454 288 503 q 325 410 329 426 q 294 363 321 394 q 219 344 257 313 q 201 379 203 358 q 203 401 200 400 q 228 426 214 403 q 242 463 243 449 q 256 481 242 478 z "},"":{"ha":490,"x_min":58,"x_max":310,"o":"m 166 -190 q 173 -191 166 -190 q 188 -193 179 -193 q 207 -192 197 -193 q 236 -171 225 -192 q 209 -105 247 -150 q 163 -51 171 -60 q 149 -27 151 -36 q 150 -3 146 -18 q 256 74 160 28 l 301 42 q 224 -24 224 4 q 250 -58 232 -36 q 297 -131 292 -107 q 289 -208 310 -178 q 85 -229 238 -279 q 61 -205 64 -222 q 72 -176 58 -187 q 97 -167 85 -164 q 123 -176 108 -171 q 145 -183 138 -181 q 166 -190 153 -186 z "},"":{"ha":444,"x_min":307,"x_max":682,"o":"m 540 1008 q 646 1065 625 1068 q 679 1032 672 1051 q 663 963 682 1017 q 615 811 643 910 q 583 707 586 713 q 581 694 581 701 q 561 624 569 664 q 526 500 538 567 q 499 431 504 436 q 453 449 483 415 q 453 510 442 463 l 478 617 q 550 856 489 622 l 571 932 q 494 874 543 914 q 452 840 479 864 q 404 804 425 817 q 366 774 375 778 q 343 779 357 771 q 322 839 307 811 q 366 869 332 842 q 404 899 400 897 q 435 922 408 900 l 433 922 q 471 953 444 933 q 501 977 497 974 q 511 983 506 981 l 540 1008 z "},"":{"ha":393,"x_min":254,"x_max":614,"o":"m 518 710 q 524 760 524 726 q 518 799 524 793 l 519 799 q 449 775 492 817 q 350 593 407 733 q 339 543 339 557 q 361 506 339 506 q 443 568 393 506 q 518 710 493 631 m 261 592 q 264 596 264 594 l 272 599 q 268 610 269 606 q 307 719 272 656 q 482 883 383 856 q 521 891 508 893 q 550 871 533 889 q 606 786 600 843 q 547 581 614 690 q 499 519 522 540 q 438 471 476 499 l 439 471 q 347 435 397 439 q 290 468 324 435 q 263 557 254 510 l 263 582 l 265 581 q 264 593 258 588 l 261 592 z "},"":{"ha":983,"x_min":249,"x_max":940,"o":"m 536 28 q 552 58 540 47 q 589 86 564 68 q 729 206 639 126 q 822 299 810 279 q 831 336 833 319 q 762 424 815 372 q 621 525 708 476 q 532 596 544 563 q 547 618 526 613 q 656 599 601 624 q 697 576 685 582 q 721 565 710 571 q 738 554 732 558 q 750 544 743 550 q 775 521 764 535 q 897 392 850 478 l 931 333 l 940 292 q 897 263 929 289 q 744 121 868 226 q 642 31 697 86 q 606 0 614 0 q 584 3 594 -4 q 563 13 574 10 q 536 28 538 18 m 258 28 q 274 58 263 47 q 311 86 286 68 q 451 206 361 126 q 544 299 532 279 q 553 336 556 319 q 484 424 538 372 q 343 525 431 476 q 254 596 267 563 q 269 618 249 613 q 378 599 324 624 q 419 576 407 582 q 443 565 432 571 q 460 554 454 558 q 472 544 465 550 q 497 521 486 535 q 619 392 572 478 l 653 333 l 663 292 q 619 263 651 289 q 467 121 590 226 q 364 31 419 86 q 328 0 336 0 q 306 3 317 -4 q 285 13 296 10 q 258 28 260 18 z "},"":{"ha":1111,"x_min":251,"x_max":1199,"o":"m 1039 289 l 1044 289 q 1046 310 1044 292 l 1124 492 q 1151 538 1142 538 q 1179 518 1175 538 l 1179 519 q 1172 442 1199 494 q 1018 26 1043 143 q 1021 -14 1014 7 q 993 -67 1024 -53 q 956 -50 965 -78 l 956 -51 q 972 103 940 -28 q 982 149 981 136 l 1000 200 q 969 189 990 197 q 904 181 933 181 q 833 221 854 181 q 821 256 825 232 q 825 290 817 279 q 856 367 854 364 q 857 376 857 371 q 917 475 867 399 q 982 571 968 557 q 1025 572 1013 592 q 1032 526 1036 535 q 992 468 1018 494 l 993 468 q 903 310 933 375 q 889 251 885 256 q 958 263 911 246 q 1022 282 1007 274 q 1039 289 1039 282 m 485 869 q 590 926 569 929 q 624 893 617 913 q 607 824 626 878 q 559 672 588 771 q 528 568 531 574 q 525 556 525 563 q 506 485 514 525 q 471 361 482 428 q 443 292 449 297 q 397 310 428 276 q 397 371 386 324 l 422 478 q 494 717 433 483 l 515 793 q 439 735 488 775 q 397 701 424 725 q 349 665 369 678 q 310 635 319 639 q 288 640 301 632 q 267 700 251 672 q 310 731 276 703 q 349 760 344 758 q 379 783 353 761 l 378 783 q 415 815 389 794 q 446 838 442 835 q 456 844 450 842 l 485 869 m 700 403 q 653 346 700 386 q 404 25 432 81 q 371 -19 386 -18 q 335 29 333 -14 q 382 135 338 72 q 417 174 413 160 q 534 311 428 192 q 643 436 640 431 q 656 442 649 435 q 669 467 663 449 q 699 490 675 485 q 705 500 700 493 q 710 510 710 507 q 717 520 711 514 q 724 531 722 526 q 922 727 761 563 q 1090 908 1082 892 q 1115 915 1099 924 q 1138 915 1125 921 q 1150 886 1139 907 q 1128 814 1161 863 q 1114 801 1124 810 q 1097 785 1104 792 q 1071 760 1090 778 q 1038 730 1051 743 q 981 674 1025 717 q 897 593 936 631 q 857 553 858 556 q 829 525 842 550 q 726 420 728 424 q 706 410 724 417 l 700 403 z "},"":{"ha":1111,"x_min":251,"x_max":1144,"o":"m 710 68 q 729 110 729 101 l 749 124 l 746 124 l 775 153 l 774 153 q 840 224 833 215 q 901 294 899 282 q 918 310 910 306 l 944 333 q 976 383 954 356 l 1001 433 q 1001 446 1004 443 q 947 460 989 460 q 867 433 906 460 q 839 424 851 431 q 808 421 826 417 l 788 446 l 775 469 l 813 492 q 960 531 910 551 l 990 525 q 1028 503 1007 524 q 1072 420 1072 458 q 1039 335 1072 382 q 976 263 1031 322 q 911 194 922 203 q 872 158 900 185 q 801 81 793 81 l 806 78 q 910 101 850 93 q 983 104 969 108 q 1075 92 1013 113 q 1090 80 1086 88 q 1099 68 1094 72 q 1043 46 1144 26 l 963 38 l 954 38 q 889 28 925 42 q 797 2 853 15 q 729 -7 740 -11 q 689 29 701 6 q 697 53 689 38 q 710 68 704 68 m 485 869 q 590 926 569 929 q 624 893 617 913 q 607 824 626 878 q 559 672 588 771 q 528 568 531 574 q 525 556 525 563 q 506 485 514 525 q 471 361 482 428 q 443 292 449 297 q 397 310 428 276 q 397 371 386 324 l 422 478 q 494 717 433 483 l 515 793 q 439 735 488 775 q 397 701 424 725 q 349 665 369 678 q 310 635 319 639 q 288 640 301 632 q 267 700 251 672 q 310 731 276 703 q 349 760 344 758 q 379 783 353 761 l 378 783 q 415 815 389 794 q 446 838 442 835 q 456 844 450 842 l 485 869 m 657 403 q 610 346 657 386 q 361 25 389 81 q 328 -19 343 -18 q 292 29 290 -14 q 339 135 294 72 q 374 174 369 160 q 491 311 385 192 q 600 436 597 431 q 613 442 606 435 q 626 467 619 449 q 656 490 632 485 q 662 500 657 493 q 667 510 667 507 q 674 520 668 514 q 681 531 679 526 q 878 727 718 563 q 1047 908 1039 892 q 1072 915 1056 924 q 1094 915 1082 921 q 1106 886 1096 907 q 1083 814 1118 863 q 1071 801 1081 810 q 1054 785 1061 792 q 1028 760 1047 778 q 995 730 1008 743 q 938 674 982 717 q 854 593 893 631 q 814 553 815 556 q 786 525 799 550 q 683 420 685 424 q 663 410 681 417 l 657 403 z "},"":{"ha":1111,"x_min":239,"x_max":1199,"o":"m 1039 289 l 1044 289 q 1046 310 1044 292 l 1124 492 q 1151 538 1142 538 q 1179 518 1175 538 l 1179 519 q 1172 442 1199 494 q 1018 26 1043 143 q 1021 -14 1014 7 q 993 -67 1024 -53 q 956 -50 965 -78 l 956 -51 q 972 103 940 -28 q 982 149 981 136 l 1000 200 q 969 189 990 197 q 904 181 933 181 q 833 221 854 181 q 821 256 825 232 q 825 290 817 279 q 856 367 854 364 q 857 376 857 371 q 917 475 867 399 q 982 571 968 557 q 1025 572 1013 592 q 1032 526 1036 535 q 992 468 1018 494 l 993 468 q 903 310 933 375 q 889 251 885 256 q 958 263 911 246 q 1022 282 1007 274 q 1039 289 1039 282 m 579 468 q 496 336 579 394 q 353 292 433 296 q 274 307 308 292 q 240 344 239 322 q 250 369 242 365 q 288 368 258 372 q 398 376 338 356 q 485 426 458 396 q 511 486 511 456 q 429 561 511 536 q 367 576 392 574 q 325 586 349 571 q 301 621 324 588 q 317 644 300 631 q 399 696 335 657 q 546 796 507 761 l 544 796 q 558 828 563 821 q 543 839 554 836 q 469 836 476 844 q 430 833 461 839 q 397 822 399 826 q 371 810 396 818 q 342 803 346 801 q 322 825 333 804 q 310 858 310 846 q 376 903 321 876 q 517 913 429 917 l 518 913 q 631 821 617 901 q 628 783 635 799 q 572 719 610 747 l 488 663 l 449 632 l 472 614 q 565 529 524 589 q 579 468 579 492 m 719 403 q 672 346 719 386 q 424 25 451 81 q 390 -19 406 -18 q 355 29 353 -14 q 401 135 357 72 q 436 174 432 160 q 553 311 447 192 q 663 436 660 431 q 675 442 668 435 q 688 467 682 449 q 718 490 694 485 q 724 500 719 493 q 730 510 729 507 q 736 520 731 514 q 743 531 742 526 q 941 727 781 563 q 1110 908 1101 892 q 1135 915 1118 924 q 1157 915 1144 921 q 1169 886 1158 907 q 1147 814 1181 863 q 1133 801 1143 810 q 1117 785 1124 792 q 1090 760 1110 778 q 1058 730 1071 743 q 1000 674 1044 717 q 917 593 956 631 q 876 553 878 556 q 849 525 861 550 q 745 420 747 424 q 725 410 743 417 l 719 403 z "},"":{"ha":519,"x_min":17,"x_max":594,"o":"m 517 579 q 480 563 492 564 q 443 572 468 561 q 406 631 401 599 q 463 688 411 663 q 544 681 510 707 q 517 579 594 632 m 358 -51 l 351 -14 q 387 -12 360 -11 q 426 -19 414 -14 q 447 -56 446 -46 q 448 -77 449 -67 q 447 -94 447 -87 q 317 -264 407 -218 l 247 -297 q 201 -301 235 -297 q 189 -300 196 -300 q 172 -296 172 -303 l 132 -296 q 38 -242 69 -278 q 43 -69 17 -179 q 124 100 69 40 q 174 146 125 101 q 240 210 222 190 q 322 285 285 235 q 378 392 358 336 q 399 431 393 425 q 425 435 406 436 q 455 419 444 435 q 465 387 465 404 q 463 359 465 369 q 458 340 461 349 q 447 314 454 331 q 435 285 439 297 q 388 223 419 258 q 333 171 357 188 l 310 154 q 290 133 310 149 q 257 111 271 118 q 211 76 225 89 q 154 -4 168 32 q 122 -131 140 -40 q 122 -197 119 -178 q 139 -226 124 -215 q 253 -212 183 -250 q 353 -106 322 -174 q 358 -51 364 -72 z "},"":{"ha":697,"x_min":65,"x_max":796,"o":"m 703 1200 q 762 1116 729 1190 q 795 1029 794 1042 q 787 1003 796 1017 q 767 988 778 990 q 744 981 750 976 q 729 1010 738 985 q 697 1061 724 1021 q 657 1174 638 1150 q 703 1200 690 1203 m 622 424 l 625 424 q 642 575 628 432 q 663 833 653 682 q 597 764 649 833 q 504 615 544 694 q 458 547 467 547 q 413 472 449 538 q 383 401 376 407 q 469 414 435 413 q 576 436 553 433 q 610 433 600 439 q 622 424 617 424 m 746 847 q 747 824 747 839 q 747 793 747 808 q 744 754 746 778 q 740 713 742 731 q 736 667 739 696 q 732 615 733 638 q 715 447 731 593 q 692 21 685 147 q 692 -4 693 11 q 690 -21 690 -19 q 644 -26 678 -35 q 607 1 611 -18 q 600 13 600 7 q 606 125 600 19 l 613 350 l 594 349 q 471 338 567 349 q 351 319 375 326 q 289 260 322 319 q 267 216 281 239 q 254 190 254 193 l 232 164 q 203 86 232 149 q 118 -62 176 26 l 96 -46 q 69 -22 74 -35 q 77 20 65 -8 q 115 98 89 49 q 187 237 140 147 q 233 340 233 326 q 254 374 228 361 q 307 442 286 406 q 453 700 324 481 q 585 900 504 792 q 640 942 617 943 q 697 917 664 942 q 746 847 740 885 z "},"":{"ha":697,"x_min":65,"x_max":851,"o":"m 789 1188 q 846 1149 813 1201 q 826 1110 851 1135 q 765 1055 801 1085 q 717 1010 728 1025 q 695 983 703 986 q 671 992 688 981 q 656 1019 661 1000 q 653 1048 651 1038 q 713 1119 656 1058 q 789 1188 769 1181 m 622 424 l 625 424 q 642 575 628 432 q 663 833 653 682 q 597 764 649 833 q 504 615 544 694 q 458 547 467 547 q 413 472 449 538 q 383 401 376 407 q 469 414 435 413 q 576 436 553 433 q 610 433 600 439 q 622 424 617 424 m 746 847 q 747 824 747 839 q 747 793 747 808 q 744 754 746 778 q 740 713 742 731 q 736 667 739 696 q 732 615 733 638 q 715 447 731 593 q 692 21 685 147 q 692 -4 693 11 q 690 -21 690 -19 q 644 -26 678 -35 q 607 1 611 -18 q 600 13 600 7 q 606 125 600 19 l 613 350 l 594 349 q 471 338 567 349 q 351 319 375 326 q 289 260 322 319 q 267 216 281 239 q 254 190 254 193 l 232 164 q 203 86 232 149 q 118 -62 176 26 l 96 -46 q 69 -22 74 -35 q 77 20 65 -8 q 115 98 89 49 q 187 237 140 147 q 233 340 233 326 q 254 374 228 361 q 307 442 286 406 q 453 700 324 481 q 585 900 504 792 q 640 942 617 943 q 697 917 664 942 q 746 847 740 885 z "},"":{"ha":697,"x_min":65,"x_max":850,"o":"m 541 1008 q 539 1011 541 1008 q 539 1028 536 1015 q 551 1053 542 1040 q 608 1106 561 1065 q 681 1160 654 1146 q 724 1157 707 1182 q 785 1099 746 1139 q 838 1042 825 1058 q 832 1000 850 1025 q 775 1018 813 972 q 700 1092 747 1051 q 631 1039 676 1078 q 574 996 586 1000 q 553 996 561 992 q 541 1008 546 1000 m 622 424 l 625 424 q 642 575 628 432 q 663 833 653 682 q 597 764 649 833 q 504 615 544 694 q 458 547 467 547 q 413 472 449 538 q 383 401 376 407 q 469 414 435 413 q 576 436 553 433 q 610 433 600 439 q 622 424 617 424 m 746 847 q 747 824 747 839 q 747 793 747 808 q 744 754 746 778 q 740 713 742 731 q 736 667 739 696 q 732 615 733 638 q 715 447 731 593 q 692 21 685 147 q 692 -4 693 11 q 690 -21 690 -19 q 644 -26 678 -35 q 607 1 611 -18 q 600 13 600 7 q 606 125 600 19 l 613 350 l 594 349 q 471 338 567 349 q 351 319 375 326 q 289 260 322 319 q 267 216 281 239 q 254 190 254 193 l 232 164 q 203 86 232 149 q 118 -62 176 26 l 96 -46 q 69 -22 74 -35 q 77 20 65 -8 q 115 98 89 49 q 187 237 140 147 q 233 340 233 326 q 254 374 228 361 q 307 442 286 406 q 453 700 324 481 q 585 900 504 792 q 640 942 617 943 q 697 917 664 942 q 746 847 740 885 z "},"":{"ha":697,"x_min":65,"x_max":936,"o":"m 903 1064 q 797 1013 811 1013 q 775 1014 783 1013 q 762 1017 767 1015 q 747 1024 757 1018 q 735 1031 738 1029 q 719 1041 732 1032 q 705 1051 707 1050 q 675 1076 703 1053 q 633 1100 647 1100 q 601 1076 618 1100 q 569 1051 583 1053 q 556 1029 567 1033 q 532 1042 542 1032 q 524 1066 522 1053 q 547 1110 525 1079 q 611 1161 569 1140 q 658 1160 629 1168 q 702 1140 688 1153 q 728 1116 717 1128 q 744 1101 740 1104 q 758 1091 749 1097 q 772 1083 767 1085 q 838 1106 794 1081 q 898 1137 882 1131 q 925 1131 914 1143 q 935 1108 936 1118 q 924 1083 933 1097 q 903 1064 914 1069 m 622 424 l 625 424 q 642 575 628 432 q 663 833 653 682 q 597 764 649 833 q 504 615 544 694 q 458 547 467 547 q 413 472 449 538 q 383 401 376 407 q 469 414 435 413 q 576 436 553 433 q 610 433 600 439 q 622 424 617 424 m 746 847 q 747 824 747 839 q 747 793 747 808 q 744 754 746 778 q 740 713 742 731 q 736 667 739 696 q 732 615 733 638 q 715 447 731 593 q 692 21 685 147 q 692 -4 693 11 q 690 -21 690 -19 q 644 -26 678 -35 q 607 1 611 -18 q 600 13 600 7 q 606 125 600 19 l 613 350 l 594 349 q 471 338 567 349 q 351 319 375 326 q 289 260 322 319 q 267 216 281 239 q 254 190 254 193 l 232 164 q 203 86 232 149 q 118 -62 176 26 l 96 -46 q 69 -22 74 -35 q 77 20 65 -8 q 115 98 89 49 q 187 237 140 147 q 233 340 233 326 q 254 374 228 361 q 307 442 286 406 q 453 700 324 481 q 585 900 504 792 q 640 942 617 943 q 697 917 664 942 q 746 847 740 885 z "},"":{"ha":697,"x_min":65,"x_max":888,"o":"m 635 1150 q 674 1163 657 1172 q 699 1132 692 1154 q 707 1098 710 1111 q 685 1060 704 1085 q 603 1065 638 996 q 599 1086 596 1079 q 626 1142 611 1129 l 635 1150 m 813 1150 q 852 1163 835 1172 q 876 1132 869 1154 q 885 1098 888 1111 q 863 1060 882 1085 q 781 1065 815 996 q 776 1086 774 1079 q 804 1142 789 1129 l 813 1150 m 622 424 l 625 424 q 642 575 628 432 q 663 833 653 682 q 597 764 649 833 q 504 615 544 694 q 458 547 467 547 q 413 472 449 538 q 383 401 376 407 q 469 414 435 413 q 576 436 553 433 q 610 433 600 439 q 622 424 617 424 m 746 847 q 747 824 747 839 q 747 793 747 808 q 744 754 746 778 q 740 713 742 731 q 736 667 739 696 q 732 615 733 638 q 715 447 731 593 q 692 21 685 147 q 692 -4 693 11 q 690 -21 690 -19 q 644 -26 678 -35 q 607 1 611 -18 q 600 13 600 7 q 606 125 600 19 l 613 350 l 594 349 q 471 338 567 349 q 351 319 375 326 q 289 260 322 319 q 267 216 281 239 q 254 190 254 193 l 232 164 q 203 86 232 149 q 118 -62 176 26 l 96 -46 q 69 -22 74 -35 q 77 20 65 -8 q 115 98 89 49 q 187 237 140 147 q 233 340 233 326 q 254 374 228 361 q 307 442 286 406 q 453 700 324 481 q 585 900 504 792 q 640 942 617 943 q 697 917 664 942 q 746 847 740 885 z "},"":{"ha":697,"x_min":65,"x_max":842,"o":"m 746 1131 q 693 1061 693 1131 q 705 1030 693 1046 q 728 1014 717 1014 q 781 1072 783 1014 q 746 1131 779 1131 m 640 1056 q 667 1144 640 1100 q 739 1188 694 1188 q 813 1167 783 1188 q 842 1099 842 1146 q 812 1005 842 1051 q 733 958 782 958 q 640 1056 650 958 m 622 424 l 625 424 q 642 575 628 432 q 663 833 653 682 q 597 764 649 833 q 504 615 544 694 q 458 547 467 547 q 413 472 449 538 q 383 401 376 407 q 469 414 435 413 q 576 436 553 433 q 610 433 600 439 q 622 424 617 424 m 746 847 q 747 824 747 839 q 747 793 747 808 q 744 754 746 778 q 740 713 742 731 q 736 667 739 696 q 732 615 733 638 q 715 447 731 593 q 692 21 685 147 q 692 -4 693 11 q 690 -21 690 -19 q 644 -26 678 -35 q 607 1 611 -18 q 600 13 600 7 q 606 125 600 19 l 613 350 l 594 349 q 471 338 567 349 q 351 319 375 326 q 289 260 322 319 q 267 216 281 239 q 254 190 254 193 l 232 164 q 203 86 232 149 q 118 -62 176 26 l 96 -46 q 69 -22 74 -35 q 77 20 65 -8 q 115 98 89 49 q 187 237 140 147 q 233 340 233 326 q 254 374 228 361 q 307 442 286 406 q 453 700 324 481 q 585 900 504 792 q 640 942 617 943 q 697 917 664 942 q 746 847 740 885 z "},"":{"ha":1089,"x_min":53,"x_max":1258,"o":"m 414 363 q 604 369 547 369 q 618 402 611 396 q 636 442 625 408 q 644 476 636 457 q 665 522 665 511 q 692 568 686 553 q 788 760 768 703 q 704 765 738 765 q 645 717 699 772 q 581 647 592 661 q 561 617 571 632 q 535 579 551 603 q 506 538 518 556 q 414 363 386 379 m 933 69 l 975 76 q 1003 92 986 92 q 1026 69 1007 92 q 1044 42 1046 47 q 1022 17 1044 29 q 963 -9 999 6 q 899 -35 926 -24 q 856 -53 872 -46 q 760 -67 819 -67 q 659 -59 700 -67 q 586 -26 618 -51 q 537 58 543 6 q 557 208 531 110 q 579 286 567 263 l 563 286 q 363 290 528 281 q 283 179 311 226 q 207 57 236 92 q 143 -18 157 -18 q 101 -6 115 -18 q 122 100 53 18 l 143 129 q 192 208 146 139 q 250 282 239 276 q 254 335 279 310 q 252 355 236 342 q 283 368 268 368 q 295 374 289 371 q 303 378 301 376 q 311 388 310 382 q 355 459 313 394 q 417 544 397 524 q 465 622 431 569 q 522 699 475 629 q 597 779 558 731 q 656 850 611 803 q 702 887 688 881 q 735 885 717 893 q 771 874 754 878 q 817 865 788 869 q 865 856 847 860 q 985 883 929 879 q 1053 894 997 892 q 1157 892 1108 896 q 1242 867 1189 892 q 1258 825 1253 856 q 1176 815 1258 815 q 1036 807 1094 815 q 974 799 978 799 l 925 790 q 876 719 919 790 q 832 638 833 647 q 797 573 832 621 q 785 515 763 525 q 981 535 910 535 q 1042 529 1015 544 q 1065 519 1057 526 q 1061 493 1083 503 q 899 442 1043 475 q 738 413 756 408 q 729 420 732 426 q 718 390 726 414 q 694 331 710 365 q 632 122 653 238 q 626 62 618 86 q 676 18 635 38 q 857 31 753 4 q 903 55 876 42 q 933 69 931 68 z "},"":{"ha":669,"x_min":165,"x_max":806,"o":"m 693 131 q 617 44 693 90 q 550 1 589 17 q 371 -78 464 -64 q 331 -124 331 -100 q 358 -158 339 -136 q 404 -231 399 -207 q 394 -308 417 -278 q 192 -329 344 -379 q 168 -305 171 -322 q 178 -276 165 -287 q 203 -267 192 -264 q 230 -276 215 -271 q 252 -283 244 -281 q 273 -290 260 -286 q 295 -293 286 -293 q 314 -292 304 -293 q 343 -271 332 -292 q 316 -205 354 -250 q 265 -148 278 -160 q 254 -115 253 -136 q 289 -69 256 -93 q 196 21 221 -43 q 174 190 171 88 q 217 425 174 314 q 236 471 218 428 q 269 549 254 514 q 344 669 285 583 q 492 849 429 800 q 592 921 515 868 q 694 941 638 954 q 775 878 751 928 q 778 722 806 819 q 692 569 750 624 q 659 557 671 554 q 625 579 647 560 q 611 611 608 610 q 617 613 614 613 q 653 672 629 628 q 686 740 678 715 q 694 780 690 768 q 699 802 697 792 q 701 817 700 813 q 702 828 701 822 q 702 839 703 835 q 700 847 701 843 q 691 862 700 853 q 643 850 682 871 q 558 788 610 836 q 465 682 507 739 q 315 435 344 524 l 300 399 q 283 335 304 376 q 266 138 260 238 q 304 7 272 38 q 456 31 339 -18 q 525 58 475 38 q 610 111 575 79 q 668 138 646 138 q 690 143 686 144 q 693 131 693 142 z "},"":{"ha":761,"x_min":118,"x_max":911,"o":"m 733 1200 q 792 1116 760 1190 q 826 1029 825 1042 q 817 1003 826 1017 q 797 988 808 990 q 774 981 781 976 q 760 1010 768 985 q 728 1061 754 1021 q 688 1174 668 1150 q 733 1200 721 1203 m 325 56 l 381 51 q 439 63 414 51 q 622 113 586 88 q 647 119 638 119 q 647 115 644 115 q 672 139 653 118 q 743 180 708 169 q 779 185 778 190 q 759 119 792 163 q 661 39 726 75 q 347 -33 532 -31 q 286 -17 310 -31 q 203 42 236 15 q 150 267 118 126 q 185 378 164 335 q 319 614 215 451 l 328 625 q 368 711 328 635 q 388 769 403 749 q 421 810 381 781 q 492 857 461 839 q 556 885 524 882 q 593 872 589 889 q 640 876 606 868 q 685 885 674 883 q 778 907 694 897 l 854 910 q 901 876 882 919 q 894 838 911 850 q 767 811 878 825 q 603 786 657 797 q 526 758 550 775 q 471 694 501 742 q 415 600 458 686 q 325 460 318 468 q 361 451 354 451 q 428 467 372 457 q 678 528 649 524 q 746 503 718 551 q 719 457 760 474 q 538 402 679 440 q 351 361 397 364 q 300 385 304 358 q 278 370 290 389 q 256 320 265 351 q 238 253 246 289 q 231 138 219 172 q 262 86 243 104 q 325 56 281 68 z "},"":{"ha":761,"x_min":118,"x_max":911,"o":"m 819 1188 q 876 1149 843 1201 q 857 1110 882 1135 q 795 1055 832 1085 q 747 1010 758 1025 q 726 983 733 986 q 701 992 718 981 q 687 1019 692 1000 q 684 1048 682 1038 q 743 1119 686 1058 q 819 1188 800 1181 m 325 56 l 381 51 q 439 63 414 51 q 622 113 586 88 q 647 119 638 119 q 647 115 644 115 q 672 139 653 118 q 743 180 708 169 q 779 185 778 190 q 759 119 792 163 q 661 39 726 75 q 347 -33 532 -31 q 286 -17 310 -31 q 203 42 236 15 q 150 267 118 126 q 185 378 164 335 q 319 614 215 451 l 328 625 q 368 711 328 635 q 388 769 403 749 q 421 810 381 781 q 492 857 461 839 q 556 885 524 882 q 593 872 589 889 q 640 876 606 868 q 685 885 674 883 q 778 907 694 897 l 854 910 q 901 876 882 919 q 894 838 911 850 q 767 811 878 825 q 603 786 657 797 q 526 758 550 775 q 471 694 501 742 q 415 600 458 686 q 325 460 318 468 q 361 451 354 451 q 428 467 372 457 q 678 528 649 524 q 746 503 718 551 q 719 457 760 474 q 538 402 679 440 q 351 361 397 364 q 300 385 304 358 q 278 370 290 389 q 256 320 265 351 q 238 253 246 289 q 231 138 219 172 q 262 86 243 104 q 325 56 281 68 z "},"":{"ha":761,"x_min":118,"x_max":936,"o":"m 627 1008 q 625 1011 627 1008 q 625 1028 622 1015 q 638 1053 628 1040 q 694 1106 647 1065 q 767 1160 740 1146 q 810 1157 793 1182 q 872 1099 832 1139 q 924 1042 911 1058 q 918 1000 936 1025 q 861 1018 899 972 q 786 1092 833 1051 q 717 1039 763 1078 q 660 996 672 1000 q 640 996 647 992 q 627 1008 632 1000 m 325 56 l 381 51 q 439 63 414 51 q 622 113 586 88 q 647 119 638 119 q 647 115 644 115 q 672 139 653 118 q 743 180 708 169 q 779 185 778 190 q 759 119 792 163 q 661 39 726 75 q 347 -33 532 -31 q 286 -17 310 -31 q 203 42 236 15 q 150 267 118 126 q 185 378 164 335 q 319 614 215 451 l 328 625 q 368 711 328 635 q 388 769 403 749 q 421 810 381 781 q 492 857 461 839 q 556 885 524 882 q 593 872 589 889 q 640 876 606 868 q 685 885 674 883 q 778 907 694 897 l 854 910 q 901 876 882 919 q 894 838 911 850 q 767 811 878 825 q 603 786 657 797 q 526 758 550 775 q 471 694 501 742 q 415 600 458 686 q 325 460 318 468 q 361 451 354 451 q 428 467 372 457 q 678 528 649 524 q 746 503 718 551 q 719 457 760 474 q 538 402 679 440 q 351 361 397 364 q 300 385 304 358 q 278 370 290 389 q 256 320 265 351 q 238 253 246 289 q 231 138 219 172 q 262 86 243 104 q 325 56 281 68 z "},"":{"ha":761,"x_min":118,"x_max":918,"o":"m 665 1150 q 705 1163 688 1172 q 729 1132 722 1154 q 738 1098 740 1111 q 715 1060 735 1085 q 633 1065 668 996 q 629 1086 626 1079 q 657 1142 642 1129 l 665 1150 m 843 1150 q 883 1163 865 1172 q 907 1132 900 1154 q 915 1098 918 1111 q 893 1060 913 1085 q 811 1065 846 996 q 807 1086 804 1079 q 835 1142 819 1129 l 843 1150 m 325 56 l 381 51 q 439 63 414 51 q 622 113 586 88 q 647 119 638 119 q 647 115 644 115 q 672 139 653 118 q 743 180 708 169 q 779 185 778 190 q 759 119 792 163 q 661 39 726 75 q 347 -33 532 -31 q 286 -17 310 -31 q 203 42 236 15 q 150 267 118 126 q 185 378 164 335 q 319 614 215 451 l 328 625 q 368 711 328 635 q 388 769 403 749 q 421 810 381 781 q 492 857 461 839 q 556 885 524 882 q 593 872 589 889 q 640 876 606 868 q 685 885 674 883 q 778 907 694 897 l 854 910 q 901 876 882 919 q 894 838 911 850 q 767 811 878 825 q 603 786 657 797 q 526 758 550 775 q 471 694 501 742 q 415 600 458 686 q 325 460 318 468 q 361 451 354 451 q 428 467 372 457 q 678 528 649 524 q 746 503 718 551 q 719 457 760 474 q 538 402 679 440 q 351 361 397 364 q 300 385 304 358 q 278 370 290 389 q 256 320 265 351 q 238 253 246 289 q 231 138 219 172 q 262 86 243 104 q 325 56 281 68 z "},"":{"ha":556,"x_min":61,"x_max":849,"o":"m 592 1200 q 652 1116 619 1190 q 685 1029 685 1042 q 677 1003 686 1017 q 657 988 668 990 q 634 981 640 976 q 619 1010 628 985 q 586 1061 614 1021 q 547 1174 528 1150 q 592 1200 581 1203 m 690 885 q 795 890 768 893 q 832 867 822 886 q 807 813 849 808 q 693 804 783 807 q 588 785 594 796 q 578 772 583 781 q 569 761 572 764 q 556 697 572 746 q 522 594 539 649 q 469 439 478 458 q 456 394 460 419 q 397 201 428 299 q 353 57 365 104 q 456 67 383 60 q 550 72 529 74 q 578 51 571 69 q 564 -8 614 3 q 486 -12 539 -14 q 340 -21 371 -17 q 306 -37 308 -25 q 267 -43 306 -58 q 140 -22 249 -18 q 86 -14 111 -26 q 67 17 61 -1 q 182 54 69 53 l 256 56 l 269 83 q 294 160 281 115 q 325 258 307 204 q 376 419 372 403 q 422 568 397 464 q 475 772 486 768 q 399 767 461 774 q 331 757 338 761 q 307 753 324 747 q 286 772 290 758 q 295 806 282 796 q 360 831 308 815 q 465 853 413 847 q 546 882 518 858 q 594 890 575 892 q 690 885 611 879 z "},"":{"ha":556,"x_min":61,"x_max":849,"o":"m 679 1188 q 736 1149 703 1201 q 717 1110 742 1135 q 655 1055 692 1085 q 607 1010 618 1025 q 585 983 593 986 q 561 992 578 981 q 547 1019 551 1000 q 544 1048 542 1038 q 603 1119 546 1058 q 679 1188 660 1181 m 690 885 q 795 890 768 893 q 832 867 822 886 q 807 813 849 808 q 693 804 783 807 q 588 785 594 796 q 578 772 583 781 q 569 761 572 764 q 556 697 572 746 q 522 594 539 649 q 469 439 478 458 q 456 394 460 419 q 397 201 428 299 q 353 57 365 104 q 456 67 383 60 q 550 72 529 74 q 578 51 571 69 q 564 -8 614 3 q 486 -12 539 -14 q 340 -21 371 -17 q 306 -37 308 -25 q 267 -43 306 -58 q 140 -22 249 -18 q 86 -14 111 -26 q 67 17 61 -1 q 182 54 69 53 l 256 56 l 269 83 q 294 160 281 115 q 325 258 307 204 q 376 419 372 403 q 422 568 397 464 q 475 772 486 768 q 399 767 461 774 q 331 757 338 761 q 307 753 324 747 q 286 772 290 758 q 295 806 282 796 q 360 831 308 815 q 465 853 413 847 q 546 882 518 858 q 594 890 575 892 q 690 885 611 879 z "},"":{"ha":556,"x_min":61,"x_max":849,"o":"m 487 1008 q 484 1011 487 1008 q 485 1028 482 1015 q 497 1053 488 1040 q 553 1106 507 1065 q 626 1160 600 1146 q 669 1157 653 1182 q 731 1099 692 1139 q 783 1042 771 1058 q 778 1000 796 1025 q 721 1018 758 972 q 646 1092 693 1051 q 577 1039 622 1078 q 519 996 532 1000 q 499 996 507 992 q 487 1008 492 1000 m 690 885 q 795 890 768 893 q 832 867 822 886 q 807 813 849 808 q 693 804 783 807 q 588 785 594 796 q 578 772 583 781 q 569 761 572 764 q 556 697 572 746 q 522 594 539 649 q 469 439 478 458 q 456 394 460 419 q 397 201 428 299 q 353 57 365 104 q 456 67 383 60 q 550 72 529 74 q 578 51 571 69 q 564 -8 614 3 q 486 -12 539 -14 q 340 -21 371 -17 q 306 -37 308 -25 q 267 -43 306 -58 q 140 -22 249 -18 q 86 -14 111 -26 q 67 17 61 -1 q 182 54 69 53 l 256 56 l 269 83 q 294 160 281 115 q 325 258 307 204 q 376 419 372 403 q 422 568 397 464 q 475 772 486 768 q 399 767 461 774 q 331 757 338 761 q 307 753 324 747 q 286 772 290 758 q 295 806 282 796 q 360 831 308 815 q 465 853 413 847 q 546 882 518 858 q 594 890 575 892 q 690 885 611 879 z "},"":{"ha":556,"x_min":61,"x_max":849,"o":"m 525 1150 q 565 1163 547 1172 q 589 1132 582 1154 q 597 1098 600 1111 q 575 1060 594 1085 q 493 1065 528 996 q 489 1086 486 1079 q 517 1142 501 1129 l 525 1150 m 703 1150 q 742 1163 725 1172 q 767 1132 760 1154 q 775 1098 778 1111 q 753 1060 772 1085 q 671 1065 706 996 q 667 1086 664 1079 q 694 1142 679 1129 l 703 1150 m 690 885 q 795 890 768 893 q 832 867 822 886 q 807 813 849 808 q 693 804 783 807 q 588 785 594 796 q 578 772 583 781 q 569 761 572 764 q 556 697 572 746 q 522 594 539 649 q 469 439 478 458 q 456 394 460 419 q 397 201 428 299 q 353 57 365 104 q 456 67 383 60 q 550 72 529 74 q 578 51 571 69 q 564 -8 614 3 q 486 -12 539 -14 q 340 -21 371 -17 q 306 -37 308 -25 q 267 -43 306 -58 q 140 -22 249 -18 q 86 -14 111 -26 q 67 17 61 -1 q 182 54 69 53 l 256 56 l 269 83 q 294 160 281 115 q 325 258 307 204 q 376 419 372 403 q 422 568 397 464 q 475 772 486 768 q 399 767 461 774 q 331 757 338 761 q 307 753 324 747 q 286 772 290 758 q 295 806 282 796 q 360 831 308 815 q 465 853 413 847 q 546 882 518 858 q 594 890 575 892 q 690 885 611 879 z "},"":{"ha":803,"x_min":101,"x_max":904,"o":"m 397 488 q 469 471 447 488 q 483 433 489 450 q 447 418 476 415 q 380 414 406 414 q 347 413 354 414 q 321 325 321 328 q 276 133 296 288 q 260 69 263 78 q 256 55 258 60 q 253 46 254 50 q 247 39 250 39 l 242 33 q 217 26 242 17 q 182 46 192 36 q 188 129 172 78 q 240 318 213 233 q 271 408 268 403 l 250 408 q 206 414 222 408 q 164 433 175 414 q 163 459 153 451 q 222 472 174 467 l 293 482 l 296 490 q 357 664 335 622 q 414 821 403 794 l 424 867 l 408 874 q 371 874 383 865 q 333 885 357 869 q 306 915 308 901 l 301 939 q 374 968 304 956 q 487 977 444 981 q 549 969 529 974 q 580 960 568 964 q 615 947 592 956 q 650 933 639 938 q 794 827 721 906 q 889 663 868 749 q 901 585 897 632 q 894 519 904 538 q 897 496 885 500 q 885 460 894 490 q 872 418 876 429 q 794 213 864 331 q 785 207 786 211 q 769 181 785 200 q 752 160 765 178 q 733 139 739 143 q 725 123 732 129 q 713 117 718 117 q 708 111 713 113 q 617 22 683 75 q 500 -53 551 -31 q 442 -82 493 -58 q 385 -109 431 -92 q 297 -134 340 -126 q 199 -126 253 -142 q 168 -111 178 -122 q 156 -98 158 -100 q 148 -87 154 -96 q 138 -74 142 -78 q 115 -1 101 -22 q 163 -25 128 19 q 283 -54 201 -65 q 426 -1 381 -36 l 589 107 q 618 124 592 114 q 661 166 625 129 q 703 207 697 203 q 708 226 704 214 q 711 243 711 238 q 761 330 728 261 q 807 449 794 399 q 805 666 833 583 q 703 813 776 749 q 606 865 674 836 q 531 890 539 893 q 513 865 524 888 q 484 792 503 842 q 451 704 465 743 q 410 592 436 665 q 372 488 383 518 l 397 488 z "},"":{"ha":786,"x_min":68,"x_max":978,"o":"m 868 1064 q 763 1013 776 1013 q 740 1014 749 1013 q 727 1017 732 1015 q 713 1024 722 1018 q 700 1031 703 1029 q 685 1041 697 1032 q 670 1051 672 1050 q 640 1076 668 1053 q 598 1100 613 1100 q 566 1076 583 1100 q 535 1051 549 1053 q 521 1029 532 1033 q 497 1042 507 1032 q 489 1066 488 1053 q 513 1110 490 1079 q 576 1161 535 1140 q 624 1160 594 1168 q 667 1140 653 1153 q 694 1116 682 1128 q 710 1101 706 1104 q 723 1091 714 1097 q 736 1083 732 1085 q 803 1106 760 1081 q 863 1137 847 1131 q 890 1131 879 1143 q 900 1108 901 1118 q 889 1083 899 1097 q 868 1064 879 1069 m 413 861 q 473 903 438 903 q 522 861 508 903 q 550 511 557 781 q 565 258 544 338 q 596 120 576 194 q 626 46 615 46 q 781 486 671 46 q 817 669 804 565 q 861 856 861 838 l 861 886 q 873 904 867 886 q 879 950 879 922 q 899 997 879 978 q 935 1005 904 1013 q 974 976 967 997 q 935 764 978 947 q 917 672 935 747 q 894 564 900 596 q 869 476 881 474 q 724 29 813 232 q 567 -22 653 -133 q 500 128 521 38 q 476 251 493 161 q 453 424 449 324 q 459 521 454 458 q 465 615 464 583 q 454 715 464 714 q 419 644 444 715 q 371 517 394 574 q 297 347 311 376 q 271 267 283 318 q 161 -50 179 22 q 142 -92 150 -78 q 89 -86 122 -122 q 69 -49 69 -65 q 79 5 68 -33 q 117 106 90 43 q 154 226 143 169 q 216 384 201 336 q 242 455 231 432 q 272 517 253 478 q 305 588 292 556 q 334 670 318 621 q 358 744 350 719 q 413 861 381 815 z "},"":{"ha":689,"x_min":139,"x_max":828,"o":"m 694 1200 q 755 1116 722 1190 q 788 1029 788 1042 q 780 1003 789 1017 q 760 988 771 990 q 737 981 743 976 q 722 1010 731 985 q 689 1061 717 1021 q 650 1174 631 1150 q 694 1200 683 1203 m 714 608 q 714 632 714 608 q 712 717 714 656 q 683 807 710 778 q 589 821 646 847 q 463 702 549 804 q 378 574 376 600 q 371 553 378 563 q 290 372 333 514 q 244 153 247 231 q 241 74 240 76 q 263 36 242 72 q 291 15 271 22 q 332 13 311 8 q 422 49 379 18 q 533 160 464 81 q 626 285 601 239 q 689 460 651 331 q 714 608 714 560 m 540 892 q 631 921 606 931 q 747 858 708 904 q 807 706 786 811 q 809 507 828 600 q 701 268 790 414 q 469 -10 604 76 q 243 -28 333 -97 q 179 31 194 10 q 181 300 139 89 q 188 322 189 308 q 190 349 186 335 q 203 390 194 363 q 217 444 211 417 q 371 754 279 633 q 540 892 474 861 z "},"":{"ha":689,"x_min":139,"x_max":844,"o":"m 782 1188 q 839 1149 806 1201 q 819 1110 844 1135 q 758 1055 794 1085 q 710 1010 721 1025 q 688 983 696 986 q 664 992 681 981 q 649 1019 654 1000 q 647 1048 644 1038 q 706 1119 649 1058 q 782 1188 763 1181 m 714 608 q 714 632 714 608 q 712 717 714 656 q 683 807 710 778 q 589 821 646 847 q 463 702 549 804 q 378 574 376 600 q 371 553 378 563 q 290 372 333 514 q 244 153 247 231 q 241 74 240 76 q 263 36 242 72 q 291 15 271 22 q 332 13 311 8 q 422 49 379 18 q 533 160 464 81 q 626 285 601 239 q 689 460 651 331 q 714 608 714 560 m 540 892 q 631 921 606 931 q 747 858 708 904 q 807 706 786 811 q 809 507 828 600 q 701 268 790 414 q 469 -10 604 76 q 243 -28 333 -97 q 179 31 194 10 q 181 300 139 89 q 188 322 189 308 q 190 349 186 335 q 203 390 194 363 q 217 444 211 417 q 371 754 279 633 q 540 892 474 861 z "},"":{"ha":689,"x_min":139,"x_max":899,"o":"m 590 1008 q 587 1011 590 1008 q 588 1028 585 1015 q 600 1053 590 1040 q 656 1106 610 1065 q 729 1160 703 1146 q 772 1157 756 1182 q 834 1099 794 1139 q 886 1042 874 1058 q 881 1000 899 1025 q 824 1018 861 972 q 749 1092 796 1051 q 680 1039 725 1078 q 622 996 635 1000 q 602 996 610 992 q 590 1008 594 1000 m 714 608 q 714 632 714 608 q 712 717 714 656 q 683 807 710 778 q 589 821 646 847 q 463 702 549 804 q 378 574 376 600 q 371 553 378 563 q 290 372 333 514 q 244 153 247 231 q 241 74 240 76 q 263 36 242 72 q 291 15 271 22 q 332 13 311 8 q 422 49 379 18 q 533 160 464 81 q 626 285 601 239 q 689 460 651 331 q 714 608 714 560 m 540 892 q 631 921 606 931 q 747 858 708 904 q 807 706 786 811 q 809 507 828 600 q 701 268 790 414 q 469 -10 604 76 q 243 -28 333 -97 q 179 31 194 10 q 181 300 139 89 q 188 322 189 308 q 190 349 186 335 q 203 390 194 363 q 217 444 211 417 q 371 754 279 633 q 540 892 474 861 z "},"":{"ha":689,"x_min":139,"x_max":929,"o":"m 896 1064 q 790 1013 804 1013 q 768 1014 776 1013 q 755 1017 760 1015 q 740 1024 750 1018 q 728 1031 731 1029 q 713 1041 725 1032 q 698 1051 700 1050 q 668 1076 696 1053 q 626 1100 640 1100 q 594 1076 611 1100 q 563 1051 576 1053 q 549 1029 560 1033 q 525 1042 535 1032 q 517 1066 515 1053 q 540 1110 518 1079 q 604 1161 563 1140 q 651 1160 622 1168 q 695 1140 681 1153 q 722 1116 710 1128 q 738 1101 733 1104 q 751 1091 742 1097 q 764 1083 760 1085 q 831 1106 788 1081 q 891 1137 875 1131 q 918 1131 907 1143 q 928 1108 929 1118 q 917 1083 926 1097 q 896 1064 907 1069 m 714 608 q 714 632 714 608 q 712 717 714 656 q 683 807 710 778 q 589 821 646 847 q 463 702 549 804 q 378 574 376 600 q 371 553 378 563 q 290 372 333 514 q 244 153 247 231 q 241 74 240 76 q 263 36 242 72 q 291 15 271 22 q 332 13 311 8 q 422 49 379 18 q 533 160 464 81 q 626 285 601 239 q 689 460 651 331 q 714 608 714 560 m 540 892 q 631 921 606 931 q 747 858 708 904 q 807 706 786 811 q 809 507 828 600 q 701 268 790 414 q 469 -10 604 76 q 243 -28 333 -97 q 179 31 194 10 q 181 300 139 89 q 188 322 189 308 q 190 349 186 335 q 203 390 194 363 q 217 444 211 417 q 371 754 279 633 q 540 892 474 861 z "},"":{"ha":689,"x_min":139,"x_max":881,"o":"m 628 1150 q 667 1163 650 1172 q 692 1132 685 1154 q 700 1098 703 1111 q 678 1060 697 1085 q 596 1065 631 996 q 592 1086 589 1079 q 619 1142 604 1129 l 628 1150 m 806 1150 q 845 1163 828 1172 q 869 1132 863 1154 q 878 1098 881 1111 q 856 1060 875 1085 q 774 1065 808 996 q 769 1086 767 1079 q 797 1142 782 1129 l 806 1150 m 714 608 q 714 632 714 608 q 712 717 714 656 q 683 807 710 778 q 589 821 646 847 q 463 702 549 804 q 378 574 376 600 q 371 553 378 563 q 290 372 333 514 q 244 153 247 231 q 241 74 240 76 q 263 36 242 72 q 291 15 271 22 q 332 13 311 8 q 422 49 379 18 q 533 160 464 81 q 626 285 601 239 q 689 460 651 331 q 714 608 714 560 m 540 892 q 631 921 606 931 q 747 858 708 904 q 807 706 786 811 q 809 507 828 600 q 701 268 790 414 q 469 -10 604 76 q 243 -28 333 -97 q 179 31 194 10 q 181 300 139 89 q 188 322 189 308 q 190 349 186 335 q 203 390 194 363 q 217 444 211 417 q 371 754 279 633 q 540 892 474 861 z "},"":{"ha":619,"x_min":199,"x_max":625,"o":"m 239 394 q 206 431 213 421 q 200 467 200 442 q 217 501 200 493 q 253 485 233 510 l 319 428 l 404 347 q 542 487 528 478 q 583 496 557 496 q 617 478 608 496 q 600 443 625 461 q 509 341 539 372 q 463 292 479 310 l 568 189 q 597 150 588 169 q 611 107 618 129 q 606 89 610 94 q 593 86 601 83 q 539 121 579 89 q 407 233 501 144 q 265 99 293 113 q 222 85 244 78 q 204 90 210 86 q 200 103 199 94 q 236 157 204 117 q 347 288 258 192 l 239 394 z "},"":{"ha":689,"x_min":138,"x_max":900,"o":"m 556 597 q 585 644 556 599 q 699 779 622 682 q 683 807 693 796 q 589 821 646 847 q 463 702 549 804 q 378 574 376 600 q 371 553 378 563 q 295 388 336 517 q 243 163 254 260 q 398 388 299 246 q 506 538 497 529 q 518 544 511 536 q 532 572 525 551 q 556 597 539 593 m 581 513 q 571 503 575 515 l 569 500 q 526 436 569 489 q 261 38 329 147 l 263 36 q 291 15 271 22 q 332 13 311 8 q 422 49 379 18 q 533 160 464 81 q 626 285 601 239 q 679 428 651 331 q 710 562 707 526 q 713 669 714 597 q 696 646 699 651 q 638 583 678 629 q 596 533 597 536 q 592 525 594 529 q 581 513 588 514 m 540 892 q 631 921 606 931 q 754 849 714 901 q 822 944 813 925 q 851 957 828 965 q 874 958 857 961 q 889 931 876 950 q 881 864 900 910 q 860 832 874 846 q 842 812 847 818 q 820 790 836 806 q 793 761 804 774 q 811 517 832 619 q 701 268 790 414 q 469 -10 604 76 q 243 -28 333 -97 l 229 -17 q 214 -47 217 -39 q 183 -99 200 -96 q 141 -56 144 -97 q 169 44 138 -15 q 161 85 161 64 q 181 300 153 161 q 188 322 189 308 q 190 349 186 335 q 203 390 194 363 q 217 444 211 417 q 371 754 279 633 q 540 892 474 861 z "},"":{"ha":669,"x_min":157,"x_max":907,"o":"m 675 1200 q 734 1116 701 1190 q 767 1029 767 1042 q 759 1003 768 1017 q 739 988 750 990 q 716 981 722 976 q 701 1010 710 985 q 669 1061 696 1021 q 629 1174 610 1150 q 675 1200 663 1203 m 450 90 q 526 172 471 99 q 582 256 582 246 q 600 286 582 265 q 722 515 625 311 q 815 827 807 786 q 839 913 824 868 q 894 892 847 915 q 900 846 907 876 q 840 610 864 675 q 799 504 817 546 q 773 441 782 463 q 742 371 764 419 q 713 303 721 322 l 713 294 q 682 259 696 285 q 663 231 668 233 l 650 199 q 633 181 649 190 q 615 163 618 172 q 610 150 611 153 q 497 17 560 76 q 306 -72 388 -92 q 182 63 207 -37 q 200 382 157 164 q 272 624 221 483 q 364 838 322 765 q 422 928 406 911 q 456 942 439 944 q 501 897 494 931 q 475 839 508 863 q 428 761 458 821 q 386 681 397 701 q 278 308 300 433 q 249 71 249 174 q 256 57 251 65 q 263 44 261 49 q 269 33 265 39 q 285 22 274 26 q 397 39 331 0 q 426 64 406 54 q 433 60 431 58 q 438 69 435 63 q 450 90 436 76 z "},"":{"ha":669,"x_min":157,"x_max":907,"o":"m 761 1188 q 818 1149 785 1201 q 799 1110 824 1135 q 737 1055 774 1085 q 689 1010 700 1025 q 667 983 675 986 q 643 992 660 981 q 628 1019 633 1000 q 626 1048 624 1038 q 685 1119 628 1058 q 761 1188 742 1181 m 450 90 q 526 172 471 99 q 582 256 582 246 q 600 286 582 265 q 722 515 625 311 q 815 827 807 786 q 839 913 824 868 q 894 892 847 915 q 900 846 907 876 q 840 610 864 675 q 799 504 817 546 q 773 441 782 463 q 742 371 764 419 q 713 303 721 322 l 713 294 q 682 259 696 285 q 663 231 668 233 l 650 199 q 633 181 649 190 q 615 163 618 172 q 610 150 611 153 q 497 17 560 76 q 306 -72 388 -92 q 182 63 207 -37 q 200 382 157 164 q 272 624 221 483 q 364 838 322 765 q 422 928 406 911 q 456 942 439 944 q 501 897 494 931 q 475 839 508 863 q 428 761 458 821 q 386 681 397 701 q 278 308 300 433 q 249 71 249 174 q 256 57 251 65 q 263 44 261 49 q 269 33 265 39 q 285 22 274 26 q 397 39 331 0 q 426 64 406 54 q 433 60 431 58 q 438 69 435 63 q 450 90 436 76 z "},"":{"ha":669,"x_min":157,"x_max":907,"o":"m 569 1008 q 566 1011 569 1008 q 567 1028 564 1015 q 579 1053 569 1040 q 635 1106 589 1065 q 708 1160 682 1146 q 751 1157 735 1182 q 813 1099 774 1139 q 865 1042 853 1058 q 860 1000 878 1025 q 803 1018 840 972 q 728 1092 775 1051 q 659 1039 704 1078 q 601 996 614 1000 q 581 996 589 992 q 569 1008 574 1000 m 450 90 q 526 172 471 99 q 582 256 582 246 q 600 286 582 265 q 722 515 625 311 q 815 827 807 786 q 839 913 824 868 q 894 892 847 915 q 900 846 907 876 q 840 610 864 675 q 799 504 817 546 q 773 441 782 463 q 742 371 764 419 q 713 303 721 322 l 713 294 q 682 259 696 285 q 663 231 668 233 l 650 199 q 633 181 649 190 q 615 163 618 172 q 610 150 611 153 q 497 17 560 76 q 306 -72 388 -92 q 182 63 207 -37 q 200 382 157 164 q 272 624 221 483 q 364 838 322 765 q 422 928 406 911 q 456 942 439 944 q 501 897 494 931 q 475 839 508 863 q 428 761 458 821 q 386 681 397 701 q 278 308 300 433 q 249 71 249 174 q 256 57 251 65 q 263 44 261 49 q 269 33 265 39 q 285 22 274 26 q 397 39 331 0 q 426 64 406 54 q 433 60 431 58 q 438 69 435 63 q 450 90 436 76 z "},"":{"ha":669,"x_min":157,"x_max":907,"o":"m 785 1150 q 824 1163 807 1172 q 849 1132 842 1154 q 857 1098 860 1111 q 835 1060 854 1085 q 753 1065 788 996 q 749 1086 746 1079 q 776 1142 761 1129 l 785 1150 m 607 1150 q 647 1163 629 1172 q 671 1132 664 1154 q 679 1098 682 1111 q 657 1060 676 1085 q 575 1065 610 996 q 571 1086 568 1079 q 599 1142 583 1129 l 607 1150 m 450 90 q 526 172 471 99 q 582 256 582 246 q 600 286 582 265 q 722 515 625 311 q 815 827 807 786 q 839 913 824 868 q 894 892 847 915 q 900 846 907 876 q 840 610 864 675 q 799 504 817 546 q 773 441 782 463 q 742 371 764 419 q 713 303 721 322 l 713 294 q 682 259 696 285 q 663 231 668 233 l 650 199 q 633 181 649 190 q 615 163 618 172 q 610 150 611 153 q 497 17 560 76 q 306 -72 388 -92 q 182 63 207 -37 q 200 382 157 164 q 272 624 221 483 q 364 838 322 765 q 422 928 406 911 q 456 942 439 944 q 501 897 494 931 q 475 839 508 863 q 428 761 458 821 q 386 681 397 701 q 278 308 300 433 q 249 71 249 174 q 256 57 251 65 q 263 44 261 49 q 269 33 265 39 q 285 22 274 26 q 397 39 331 0 q 426 64 406 54 q 433 60 431 58 q 438 69 435 63 q 450 90 436 76 z "},"":{"ha":700,"x_min":303,"x_max":943,"o":"m 757 1189 q 814 1150 781 1203 q 794 1111 819 1136 q 733 1056 769 1086 q 685 1011 696 1026 q 663 985 671 988 q 639 993 656 982 q 624 1020 629 1001 q 622 1049 619 1039 q 681 1121 624 1060 q 757 1189 738 1182 m 885 886 q 914 904 894 901 q 927 884 922 901 q 938 856 932 867 q 942 836 943 846 q 911 797 940 826 q 814 701 881 771 q 708 583 747 632 q 540 400 582 438 l 511 371 q 488 274 504 346 q 464 196 479 246 q 428 75 443 124 q 401 -22 413 26 q 382 -85 389 -71 q 365 -96 375 -99 q 318 -68 354 -93 q 306 -40 303 -53 q 310 -19 308 -26 q 325 36 314 0 q 367 190 328 119 q 410 336 367 233 l 432 403 q 342 599 354 506 q 329 824 321 669 q 353 925 329 882 q 357 935 357 933 q 397 914 379 963 q 408 826 410 878 q 478 483 417 522 q 514 489 499 478 q 672 653 560 522 q 824 830 783 785 q 885 886 865 875 z "},"":{"ha":656,"x_min":103,"x_max":775,"o":"m 629 489 q 669 594 660 532 q 664 677 679 656 q 614 706 649 699 q 485 679 550 717 q 379 481 463 669 q 303 269 296 293 q 423 292 374 268 q 521 361 472 315 q 629 489 575 415 m 325 575 q 343 610 325 585 q 358 646 343 635 q 361 685 367 681 q 383 722 349 721 q 399 737 392 722 q 408 753 406 751 q 481 963 481 942 q 513 985 481 985 q 535 992 519 992 l 557 969 q 572 933 572 956 q 571 902 572 910 q 569 888 569 894 q 563 869 568 882 q 553 849 557 857 q 538 817 549 842 q 518 776 526 793 l 564 785 q 664 775 619 785 q 739 717 711 753 q 771 647 767 682 q 747 529 775 613 q 693 426 718 446 q 674 394 707 428 q 628 357 640 361 q 590 313 614 325 q 525 260 538 279 q 500 254 525 275 q 489 246 492 247 q 368 197 426 208 q 318 189 358 189 l 271 196 l 242 117 q 220 38 235 88 q 201 -36 206 -11 q 189 -75 196 -61 q 163 -89 178 -101 q 143 -83 160 -87 q 108 -54 108 -75 q 153 128 103 -46 q 211 300 204 301 q 233 357 218 338 q 249 410 236 378 q 274 454 261 443 q 297 522 274 469 q 325 575 321 575 z "},"":{"ha":553,"x_min":61,"x_max":742,"o":"m 533 474 q 514 451 525 474 q 508 417 503 428 l 501 408 q 495 399 493 408 q 499 382 497 389 q 506 366 501 375 q 513 350 510 357 q 522 335 517 343 q 528 322 526 326 q 568 254 543 321 q 573 203 569 231 q 578 158 576 176 q 453 33 565 42 q 420 31 435 31 q 400 32 406 31 q 374 40 394 33 q 331 54 354 46 q 294 78 307 63 q 294 119 281 94 q 307 126 299 126 l 322 128 q 398 122 375 128 q 429 118 421 115 q 443 129 438 121 l 479 133 q 480 140 481 133 q 481 149 479 147 q 486 154 483 150 q 494 190 500 175 q 468 264 492 233 q 423 352 444 322 q 394 389 401 382 q 410 446 385 400 q 436 481 410 447 q 521 597 517 589 q 567 632 544 611 q 589 660 589 653 q 608 713 582 679 q 629 815 647 778 q 565 809 607 829 q 488 749 522 789 q 442 697 447 699 q 367 573 410 656 q 300 421 324 490 q 297 390 306 411 q 275 358 289 368 l 275 307 l 267 283 q 257 282 257 283 q 234 203 253 251 q 210 135 215 156 q 197 53 206 115 q 157 -150 143 -108 q 142 -240 142 -204 q 140 -283 142 -276 q 110 -296 138 -299 q 61 -233 71 -286 l 61 -193 q 75 -106 76 -165 q 88 -44 88 -75 q 139 151 124 104 q 196 329 153 218 q 210 393 193 347 q 247 469 226 439 q 283 575 256 519 q 282 610 279 581 q 306 640 303 622 q 357 713 306 644 q 436 814 408 781 q 561 889 497 872 q 622 899 610 899 q 661 877 633 900 q 700 832 689 854 q 650 606 742 728 q 615 562 629 572 q 589 543 600 551 q 568 510 578 535 q 549 488 561 503 q 533 474 536 474 z "},"":{"ha":607,"x_min":96,"x_max":690,"o":"m 478 825 q 538 741 506 815 q 572 654 571 667 q 563 628 572 642 q 543 613 554 615 q 520 606 526 601 q 506 635 514 610 q 472 686 500 646 q 433 799 414 775 q 478 825 467 828 m 496 396 q 440 451 471 451 q 347 378 410 451 q 233 207 285 306 l 199 128 q 234 130 199 113 q 293 167 269 147 q 465 346 413 269 l 496 396 m 149 50 q 135 67 144 58 q 126 85 126 76 q 119 103 126 94 q 194 307 96 126 q 216 336 203 315 q 233 360 229 357 q 238 370 233 365 q 247 375 242 375 l 247 383 q 293 444 247 396 q 482 519 415 572 q 597 414 490 508 l 572 344 q 590 175 542 254 q 618 146 597 160 q 660 129 639 132 q 690 97 690 124 q 665 65 690 71 q 507 179 572 53 q 482 240 488 206 q 438 188 461 211 q 149 50 242 -10 z "},"":{"ha":607,"x_min":96,"x_max":721,"o":"m 658 813 q 715 774 682 826 q 696 735 721 760 q 634 680 671 710 q 586 635 597 650 q 565 608 572 611 q 540 617 557 606 q 526 644 531 625 q 523 673 521 663 q 582 744 525 683 q 658 813 639 806 m 496 396 q 440 451 471 451 q 347 378 410 451 q 233 207 285 306 l 199 128 q 234 130 199 113 q 293 167 269 147 q 465 346 413 269 l 496 396 m 149 50 q 135 67 144 58 q 126 85 126 76 q 119 103 126 94 q 194 307 96 126 q 216 336 203 315 q 233 360 229 357 q 238 370 233 365 q 247 375 242 375 l 247 383 q 293 444 247 396 q 482 519 415 572 q 597 414 490 508 l 572 344 q 590 175 542 254 q 618 146 597 160 q 660 129 639 132 q 690 97 690 124 q 665 65 690 71 q 507 179 572 53 q 482 240 488 206 q 438 188 461 211 q 149 50 242 -10 z "},"":{"ha":607,"x_min":96,"x_max":690,"o":"m 370 627 q 368 631 370 627 q 368 647 365 635 q 381 672 371 660 q 437 725 390 685 q 510 779 483 765 q 553 776 536 801 q 615 718 575 758 q 667 661 654 678 q 661 619 679 644 q 604 638 642 592 q 529 711 576 671 q 460 658 506 697 q 403 615 415 619 q 383 615 390 611 q 370 627 375 619 m 496 396 q 440 451 471 451 q 347 378 410 451 q 233 207 285 306 l 199 128 q 234 130 199 113 q 293 167 269 147 q 465 346 413 269 l 496 396 m 149 50 q 135 67 144 58 q 126 85 126 76 q 119 103 126 94 q 194 307 96 126 q 216 336 203 315 q 233 360 229 357 q 238 370 233 365 q 247 375 242 375 l 247 383 q 293 444 247 396 q 482 519 415 572 q 597 414 490 508 l 572 344 q 590 175 542 254 q 618 146 597 160 q 660 129 639 132 q 690 97 690 124 q 665 65 690 71 q 507 179 572 53 q 482 240 488 206 q 438 188 461 211 q 149 50 242 -10 z "},"":{"ha":607,"x_min":96,"x_max":742,"o":"m 708 647 q 603 596 617 596 q 581 597 589 596 q 567 600 572 599 q 553 607 563 601 q 540 614 543 613 q 525 624 538 615 q 510 635 513 633 q 481 660 508 636 q 438 683 453 683 q 406 660 424 683 q 375 635 389 636 q 361 613 372 617 q 338 626 347 615 q 329 649 328 636 q 353 693 331 663 q 417 744 375 724 q 464 744 435 751 q 508 724 493 736 q 534 699 522 711 q 550 684 546 688 q 563 674 554 681 q 578 667 572 668 q 644 689 600 664 q 703 720 688 714 q 731 714 719 726 q 740 691 742 701 q 729 667 739 681 q 708 647 719 653 m 496 396 q 440 451 471 451 q 347 378 410 451 q 233 207 285 306 l 199 128 q 234 130 199 113 q 293 167 269 147 q 465 346 413 269 l 496 396 m 149 50 q 135 67 144 58 q 126 85 126 76 q 119 103 126 94 q 194 307 96 126 q 216 336 203 315 q 233 360 229 357 q 238 370 233 365 q 247 375 242 375 l 247 383 q 293 444 247 396 q 482 519 415 572 q 597 414 490 508 l 572 344 q 590 175 542 254 q 618 146 597 160 q 660 129 639 132 q 690 97 690 124 q 665 65 690 71 q 507 179 572 53 q 482 240 488 206 q 438 188 461 211 q 149 50 242 -10 z "},"":{"ha":607,"x_min":96,"x_max":693,"o":"m 440 733 q 480 747 463 756 q 504 715 497 738 q 513 681 515 694 q 490 643 510 668 q 408 649 443 579 q 404 669 401 663 q 432 725 417 713 l 440 733 m 618 733 q 658 747 640 756 q 682 715 675 738 q 690 681 693 694 q 668 643 688 668 q 586 649 621 579 q 582 669 579 663 q 610 725 594 713 l 618 733 m 496 396 q 440 451 471 451 q 347 378 410 451 q 233 207 285 306 l 199 128 q 234 130 199 113 q 293 167 269 147 q 465 346 413 269 l 496 396 m 149 50 q 135 67 144 58 q 126 85 126 76 q 119 103 126 94 q 194 307 96 126 q 216 336 203 315 q 233 360 229 357 q 238 370 233 365 q 247 375 242 375 l 247 383 q 293 444 247 396 q 482 519 415 572 q 597 414 490 508 l 572 344 q 590 175 542 254 q 618 146 597 160 q 660 129 639 132 q 690 97 690 124 q 665 65 690 71 q 507 179 572 53 q 482 240 488 206 q 438 188 461 211 q 149 50 242 -10 z "},"":{"ha":607,"x_min":96,"x_max":690,"o":"m 579 744 q 526 675 526 744 q 538 644 526 660 q 561 628 550 628 q 615 686 617 628 q 579 744 613 744 m 474 669 q 501 758 474 714 q 572 801 528 801 q 646 781 617 801 q 675 713 675 760 q 645 619 675 665 q 567 572 615 572 q 474 669 483 572 m 496 396 q 440 451 471 451 q 347 378 410 451 q 233 207 285 306 l 199 128 q 234 130 199 113 q 293 167 269 147 q 465 346 413 269 l 496 396 m 149 50 q 135 67 144 58 q 126 85 126 76 q 119 103 126 94 q 194 307 96 126 q 216 336 203 315 q 233 360 229 357 q 238 370 233 365 q 247 375 242 375 l 247 383 q 293 444 247 396 q 482 519 415 572 q 597 414 490 508 l 572 344 q 590 175 542 254 q 618 146 597 160 q 660 129 639 132 q 690 97 690 124 q 665 65 690 71 q 507 179 572 53 q 482 240 488 206 q 438 188 461 211 q 149 50 242 -10 z "},"":{"ha":797,"x_min":89,"x_max":868,"o":"m 715 343 q 727 348 715 343 q 763 378 739 353 q 788 422 788 403 q 768 452 788 440 q 722 457 749 464 q 668 425 696 450 q 622 376 640 400 q 608 347 604 351 q 653 335 614 336 q 715 343 692 333 m 489 396 q 433 451 464 451 q 340 378 403 451 q 226 207 278 306 l 192 128 q 227 130 192 113 q 286 167 263 147 q 458 346 406 269 l 489 396 m 563 221 q 558 206 558 214 q 604 100 547 110 q 621 97 610 99 q 635 94 632 94 q 647 92 639 93 q 661 93 656 92 q 683 102 672 96 q 699 111 693 108 q 713 119 710 117 q 717 121 717 121 q 720 122 718 121 q 722 125 722 124 q 747 148 732 133 q 768 163 761 163 q 783 156 775 163 q 793 147 790 149 q 787 111 815 147 q 717 49 758 75 q 612 20 672 10 q 515 81 551 31 q 481 221 476 129 q 475 240 475 238 q 431 188 454 211 q 142 50 235 -10 q 128 67 138 58 q 119 85 119 76 q 113 103 119 94 q 188 307 89 126 q 209 336 196 315 q 226 360 222 357 q 231 370 226 365 q 240 375 235 375 l 240 383 q 286 444 240 396 q 475 519 408 572 l 567 433 q 679 521 622 497 q 715 534 699 533 q 772 529 732 535 q 833 496 811 524 q 868 415 868 461 q 825 339 863 382 q 735 269 788 296 q 608 279 657 246 q 576 278 585 289 q 560 226 567 268 l 563 221 z "},"":{"ha":493,"x_min":104,"x_max":547,"o":"m 519 392 q 501 346 514 365 q 474 326 488 326 q 460 318 460 326 q 444 315 460 306 q 426 335 428 325 q 426 353 424 344 q 433 376 428 361 q 401 458 468 486 q 231 178 286 393 q 224 119 219 139 q 231 97 228 99 q 283 95 250 92 q 347 115 317 99 q 404 151 376 131 q 446 184 432 172 q 468 200 460 196 q 490 221 481 219 q 513 222 499 222 q 547 199 546 211 q 542 193 547 196 l 535 186 q 486 125 540 175 q 417 75 432 75 q 401 67 401 75 q 368 45 401 61 q 306 19 335 29 q 269 -24 269 -3 q 297 -58 278 -36 q 343 -131 338 -107 q 333 -208 356 -178 q 131 -229 283 -279 q 107 -205 110 -222 q 117 -176 104 -187 q 142 -167 131 -164 q 169 -176 154 -171 q 191 -183 183 -181 q 212 -190 199 -186 q 234 -193 225 -193 q 253 -192 243 -193 q 282 -171 271 -192 q 255 -105 293 -150 q 208 -51 217 -60 q 194 -29 199 -37 q 214 19 186 -7 q 143 133 143 47 q 170 285 138 194 q 263 448 203 375 q 356 534 324 521 q 424 547 388 547 q 473 526 449 542 q 497 496 497 511 l 504 489 q 524 451 517 489 q 519 392 531 414 z "},"":{"ha":451,"x_min":139,"x_max":535,"o":"m 397 825 q 458 741 425 815 q 491 654 490 667 q 483 628 492 642 q 463 613 474 615 q 440 606 446 601 q 425 635 433 610 q 392 686 419 646 q 353 799 333 775 q 397 825 386 828 m 382 343 q 394 348 382 343 q 430 378 406 353 q 454 422 454 403 q 435 452 454 440 q 389 457 415 464 q 335 425 363 450 q 289 376 307 400 q 275 347 271 351 q 319 335 281 336 q 382 343 358 333 m 380 119 q 382 120 380 119 q 384 121 383 121 q 387 122 385 121 q 389 125 389 124 q 413 148 399 133 q 435 163 428 163 q 449 156 442 163 q 460 147 457 149 q 453 111 482 147 q 383 49 425 75 q 278 20 339 10 q 182 81 218 31 q 150 254 139 135 q 217 413 156 332 q 346 521 278 494 q 382 534 365 533 q 438 529 399 535 q 500 496 478 524 q 535 415 535 461 q 492 339 529 382 q 401 269 454 296 q 275 279 324 246 q 241 275 250 289 q 225 206 232 261 q 271 100 214 110 q 288 97 276 99 q 302 94 299 94 q 314 92 306 93 q 328 93 322 92 q 349 102 339 96 q 365 111 360 108 q 380 119 376 117 z "},"":{"ha":451,"x_min":139,"x_max":640,"o":"m 578 813 q 635 774 601 826 q 615 735 640 760 q 553 680 590 710 q 506 635 517 650 q 484 608 492 611 q 460 617 476 606 q 445 644 450 625 q 442 673 440 663 q 501 744 444 683 q 578 813 558 806 m 382 343 q 394 348 382 343 q 430 378 406 353 q 454 422 454 403 q 435 452 454 440 q 389 457 415 464 q 335 425 363 450 q 289 376 307 400 q 275 347 271 351 q 319 335 281 336 q 382 343 358 333 m 380 119 q 382 120 380 119 q 384 121 383 121 q 387 122 385 121 q 389 125 389 124 q 413 148 399 133 q 435 163 428 163 q 449 156 442 163 q 460 147 457 149 q 453 111 482 147 q 383 49 425 75 q 278 20 339 10 q 182 81 218 31 q 150 254 139 135 q 217 413 156 332 q 346 521 278 494 q 382 534 365 533 q 438 529 399 535 q 500 496 478 524 q 535 415 535 461 q 492 339 529 382 q 401 269 454 296 q 275 279 324 246 q 241 275 250 289 q 225 206 232 261 q 271 100 214 110 q 288 97 276 99 q 302 94 299 94 q 314 92 306 93 q 328 93 322 92 q 349 102 339 96 q 365 111 360 108 q 380 119 376 117 z "},"":{"ha":451,"x_min":139,"x_max":599,"o":"m 290 627 q 287 631 290 627 q 288 647 285 635 q 300 672 290 660 q 356 725 310 685 q 429 779 403 765 q 472 776 456 801 q 534 718 494 758 q 586 661 574 678 q 581 619 599 644 q 524 638 561 592 q 449 711 496 671 q 380 658 425 697 q 322 615 335 619 q 302 615 310 611 q 290 627 294 619 m 382 343 q 394 348 382 343 q 430 378 406 353 q 454 422 454 403 q 435 452 454 440 q 389 457 415 464 q 335 425 363 450 q 289 376 307 400 q 275 347 271 351 q 319 335 281 336 q 382 343 358 333 m 380 119 q 382 120 380 119 q 384 121 383 121 q 387 122 385 121 q 389 125 389 124 q 413 148 399 133 q 435 163 428 163 q 449 156 442 163 q 460 147 457 149 q 453 111 482 147 q 383 49 425 75 q 278 20 339 10 q 182 81 218 31 q 150 254 139 135 q 217 413 156 332 q 346 521 278 494 q 382 534 365 533 q 438 529 399 535 q 500 496 478 524 q 535 415 535 461 q 492 339 529 382 q 401 269 454 296 q 275 279 324 246 q 241 275 250 289 q 225 206 232 261 q 271 100 214 110 q 288 97 276 99 q 302 94 299 94 q 314 92 306 93 q 328 93 322 92 q 349 102 339 96 q 365 111 360 108 q 380 119 376 117 z "},"":{"ha":451,"x_min":139,"x_max":613,"o":"m 360 733 q 399 747 382 756 q 424 715 417 738 q 432 681 435 694 q 410 643 429 668 q 328 649 363 579 q 324 669 321 663 q 351 725 336 713 l 360 733 m 538 733 q 577 747 560 756 q 601 715 594 738 q 610 681 613 694 q 588 643 607 668 q 506 649 540 579 q 501 669 499 663 q 529 725 514 713 l 538 733 m 382 343 q 394 348 382 343 q 430 378 406 353 q 454 422 454 403 q 435 452 454 440 q 389 457 415 464 q 335 425 363 450 q 289 376 307 400 q 275 347 271 351 q 319 335 281 336 q 382 343 358 333 m 380 119 q 382 120 380 119 q 384 121 383 121 q 387 122 385 121 q 389 125 389 124 q 413 148 399 133 q 435 163 428 163 q 449 156 442 163 q 460 147 457 149 q 453 111 482 147 q 383 49 425 75 q 278 20 339 10 q 182 81 218 31 q 150 254 139 135 q 217 413 156 332 q 346 521 278 494 q 382 534 365 533 q 438 529 399 535 q 500 496 478 524 q 535 415 535 461 q 492 339 529 382 q 401 269 454 296 q 275 279 324 246 q 241 275 250 289 q 225 206 232 261 q 271 100 214 110 q 288 97 276 99 q 302 94 299 94 q 314 92 306 93 q 328 93 322 92 q 349 102 339 96 q 365 111 360 108 q 380 119 376 117 z "},"":{"ha":260,"x_min":132,"x_max":365,"o":"m 272 825 q 331 741 299 815 q 365 654 364 667 q 356 628 365 642 q 336 613 347 615 q 313 606 319 601 q 299 635 307 610 q 267 686 293 646 q 226 799 207 775 q 272 825 260 828 m 142 133 l 147 163 q 158 208 146 171 q 225 404 183 264 q 247 422 225 421 q 272 423 264 428 q 294 396 281 418 q 291 321 315 375 q 261 238 267 267 q 230 150 240 192 q 211 94 219 108 q 188 28 199 38 q 158 40 178 18 q 135 89 138 61 q 142 133 132 117 z "},"":{"ha":260,"x_min":132,"x_max":514,"o":"m 451 813 q 508 774 475 826 q 489 735 514 760 q 427 680 464 710 q 379 635 390 650 q 358 608 365 611 q 333 617 350 606 q 319 644 324 625 q 316 673 314 663 q 375 744 318 683 q 451 813 432 806 m 142 133 l 147 163 q 158 208 146 171 q 225 404 183 264 q 247 422 225 421 q 272 423 264 428 q 294 396 281 418 q 291 321 315 375 q 261 238 267 267 q 230 150 240 192 q 211 94 219 108 q 188 28 199 38 q 158 40 178 18 q 135 89 138 61 q 142 133 132 117 z "},"":{"ha":260,"x_min":132,"x_max":472,"o":"m 163 627 q 161 631 163 627 q 161 647 158 635 q 174 672 164 660 q 230 725 183 685 q 303 779 276 765 q 346 776 329 801 q 408 718 368 758 q 460 661 447 678 q 454 619 472 644 q 397 638 435 592 q 322 711 369 671 q 253 658 299 697 q 196 615 208 619 q 176 615 183 611 q 163 627 168 619 m 142 133 l 147 163 q 158 208 146 171 q 225 404 183 264 q 247 422 225 421 q 272 423 264 428 q 294 396 281 418 q 291 321 315 375 q 261 238 267 267 q 230 150 240 192 q 211 94 219 108 q 188 28 199 38 q 158 40 178 18 q 135 89 138 61 q 142 133 132 117 z "},"":{"ha":260,"x_min":132,"x_max":486,"o":"m 233 733 q 273 747 256 756 q 297 715 290 738 q 306 681 308 694 q 283 643 303 668 q 201 649 236 579 q 197 669 194 663 q 225 725 210 713 l 233 733 m 411 733 q 451 747 433 756 q 475 715 468 738 q 483 681 486 694 q 461 643 481 668 q 379 649 414 579 q 375 669 372 663 q 403 725 388 713 l 411 733 m 142 133 l 147 163 q 158 208 146 171 q 225 404 183 264 q 247 422 225 421 q 272 423 264 428 q 294 396 281 418 q 291 321 315 375 q 261 238 267 267 q 230 150 240 192 q 211 94 219 108 q 188 28 199 38 q 158 40 178 18 q 135 89 138 61 q 142 133 132 117 z "},"":{"ha":485,"x_min":139,"x_max":646,"o":"m 463 328 q 465 388 468 349 q 450 432 461 428 q 363 407 408 456 q 233 189 293 343 q 246 92 208 117 q 379 168 285 65 q 463 328 429 235 m 460 647 l 410 635 q 360 636 382 635 q 316 642 331 626 q 299 663 301 657 q 304 676 296 669 q 367 703 315 686 q 428 721 403 711 q 386 783 411 753 q 354 811 375 794 q 325 842 333 828 q 336 861 324 847 q 381 878 360 885 q 408 865 403 872 q 439 839 414 871 q 501 744 489 772 q 550 756 536 753 q 567 759 564 758 q 578 760 571 760 q 590 760 586 761 q 599 758 593 760 q 621 747 606 757 q 640 708 646 726 q 604 694 635 689 q 573 685 599 694 q 531 674 547 676 q 553 425 567 558 q 442 133 535 242 q 406 97 421 108 q 346 52 390 85 q 250 17 301 19 q 196 39 226 13 q 147 138 139 93 q 146 169 151 150 q 142 181 139 176 q 147 186 146 185 q 152 201 156 188 q 162 254 149 214 q 194 325 175 294 q 233 390 206 350 q 285 449 261 429 q 382 515 336 500 q 441 528 428 529 q 465 517 454 528 q 479 507 476 507 q 460 647 479 588 z "},"":{"ha":625,"x_min":144,"x_max":750,"o":"m 717 647 q 611 596 625 596 q 589 597 597 596 q 576 600 581 599 q 561 607 571 601 q 549 614 551 613 q 533 624 546 615 q 519 635 521 633 q 489 660 517 636 q 447 683 461 683 q 415 660 432 683 q 383 635 397 636 q 369 613 381 617 q 346 626 356 615 q 338 649 336 636 q 361 693 339 663 q 425 744 383 724 q 472 744 443 751 q 516 724 501 736 q 542 699 531 711 q 558 684 554 688 q 572 674 563 681 q 586 667 581 668 q 652 689 608 664 q 712 720 696 714 q 739 714 728 726 q 749 691 750 701 q 738 667 747 681 q 717 647 728 653 m 497 396 q 543 411 531 411 q 584 386 556 411 q 618 344 613 361 q 623 312 618 329 q 626 244 628 294 q 615 189 625 194 q 622 182 615 182 l 622 175 q 620 149 607 175 q 646 111 633 124 q 656 84 658 99 q 631 64 653 69 q 554 115 576 64 q 543 183 546 144 q 545 229 540 221 q 549 274 550 238 q 537 316 549 311 q 503 307 525 321 q 271 146 339 204 q 228 85 253 126 q 217 78 224 78 q 176 93 203 71 q 144 131 146 126 q 153 182 144 142 q 168 233 163 222 q 182 251 174 233 q 196 278 190 269 q 232 374 200 299 q 269 485 264 428 q 272 495 268 490 q 282 500 276 500 q 334 488 307 524 q 356 416 361 451 q 311 315 351 381 q 292 263 292 268 q 369 315 347 300 q 429 360 381 328 q 497 396 478 392 z "},"":{"ha":490,"x_min":128,"x_max":560,"o":"m 419 825 q 478 741 446 815 q 512 654 511 667 q 503 628 513 642 q 483 613 494 615 q 460 606 467 601 q 446 635 454 610 q 414 686 440 646 q 374 799 354 775 q 419 825 407 828 m 460 324 q 467 384 468 346 q 456 428 467 422 q 364 407 417 450 q 226 196 294 347 q 231 99 197 126 q 368 168 272 64 q 460 324 428 236 m 192 333 q 408 517 285 488 q 451 524 438 525 q 483 501 464 522 q 530 468 515 488 q 549 411 544 449 q 476 183 560 303 q 417 113 444 138 q 343 61 389 89 q 235 21 289 25 q 181 47 211 21 q 136 150 128 101 l 139 182 q 135 193 132 189 q 140 199 139 197 q 146 212 149 199 q 157 263 143 225 q 192 333 171 301 z "},"":{"ha":490,"x_min":128,"x_max":661,"o":"m 599 813 q 656 774 622 826 q 636 735 661 760 q 574 680 611 710 q 526 635 538 650 q 505 608 513 611 q 481 617 497 606 q 466 644 471 625 q 463 673 461 663 q 522 744 465 683 q 599 813 579 806 m 460 324 q 467 384 468 346 q 456 428 467 422 q 364 407 417 450 q 226 196 294 347 q 231 99 197 126 q 368 168 272 64 q 460 324 428 236 m 192 333 q 408 517 285 488 q 451 524 438 525 q 483 501 464 522 q 530 468 515 488 q 549 411 544 449 q 476 183 560 303 q 417 113 444 138 q 343 61 389 89 q 235 21 289 25 q 181 47 211 21 q 136 150 128 101 l 139 182 q 135 193 132 189 q 140 199 139 197 q 146 212 149 199 q 157 263 143 225 q 192 333 171 301 z "},"":{"ha":490,"x_min":128,"x_max":619,"o":"m 310 627 q 308 631 310 627 q 308 647 306 635 q 321 672 311 660 q 377 725 331 685 q 450 779 424 765 q 493 776 476 801 q 555 718 515 758 q 607 661 594 678 q 601 619 619 644 q 544 638 582 592 q 469 711 517 671 q 401 658 446 697 q 343 615 356 619 q 323 615 331 611 q 310 627 315 619 m 460 324 q 467 384 468 346 q 456 428 467 422 q 364 407 417 450 q 226 196 294 347 q 231 99 197 126 q 368 168 272 64 q 460 324 428 236 m 192 333 q 408 517 285 488 q 451 524 438 525 q 483 501 464 522 q 530 468 515 488 q 549 411 544 449 q 476 183 560 303 q 417 113 444 138 q 343 61 389 89 q 235 21 289 25 q 181 47 211 21 q 136 150 128 101 l 139 182 q 135 193 132 189 q 140 199 139 197 q 146 212 149 199 q 157 263 143 225 q 192 333 171 301 z "},"":{"ha":490,"x_min":128,"x_max":682,"o":"m 649 647 q 543 596 557 596 q 521 597 529 596 q 508 600 513 599 q 493 607 503 601 q 481 614 483 613 q 465 624 478 615 q 451 635 453 633 q 421 660 449 636 q 378 683 393 683 q 347 660 364 683 q 315 635 329 636 q 306 613 313 617 q 297 614 299 610 q 276 627 285 618 q 269 649 268 636 q 293 693 271 663 q 357 744 315 724 q 404 744 375 751 q 448 724 433 736 q 474 699 463 711 q 490 684 486 688 q 503 674 494 681 q 517 667 513 668 q 584 689 540 664 q 644 720 628 714 q 671 714 660 726 q 681 691 682 701 q 669 667 679 681 q 649 647 660 653 m 460 324 q 467 384 468 346 q 456 428 467 422 q 364 407 417 450 q 226 196 294 347 q 231 99 197 126 q 368 168 272 64 q 460 324 428 236 m 192 333 q 408 517 285 488 q 451 524 438 525 q 483 501 464 522 q 530 468 515 488 q 549 411 544 449 q 476 183 560 303 q 417 113 444 138 q 343 61 389 89 q 235 21 289 25 q 181 47 211 21 q 136 150 128 101 l 139 182 q 135 193 132 189 q 140 199 139 197 q 146 212 149 199 q 157 263 143 225 q 192 333 171 301 z "},"":{"ha":490,"x_min":128,"x_max":633,"o":"m 381 733 q 420 747 403 756 q 444 715 438 738 q 453 681 456 694 q 431 643 450 668 q 349 649 383 579 q 344 669 342 663 q 372 725 357 713 l 381 733 m 558 733 q 598 747 581 756 q 622 715 615 738 q 631 681 633 694 q 608 643 628 668 q 526 649 561 579 q 522 669 519 663 q 550 725 535 713 l 558 733 m 460 324 q 467 384 468 346 q 456 428 467 422 q 364 407 417 450 q 226 196 294 347 q 231 99 197 126 q 368 168 272 64 q 460 324 428 236 m 192 333 q 408 517 285 488 q 451 524 438 525 q 483 501 464 522 q 530 468 515 488 q 549 411 544 449 q 476 183 560 303 q 417 113 444 138 q 343 61 389 89 q 235 21 289 25 q 181 47 211 21 q 136 150 128 101 l 139 182 q 135 193 132 189 q 140 199 139 197 q 146 212 149 199 q 157 263 143 225 q 192 333 171 301 z "},"":{"ha":619,"x_min":143,"x_max":668,"o":"m 464 592 q 526 565 496 614 q 533 522 538 538 q 503 474 529 506 q 428 456 465 424 q 410 490 411 469 q 411 513 408 511 q 437 537 422 514 q 451 574 451 560 q 464 592 450 589 m 339 147 q 401 121 371 169 q 408 77 413 93 q 378 29 404 61 q 303 11 340 -21 q 285 46 286 25 q 286 68 283 67 q 312 92 297 69 q 326 130 326 115 q 339 147 325 144 m 569 335 q 618 331 606 335 q 646 314 631 328 q 661 274 668 293 q 624 261 654 256 q 247 247 449 247 q 199 254 219 247 q 158 274 169 254 q 154 300 143 294 q 219 315 168 310 q 569 335 307 335 z "},"":{"ha":490,"x_min":69,"x_max":658,"o":"m 435 378 q 465 399 451 388 q 456 428 463 424 q 364 407 417 450 q 222 186 289 343 q 435 378 346 315 m 460 324 q 463 338 463 332 l 372 260 q 218 114 324 221 q 297 108 236 72 q 379 181 331 126 q 460 324 428 236 m 192 333 q 408 517 285 488 q 451 524 438 525 q 483 501 464 522 q 538 456 522 485 q 615 525 608 514 q 635 533 622 540 q 653 510 647 526 q 643 479 658 494 q 620 451 633 460 q 593 433 607 443 q 550 403 560 408 q 476 183 558 300 q 417 113 444 138 q 343 61 389 89 q 235 21 289 25 q 167 63 204 21 q 115 1 126 22 q 96 -21 103 -21 q 74 14 69 -14 q 115 78 79 42 l 142 103 q 136 150 132 126 l 139 182 q 135 193 132 189 q 140 199 139 197 q 146 212 149 199 q 157 263 143 225 q 192 333 171 301 z "},"":{"ha":514,"x_min":146,"x_max":597,"o":"m 389 828 q 449 744 417 818 q 483 657 482 669 q 474 631 483 644 q 454 615 465 618 q 431 608 438 604 q 417 638 425 613 q 383 689 411 649 q 344 801 325 778 q 389 828 378 831 m 418 129 l 418 156 q 388 118 410 135 q 324 71 356 86 q 247 39 275 40 q 192 69 219 38 q 160 171 146 107 q 219 390 164 268 q 283 507 264 478 q 335 479 328 522 q 297 350 351 453 q 260 135 214 153 q 303 136 275 125 q 374 197 332 147 q 444 311 417 246 q 475 426 471 376 q 499 479 468 461 q 513 492 504 488 q 526 492 522 497 l 549 493 q 557 485 553 493 q 565 474 561 476 q 535 303 597 447 q 490 158 490 210 q 529 72 489 107 q 547 21 550 58 q 517 -5 542 1 q 471 3 492 -11 q 421 97 438 35 q 418 129 418 106 z "},"":{"ha":514,"x_min":146,"x_max":613,"o":"m 550 808 q 607 769 574 822 q 588 731 613 756 q 526 676 563 706 q 478 631 489 646 q 456 604 464 607 q 432 613 449 601 q 417 640 422 621 q 415 669 413 658 q 474 740 417 679 q 550 808 531 801 m 418 129 l 418 156 q 388 118 410 135 q 324 71 356 86 q 247 39 275 40 q 192 69 219 38 q 160 171 146 107 q 219 390 164 268 q 283 507 264 478 q 335 479 328 522 q 297 350 351 453 q 260 135 214 153 q 303 136 275 125 q 374 197 332 147 q 444 311 417 246 q 475 426 471 376 q 499 479 468 461 q 513 492 504 488 q 526 492 522 497 l 549 493 q 557 485 553 493 q 565 474 561 476 q 535 303 597 447 q 490 158 490 210 q 529 72 489 107 q 547 21 550 58 q 517 -5 542 1 q 471 3 492 -11 q 421 97 438 35 q 418 129 418 106 z "},"":{"ha":514,"x_min":146,"x_max":633,"o":"m 324 627 q 322 631 324 627 q 322 647 319 635 q 335 672 325 660 q 391 725 344 685 q 464 779 438 765 q 507 776 490 801 q 569 718 529 758 q 621 661 608 678 q 615 619 633 644 q 558 638 596 592 q 483 711 531 671 q 415 658 460 697 q 357 615 369 619 q 337 615 344 611 q 324 627 329 619 m 418 129 l 418 156 q 388 118 410 135 q 324 71 356 86 q 247 39 275 40 q 192 69 219 38 q 160 171 146 107 q 219 390 164 268 q 283 507 264 478 q 335 479 328 522 q 297 350 351 453 q 260 135 214 153 q 303 136 275 125 q 374 197 332 147 q 444 311 417 246 q 475 426 471 376 q 499 479 468 461 q 513 492 504 488 q 526 492 522 497 l 549 493 q 557 485 553 493 q 565 474 561 476 q 535 303 597 447 q 490 158 490 210 q 529 72 489 107 q 547 21 550 58 q 517 -5 542 1 q 471 3 492 -11 q 421 97 438 35 q 418 129 418 106 z "},"":{"ha":514,"x_min":146,"x_max":647,"o":"m 394 733 q 434 747 417 756 q 458 715 451 738 q 467 681 469 694 q 444 643 464 668 q 363 649 397 579 q 358 669 356 663 q 386 725 371 713 l 394 733 m 572 733 q 612 747 594 756 q 636 715 629 738 q 644 681 647 694 q 622 643 642 668 q 540 649 575 579 q 536 669 533 663 q 564 725 549 713 l 572 733 m 418 129 l 418 156 q 388 118 410 135 q 324 71 356 86 q 247 39 275 40 q 192 69 219 38 q 160 171 146 107 q 219 390 164 268 q 283 507 264 478 q 335 479 328 522 q 297 350 351 453 q 260 135 214 153 q 303 136 275 125 q 374 197 332 147 q 444 311 417 246 q 475 426 471 376 q 499 479 468 461 q 513 492 504 488 q 526 492 522 497 l 549 493 q 557 485 553 493 q 565 474 561 476 q 535 303 597 447 q 490 158 490 210 q 529 72 489 107 q 547 21 550 58 q 517 -5 542 1 q 471 3 492 -11 q 421 97 438 35 q 418 129 418 106 z "},"":{"ha":474,"x_min":-69,"x_max":604,"o":"m 542 813 q 599 774 565 826 q 579 735 604 760 q 517 680 554 710 q 469 635 481 650 q 448 608 456 611 q 424 617 440 606 q 409 644 414 625 q 406 673 404 663 q 465 744 408 683 q 542 813 522 806 m 507 511 q 524 521 519 521 q 544 513 529 521 q 567 461 569 485 q 533 379 564 438 q 489 283 508 306 q 406 104 443 178 q 353 -12 369 31 q 228 -197 264 -154 q 106 -278 151 -265 q 0 -271 60 -292 q -67 -215 -60 -250 q -55 -189 -69 -201 q -31 -189 -40 -176 q 189 -115 81 -264 q 290 58 260 1 q 238 107 263 67 q 217 165 213 147 l 217 181 q 194 253 201 181 q 190 365 186 326 q 199 494 193 403 q 214 536 197 525 q 272 485 264 557 q 272 379 276 447 q 321 117 258 163 q 360 205 349 182 q 374 235 372 228 q 381 253 375 243 q 408 308 386 264 q 453 427 444 413 q 466 452 461 442 q 474 468 471 463 q 481 481 476 474 q 488 493 485 489 q 494 501 490 497 q 507 511 500 508 z "},"":{"ha":525,"x_min":40,"x_max":576,"o":"m 478 368 q 406 376 458 394 q 269 250 313 344 q 253 153 228 163 q 337 174 274 153 q 433 224 400 196 q 481 289 465 251 q 478 368 497 326 m 110 -8 l 119 42 q 174 219 126 79 q 257 453 226 378 l 257 454 q 337 669 281 504 q 393 854 393 835 q 415 874 393 874 q 438 881 422 881 l 460 858 q 475 807 475 844 q 437 697 468 789 q 376 526 406 604 l 347 433 q 517 444 458 478 q 576 326 576 410 q 562 266 576 301 q 533 218 547 231 q 511 189 525 218 q 451 142 493 167 q 393 124 410 118 q 386 115 386 124 q 334 92 386 106 q 257 79 282 79 q 219 90 232 79 q 210 69 210 81 q 196 17 210 57 q 174 -24 182 -24 q 174 -39 165 -31 q 165 -82 174 -68 q 151 -149 165 -118 q 147 -181 151 -165 q 136 -197 142 -197 q 127 -236 128 -200 q 114 -292 126 -272 q 85 -311 101 -311 q 78 -312 83 -311 q 71 -311 74 -312 q 56 -229 40 -304 q 71 -149 71 -171 l 78 -104 q 93 -39 93 -79 q 110 -8 93 -22 z "},"":{"ha":474,"x_min":-69,"x_max":576,"o":"m 501 733 q 541 747 524 756 q 565 715 558 738 q 574 681 576 694 q 551 643 571 668 q 469 649 504 579 q 465 669 463 663 q 493 725 478 713 l 501 733 m 324 733 q 363 747 346 756 q 388 715 381 738 q 396 681 399 694 q 374 643 393 668 q 292 649 326 579 q 288 669 285 663 q 315 725 300 713 l 324 733 m 507 511 q 524 521 519 521 q 544 513 529 521 q 567 461 569 485 q 533 379 564 438 q 489 283 508 306 q 406 104 443 178 q 353 -12 369 31 q 228 -197 264 -154 q 106 -278 151 -265 q 0 -271 60 -292 q -67 -215 -60 -250 q -55 -189 -69 -201 q -31 -189 -40 -176 q 189 -115 81 -264 q 290 58 260 1 q 238 107 263 67 q 217 165 213 147 l 217 181 q 194 253 201 181 q 190 365 186 326 q 199 494 193 403 q 214 536 197 525 q 272 485 264 557 q 272 379 276 447 q 321 117 258 163 q 360 205 349 182 q 374 235 372 228 q 381 253 375 243 q 408 308 386 264 q 453 427 444 413 q 466 452 461 442 q 474 468 471 463 q 481 481 476 474 q 488 493 485 489 q 494 501 490 497 q 507 511 500 508 z "},"":{"ha":697,"x_min":65,"x_max":919,"o":"m 767 1064 l 625 1058 q 581 1064 597 1058 q 539 1083 550 1064 q 538 1109 528 1101 q 622 1127 549 1117 q 787 1138 696 1138 q 900 1121 878 1138 q 913 1083 919 1100 q 878 1068 907 1065 q 767 1064 836 1064 m 622 424 l 625 424 q 642 575 628 432 q 663 833 653 682 q 597 764 649 833 q 504 615 544 694 q 458 547 467 547 q 413 472 449 538 q 383 401 376 407 q 469 414 435 413 q 576 436 553 433 q 610 433 600 439 q 622 424 617 424 m 746 847 q 747 824 747 839 q 747 793 747 808 q 744 754 746 778 q 740 713 742 731 q 736 667 739 696 q 732 615 733 638 q 715 447 731 593 q 692 21 685 147 q 692 -4 693 11 q 690 -21 690 -19 q 644 -26 678 -35 q 607 1 611 -18 q 600 13 600 7 q 606 125 600 19 l 613 350 l 594 349 q 471 338 567 349 q 351 319 375 326 q 289 260 322 319 q 267 216 281 239 q 254 190 254 193 l 232 164 q 203 86 232 149 q 118 -62 176 26 l 96 -46 q 69 -22 74 -35 q 77 20 65 -8 q 115 98 89 49 q 187 237 140 147 q 233 340 233 326 q 254 374 228 361 q 307 442 286 406 q 453 700 324 481 q 585 900 504 792 q 640 942 617 943 q 697 917 664 942 q 746 847 740 885 z "},"":{"ha":607,"x_min":96,"x_max":718,"o":"m 593 646 l 479 640 q 435 646 451 640 q 393 665 404 646 q 392 691 382 683 q 476 709 403 699 q 613 719 550 719 q 699 703 676 719 q 712 665 718 682 q 676 650 706 647 q 593 646 635 646 m 496 396 q 440 451 471 451 q 347 378 410 451 q 233 207 285 306 l 199 128 q 234 130 199 113 q 293 167 269 147 q 465 346 413 269 l 496 396 m 149 50 q 135 67 144 58 q 126 85 126 76 q 119 103 126 94 q 194 307 96 126 q 216 336 203 315 q 233 360 229 357 q 238 370 233 365 q 247 375 242 375 l 247 383 q 293 444 247 396 q 482 519 415 572 q 597 414 490 508 l 572 344 q 590 175 542 254 q 618 146 597 160 q 660 129 639 132 q 690 97 690 124 q 665 65 690 71 q 507 179 572 53 q 482 240 488 206 q 438 188 461 211 q 149 50 242 -10 z "},"":{"ha":697,"x_min":65,"x_max":917,"o":"m 897 1144 q 836 1021 917 1100 q 715 974 782 968 q 615 1019 647 979 q 592 1113 582 1060 q 628 1174 601 1167 q 660 1154 656 1181 q 655 1121 661 1144 q 665 1065 649 1097 q 736 1035 681 1033 q 790 1067 760 1036 q 838 1129 821 1099 q 872 1161 856 1160 q 897 1144 889 1163 m 622 424 l 625 424 q 642 575 628 432 q 663 833 653 682 q 597 764 649 833 q 504 615 544 694 q 458 547 467 547 q 413 472 449 538 q 383 401 376 407 q 469 414 435 413 q 576 436 553 433 q 610 433 600 439 q 622 424 617 424 m 746 847 q 747 824 747 839 q 747 793 747 808 q 744 754 746 778 q 740 713 742 731 q 736 667 739 696 q 732 615 733 638 q 715 447 731 593 q 692 21 685 147 q 692 -4 693 11 q 690 -21 690 -19 q 644 -26 678 -35 q 607 1 611 -18 q 600 13 600 7 q 606 125 600 19 l 613 350 l 594 349 q 471 338 567 349 q 351 319 375 326 q 289 260 322 319 q 267 216 281 239 q 254 190 254 193 l 232 164 q 203 86 232 149 q 118 -62 176 26 l 96 -46 q 69 -22 74 -35 q 77 20 65 -8 q 115 98 89 49 q 187 237 140 147 q 233 340 233 326 q 254 374 228 361 q 307 442 286 406 q 453 700 324 481 q 585 900 504 792 q 640 942 617 943 q 697 917 664 942 q 746 847 740 885 z "},"":{"ha":607,"x_min":96,"x_max":726,"o":"m 706 778 q 644 654 726 733 q 524 607 592 601 q 424 653 457 613 q 401 747 392 693 q 438 807 411 800 q 469 788 465 814 q 465 754 471 778 q 474 699 458 731 q 546 668 490 667 q 600 701 569 669 q 648 763 631 732 q 682 794 665 793 q 706 778 699 796 m 496 396 q 440 451 471 451 q 347 378 410 451 q 233 207 285 306 l 199 128 q 234 130 199 113 q 293 167 269 147 q 465 346 413 269 l 496 396 m 149 50 q 135 67 144 58 q 126 85 126 76 q 119 103 126 94 q 194 307 96 126 q 216 336 203 315 q 233 360 229 357 q 238 370 233 365 q 247 375 242 375 l 247 383 q 293 444 247 396 q 482 519 415 572 q 597 414 490 508 l 572 344 q 590 175 542 254 q 618 146 597 160 q 660 129 639 132 q 690 97 690 124 q 665 65 690 71 q 507 179 572 53 q 482 240 488 206 q 438 188 461 211 q 149 50 242 -10 z "},"":{"ha":697,"x_min":65,"x_max":747,"o":"m 622 424 l 625 424 q 642 575 628 432 q 663 833 653 682 q 597 764 649 833 q 504 615 544 694 q 458 547 467 547 q 413 472 449 538 q 383 401 376 407 q 469 414 435 413 q 576 436 553 433 q 610 433 600 439 q 622 424 617 424 m 746 847 q 747 824 747 839 q 747 793 747 808 q 744 754 746 778 q 740 713 742 731 q 736 667 739 696 q 732 615 733 638 q 715 447 731 593 q 692 21 685 147 l 692 0 l 693 -1 l 692 -1 q 690 -21 690 -10 q 653 -28 679 -32 q 528 -201 494 -149 q 553 -210 532 -210 q 615 -186 581 -206 q 664 -160 650 -167 q 703 -168 696 -143 q 676 -214 713 -197 q 644 -228 672 -215 q 539 -268 575 -262 q 475 -216 496 -257 q 472 -135 454 -175 q 601 4 504 -68 l 613 350 l 594 349 q 471 338 567 349 q 351 319 375 326 q 289 260 322 319 q 267 216 281 239 q 254 190 254 193 l 232 164 q 203 86 232 149 q 118 -62 176 26 l 96 -46 q 69 -22 74 -35 q 77 20 65 -8 q 115 98 89 49 q 187 237 140 147 q 233 340 233 326 q 254 374 228 361 q 307 442 286 406 q 453 700 324 481 q 585 900 504 792 q 640 942 617 943 q 697 917 664 942 q 746 847 740 885 z "},"":{"ha":607,"x_min":96,"x_max":692,"o":"m 496 396 q 440 451 471 451 q 347 378 410 451 q 233 207 285 306 l 199 128 q 234 130 199 113 q 293 167 269 147 q 465 346 413 269 l 496 396 m 690 99 q 650 64 690 64 q 532 -40 575 13 q 507 -122 489 -93 q 532 -131 511 -131 q 594 -107 560 -126 q 643 -81 629 -87 q 682 -89 675 -64 q 656 -135 692 -118 q 625 -150 651 -136 q 518 -189 554 -183 q 454 -137 475 -178 q 451 -56 433 -96 q 582 85 481 8 q 507 179 540 111 q 482 240 488 206 q 438 188 461 211 q 149 50 242 -10 q 135 67 144 58 q 126 85 126 76 q 119 103 126 94 q 194 307 96 126 q 216 336 203 315 q 233 360 229 357 q 238 370 233 365 q 247 375 242 375 l 247 383 q 293 444 247 396 q 482 519 415 572 q 597 414 490 508 l 572 344 q 590 175 542 254 q 618 146 597 160 q 660 129 639 132 q 690 99 690 124 z "},"":{"ha":669,"x_min":169,"x_max":835,"o":"m 772 1188 q 829 1149 796 1201 q 810 1110 835 1135 q 748 1055 785 1085 q 700 1010 711 1025 q 678 983 686 986 q 654 992 671 981 q 640 1019 644 1000 q 637 1048 635 1038 q 696 1119 639 1058 q 772 1188 753 1181 m 693 131 q 617 44 693 90 q 550 1 589 17 q 429 -62 499 -36 q 311 -78 360 -89 q 267 -60 282 -67 q 231 -31 251 -53 q 174 190 169 29 q 217 425 174 314 q 236 471 218 428 q 269 549 254 514 q 344 669 285 583 q 492 849 429 800 q 592 921 515 868 q 694 941 638 954 q 775 878 751 928 q 778 722 806 819 q 692 569 750 624 q 659 557 671 554 q 625 579 647 560 q 611 611 608 610 q 617 613 614 613 q 653 672 629 628 q 686 740 678 715 q 694 780 690 768 q 699 802 697 792 q 701 817 700 813 q 702 828 701 822 q 702 839 703 835 q 700 847 701 843 q 691 862 700 853 q 643 850 682 871 q 558 788 610 836 q 465 682 507 739 q 315 435 344 524 l 300 399 q 283 335 304 376 q 266 138 260 238 q 304 7 272 38 q 456 31 339 -18 q 525 58 475 38 q 610 111 575 79 q 668 138 646 138 q 690 143 686 144 q 693 131 693 142 z "},"":{"ha":493,"x_min":138,"x_max":660,"o":"m 597 813 q 654 774 621 826 q 635 735 660 760 q 573 680 610 710 q 525 635 536 650 q 503 608 511 611 q 479 617 496 606 q 465 644 469 625 q 462 673 460 663 q 521 744 464 683 q 597 813 578 806 m 519 392 q 501 346 514 365 q 474 326 488 326 q 460 318 460 326 q 444 315 460 306 q 426 335 428 325 q 426 353 424 344 q 433 376 428 361 q 401 458 468 486 q 231 178 286 393 q 224 119 219 139 q 231 97 228 99 q 283 95 250 92 q 347 115 317 99 q 404 151 376 131 q 446 184 432 172 q 468 200 460 196 q 490 221 481 219 q 513 222 499 222 q 547 199 546 211 q 542 193 547 196 l 535 186 q 486 125 540 175 q 417 75 432 75 q 401 67 401 75 q 359 41 401 61 q 290 15 317 21 q 185 36 228 4 q 143 133 143 68 q 170 285 138 194 q 263 448 203 375 q 356 534 324 521 q 424 547 388 547 q 473 526 449 542 q 497 496 497 511 l 504 489 q 524 451 517 489 q 519 392 531 414 z "},"":{"ha":669,"x_min":169,"x_max":889,"o":"m 580 1008 q 577 1011 580 1008 q 578 1028 575 1015 q 590 1053 581 1040 q 647 1106 600 1065 q 719 1160 693 1146 q 763 1157 746 1182 q 824 1099 785 1139 q 876 1042 864 1058 q 871 1000 889 1025 q 814 1018 851 972 q 739 1092 786 1051 q 670 1039 715 1078 q 613 996 625 1000 q 592 996 600 992 q 580 1008 585 1000 m 693 131 q 617 44 693 90 q 550 1 589 17 q 429 -62 499 -36 q 311 -78 360 -89 q 267 -60 282 -67 q 231 -31 251 -53 q 174 190 169 29 q 217 425 174 314 q 236 471 218 428 q 269 549 254 514 q 344 669 285 583 q 492 849 429 800 q 592 921 515 868 q 694 941 638 954 q 775 878 751 928 q 778 722 806 819 q 692 569 750 624 q 659 557 671 554 q 625 579 647 560 q 611 611 608 610 q 617 613 614 613 q 653 672 629 628 q 686 740 678 715 q 694 780 690 768 q 699 802 697 792 q 701 817 700 813 q 702 828 701 822 q 702 839 703 835 q 700 847 701 843 q 691 862 700 853 q 643 850 682 871 q 558 788 610 836 q 465 682 507 739 q 315 435 344 524 l 300 399 q 283 335 304 376 q 266 138 260 238 q 304 7 272 38 q 456 31 339 -18 q 525 58 475 38 q 610 111 575 79 q 668 138 646 138 q 690 143 686 144 q 693 131 693 142 z "},"":{"ha":493,"x_min":138,"x_max":618,"o":"m 309 627 q 307 631 309 627 q 307 647 304 635 q 319 672 310 660 q 376 725 329 685 q 449 779 422 765 q 492 776 475 801 q 553 718 514 758 q 606 661 593 678 q 600 619 618 644 q 543 638 581 592 q 468 711 515 671 q 399 658 444 697 q 342 615 354 619 q 322 615 329 611 q 309 627 314 619 m 519 392 q 501 346 514 365 q 474 326 488 326 q 460 318 460 326 q 444 315 460 306 q 426 335 428 325 q 426 353 424 344 q 433 376 428 361 q 401 458 468 486 q 231 178 286 393 q 224 119 219 139 q 231 97 228 99 q 283 95 250 92 q 347 115 317 99 q 404 151 376 131 q 446 184 432 172 q 468 200 460 196 q 490 221 481 219 q 513 222 499 222 q 547 199 546 211 q 542 193 547 196 l 535 186 q 486 125 540 175 q 417 75 432 75 q 401 67 401 75 q 359 41 401 61 q 290 15 317 21 q 185 36 228 4 q 143 133 143 68 q 170 285 138 194 q 263 448 203 375 q 356 534 324 521 q 424 547 388 547 q 473 526 449 542 q 497 496 497 511 l 504 489 q 524 451 517 489 q 519 392 531 414 z "},"":{"ha":669,"x_min":169,"x_max":806,"o":"m 704 1153 q 778 1135 743 1192 q 785 1091 789 1107 q 754 1043 781 1075 q 679 1025 717 993 q 663 1053 669 1033 q 658 1079 656 1072 q 696 1144 671 1122 q 704 1153 696 1144 m 693 131 q 617 44 693 90 q 550 1 589 17 q 429 -62 499 -36 q 311 -78 360 -89 q 267 -60 282 -67 q 231 -31 251 -53 q 174 190 169 29 q 217 425 174 314 q 236 471 218 428 q 269 549 254 514 q 344 669 285 583 q 492 849 429 800 q 592 921 515 868 q 694 941 638 954 q 775 878 751 928 q 778 722 806 819 q 692 569 750 624 q 659 557 671 554 q 625 579 647 560 q 611 611 608 610 q 617 613 614 613 q 653 672 629 628 q 686 740 678 715 q 694 780 690 768 q 699 802 697 792 q 701 817 700 813 q 702 828 701 822 q 702 839 703 835 q 700 847 701 843 q 691 862 700 853 q 643 850 682 871 q 558 788 610 836 q 465 682 507 739 q 315 435 344 524 l 300 399 q 283 335 304 376 q 266 138 260 238 q 304 7 272 38 q 456 31 339 -18 q 525 58 475 38 q 610 111 575 79 q 668 138 646 138 q 690 143 686 144 q 693 131 693 142 z "},"":{"ha":493,"x_min":138,"x_max":578,"o":"m 493 736 q 567 718 532 775 q 574 674 578 690 q 543 626 569 658 q 468 608 506 576 q 451 636 458 617 q 447 663 444 656 q 485 728 460 706 q 493 736 485 728 m 519 392 q 501 346 514 365 q 474 326 488 326 q 460 318 460 326 q 444 315 460 306 q 426 335 428 325 q 426 353 424 344 q 433 376 428 361 q 401 458 468 486 q 231 178 286 393 q 224 119 219 139 q 231 97 228 99 q 283 95 250 92 q 347 115 317 99 q 404 151 376 131 q 446 184 432 172 q 468 200 460 196 q 490 221 481 219 q 513 222 499 222 q 547 199 546 211 q 542 193 547 196 l 535 186 q 486 125 540 175 q 417 75 432 75 q 401 67 401 75 q 359 41 401 61 q 290 15 317 21 q 185 36 228 4 q 143 133 143 68 q 170 285 138 194 q 263 448 203 375 q 356 534 324 521 q 424 547 388 547 q 473 526 449 542 q 497 496 497 511 l 504 489 q 524 451 517 489 q 519 392 531 414 z "},"":{"ha":669,"x_min":169,"x_max":874,"o":"m 870 1145 q 872 1141 870 1145 q 873 1128 874 1138 q 869 1109 872 1119 q 810 1056 865 1099 q 724 997 754 1014 q 682 1000 699 979 q 616 1062 658 1021 q 569 1110 574 1103 q 578 1153 560 1135 q 628 1139 596 1172 q 706 1068 635 1129 q 797 1128 769 1106 q 838 1155 824 1150 q 859 1156 851 1160 q 870 1145 867 1153 m 693 131 q 617 44 693 90 q 550 1 589 17 q 429 -62 499 -36 q 311 -78 360 -89 q 267 -60 282 -67 q 231 -31 251 -53 q 174 190 169 29 q 217 425 174 314 q 236 471 218 428 q 269 549 254 514 q 344 669 285 583 q 492 849 429 800 q 592 921 515 868 q 694 941 638 954 q 775 878 751 928 q 778 722 806 819 q 692 569 750 624 q 659 557 671 554 q 625 579 647 560 q 611 611 608 610 q 617 613 614 613 q 653 672 629 628 q 686 740 678 715 q 694 780 690 768 q 699 802 697 792 q 701 817 700 813 q 702 828 701 822 q 702 839 703 835 q 700 847 701 843 q 691 862 700 853 q 643 850 682 871 q 558 788 610 836 q 465 682 507 739 q 315 435 344 524 l 300 399 q 283 335 304 376 q 266 138 260 238 q 304 7 272 38 q 456 31 339 -18 q 525 58 475 38 q 610 111 575 79 q 668 138 646 138 q 690 143 686 144 q 693 131 693 142 z "},"":{"ha":493,"x_min":138,"x_max":651,"o":"m 648 770 q 650 766 648 770 q 651 753 651 763 q 647 734 650 744 q 588 681 643 724 q 501 622 532 639 q 460 625 476 604 q 394 687 436 646 q 347 735 351 728 q 356 778 338 760 q 406 764 374 797 q 483 693 413 754 q 574 753 547 731 q 615 780 601 775 q 637 781 629 785 q 648 770 644 778 m 519 392 q 501 346 514 365 q 474 326 488 326 q 460 318 460 326 q 444 315 460 306 q 426 335 428 325 q 426 353 424 344 q 433 376 428 361 q 401 458 468 486 q 231 178 286 393 q 224 119 219 139 q 231 97 228 99 q 283 95 250 92 q 347 115 317 99 q 404 151 376 131 q 446 184 432 172 q 468 200 460 196 q 490 221 481 219 q 513 222 499 222 q 547 199 546 211 q 542 193 547 196 l 535 186 q 486 125 540 175 q 417 75 432 75 q 401 67 401 75 q 359 41 401 61 q 290 15 317 21 q 185 36 228 4 q 143 133 143 68 q 170 285 138 194 q 263 448 203 375 q 356 534 324 521 q 424 547 388 547 q 473 526 449 542 q 497 496 497 511 l 504 489 q 524 451 517 489 q 519 392 531 414 z "},"":{"ha":803,"x_min":101,"x_max":940,"o":"m 937 1145 q 939 1141 937 1145 q 940 1128 940 1138 q 935 1109 939 1119 q 876 1056 932 1099 q 790 997 821 1014 q 749 1000 765 979 q 683 1062 725 1021 q 636 1110 640 1103 q 644 1153 626 1135 q 694 1139 663 1172 q 772 1068 701 1129 q 863 1128 836 1106 q 904 1155 890 1150 q 926 1156 918 1160 q 937 1145 933 1153 m 301 939 q 374 968 304 956 q 487 977 444 981 q 549 969 529 974 q 580 960 568 964 q 615 947 592 956 q 650 933 639 938 q 794 827 721 906 q 889 663 868 749 q 901 585 897 632 q 894 519 904 538 q 897 496 885 500 q 885 460 894 490 q 872 418 876 429 q 794 213 864 331 q 785 207 786 211 q 769 181 785 200 q 752 160 765 178 q 733 139 739 143 q 725 123 732 129 q 713 117 718 117 q 708 111 713 113 q 617 22 683 75 q 500 -53 551 -31 q 442 -82 493 -58 q 385 -109 431 -92 q 297 -134 340 -126 q 199 -126 253 -142 q 168 -111 178 -122 q 156 -98 158 -100 q 148 -87 154 -96 q 138 -74 142 -78 q 115 -1 101 -22 q 163 -25 128 19 q 283 -54 201 -65 q 426 -1 381 -36 l 589 107 q 618 124 592 114 q 661 166 625 129 q 703 207 697 203 q 708 226 704 214 q 711 243 711 238 q 761 330 728 261 q 807 449 794 399 q 805 666 833 583 q 703 813 776 749 q 606 865 674 836 q 531 890 539 893 q 512 861 524 888 q 481 784 500 835 q 445 687 463 733 q 402 569 428 640 q 363 460 376 497 q 346 406 357 438 q 321 325 321 332 q 276 133 296 288 q 260 69 263 78 q 256 55 258 60 q 253 46 254 50 q 247 39 250 39 l 242 33 q 217 26 242 17 q 182 46 192 36 q 188 129 172 78 q 245 329 213 233 q 306 524 278 425 q 357 664 335 622 q 414 821 403 794 l 424 867 l 408 874 q 371 874 383 865 q 333 885 357 869 q 306 915 308 901 l 301 939 z "},"":{"ha":638,"x_min":100,"x_max":915,"o":"m 847 672 q 815 639 821 639 q 799 629 808 639 q 765 619 789 619 q 739 621 742 619 q 731 633 736 622 q 750 664 731 647 q 824 774 825 739 q 846 839 821 819 q 901 829 871 858 q 847 672 915 753 m 268 128 q 385 200 310 138 q 401 213 389 203 q 418 228 414 222 q 431 244 422 233 q 443 263 439 254 q 429 381 481 336 q 384 390 415 394 q 325 360 353 386 q 214 151 242 285 q 268 128 208 115 m 503 -26 q 456 4 468 -35 q 438 142 431 75 l 440 171 l 386 128 q 218 50 299 50 q 153 236 100 71 q 233 379 182 322 q 436 449 324 514 q 481 435 471 432 q 501 483 490 438 q 633 843 539 643 q 681 889 656 892 q 728 847 711 889 q 724 801 738 825 q 635 597 688 739 q 560 374 582 456 q 528 179 538 293 q 526 31 518 65 q 531 -13 535 -3 q 503 -26 526 -24 z "},"":{"ha":803,"x_min":101,"x_max":904,"o":"m 397 488 q 469 471 447 488 q 483 433 489 450 q 447 418 476 415 q 380 414 406 414 q 347 413 354 414 q 321 325 321 328 q 276 133 296 288 q 260 69 263 78 q 256 55 258 60 q 253 46 254 50 q 247 39 250 39 l 242 33 q 217 26 242 17 q 182 46 192 36 q 188 129 172 78 q 240 318 213 233 q 271 408 268 403 l 250 408 q 206 414 222 408 q 164 433 175 414 q 163 459 153 451 q 222 472 174 467 l 293 482 l 296 490 q 357 664 335 622 q 414 821 403 794 l 424 867 l 408 874 q 371 874 383 865 q 333 885 357 869 q 306 915 308 901 l 301 939 q 374 968 304 956 q 487 977 444 981 q 549 969 529 974 q 580 960 568 964 q 615 947 592 956 q 650 933 639 938 q 794 827 721 906 q 889 663 868 749 q 901 585 897 632 q 894 519 904 538 q 897 496 885 500 q 885 460 894 490 q 872 418 876 429 q 794 213 864 331 q 785 207 786 211 q 769 181 785 200 q 752 160 765 178 q 733 139 739 143 q 725 123 732 129 q 713 117 718 117 q 708 111 713 113 q 617 22 683 75 q 500 -53 551 -31 q 442 -82 493 -58 q 385 -109 431 -92 q 297 -134 340 -126 q 199 -126 253 -142 q 168 -111 178 -122 q 156 -98 158 -100 q 148 -87 154 -96 q 138 -74 142 -78 q 115 -1 101 -22 q 163 -25 128 19 q 283 -54 201 -65 q 426 -1 381 -36 l 589 107 q 618 124 592 114 q 661 166 625 129 q 703 207 697 203 q 708 226 704 214 q 711 243 711 238 q 761 330 728 261 q 807 449 794 399 q 805 666 833 583 q 703 813 776 749 q 606 865 674 836 q 531 890 539 893 q 513 865 524 888 q 484 792 503 842 q 451 704 465 743 q 410 592 436 665 q 372 488 383 518 l 397 488 z "},"":{"ha":546,"x_min":100,"x_max":764,"o":"m 268 128 q 385 200 310 138 q 401 213 389 203 q 418 228 414 222 q 431 244 422 233 q 443 263 439 254 q 429 381 481 336 q 384 390 415 394 q 325 360 353 386 q 214 151 242 285 q 268 128 208 115 m 510 647 q 461 654 482 647 q 421 674 432 654 q 417 700 406 694 q 482 715 431 710 q 583 732 539 728 q 632 841 608 790 q 681 889 656 892 q 728 847 711 889 q 719 791 738 825 q 690 735 700 757 q 742 713 721 733 q 757 674 764 693 q 719 661 750 656 l 657 656 q 553 351 589 483 q 528 179 538 293 q 526 31 518 65 q 531 -13 535 -3 q 503 -26 526 -24 q 456 4 468 -35 q 438 142 431 75 l 440 171 l 386 128 q 218 50 299 50 q 153 236 100 71 q 233 379 182 322 q 436 449 324 514 q 481 435 471 432 q 501 483 490 438 q 551 647 518 554 l 510 647 z "},"":{"ha":761,"x_min":118,"x_max":950,"o":"m 797 1064 l 656 1058 q 611 1064 628 1058 q 569 1083 581 1064 q 569 1109 558 1101 q 653 1127 579 1117 q 817 1138 726 1138 q 931 1121 908 1138 q 944 1083 950 1100 q 908 1068 938 1065 q 797 1064 867 1064 m 325 56 l 381 51 q 439 63 414 51 q 622 113 586 88 q 647 119 638 119 q 647 115 644 115 q 672 139 653 118 q 743 180 708 169 q 779 185 778 190 q 759 119 792 163 q 661 39 726 75 q 347 -33 532 -31 q 286 -17 310 -31 q 203 42 236 15 q 150 267 118 126 q 185 378 164 335 q 319 614 215 451 l 328 625 q 368 711 328 635 q 388 769 403 749 q 421 810 381 781 q 492 857 461 839 q 556 885 524 882 q 593 872 589 889 q 640 876 606 868 q 685 885 674 883 q 778 907 694 897 l 854 910 q 901 876 882 919 q 894 838 911 850 q 767 811 878 825 q 603 786 657 797 q 526 758 550 775 q 471 694 501 742 q 415 600 458 686 q 325 460 318 468 q 361 451 354 451 q 428 467 372 457 q 678 528 649 524 q 746 503 718 551 q 719 457 760 474 q 538 402 679 440 q 351 361 397 364 q 300 385 304 358 q 278 370 290 389 q 256 320 265 351 q 238 253 246 289 q 231 138 219 172 q 262 86 243 104 q 325 56 281 68 z "},"":{"ha":451,"x_min":139,"x_max":638,"o":"m 513 646 l 399 640 q 354 646 371 640 q 313 665 324 646 q 312 691 301 683 q 396 709 322 699 q 533 719 469 719 q 618 703 596 719 q 631 665 638 682 q 596 650 625 647 q 513 646 554 646 m 382 343 q 394 348 382 343 q 430 378 406 353 q 454 422 454 403 q 435 452 454 440 q 389 457 415 464 q 335 425 363 450 q 289 376 307 400 q 275 347 271 351 q 319 335 281 336 q 382 343 358 333 m 380 119 q 382 120 380 119 q 384 121 383 121 q 387 122 385 121 q 389 125 389 124 q 413 148 399 133 q 435 163 428 163 q 449 156 442 163 q 460 147 457 149 q 453 111 482 147 q 383 49 425 75 q 278 20 339 10 q 182 81 218 31 q 150 254 139 135 q 217 413 156 332 q 346 521 278 494 q 382 534 365 533 q 438 529 399 535 q 500 496 478 524 q 535 415 535 461 q 492 339 529 382 q 401 269 454 296 q 275 279 324 246 q 241 275 250 289 q 225 206 232 261 q 271 100 214 110 q 288 97 276 99 q 302 94 299 94 q 314 92 306 93 q 328 93 322 92 q 349 102 339 96 q 365 111 360 108 q 380 119 376 117 z "},"":{"ha":761,"x_min":118,"x_max":947,"o":"m 928 1144 q 867 1021 947 1100 q 745 974 813 968 q 645 1019 678 979 q 622 1113 613 1060 q 659 1174 632 1167 q 690 1154 686 1181 q 685 1121 692 1144 q 695 1065 679 1097 q 767 1035 711 1033 q 821 1067 790 1036 q 869 1129 851 1099 q 903 1161 886 1160 q 928 1144 919 1163 m 325 56 l 381 51 q 439 63 414 51 q 622 113 586 88 q 647 119 638 119 q 647 115 644 115 q 672 139 653 118 q 743 180 708 169 q 779 185 778 190 q 759 119 792 163 q 661 39 726 75 q 347 -33 532 -31 q 286 -17 310 -31 q 203 42 236 15 q 150 267 118 126 q 185 378 164 335 q 319 614 215 451 l 328 625 q 368 711 328 635 q 388 769 403 749 q 421 810 381 781 q 492 857 461 839 q 556 885 524 882 q 593 872 589 889 q 640 876 606 868 q 685 885 674 883 q 778 907 694 897 l 854 910 q 901 876 882 919 q 894 838 911 850 q 767 811 878 825 q 603 786 657 797 q 526 758 550 775 q 471 694 501 742 q 415 600 458 686 q 325 460 318 468 q 361 451 354 451 q 428 467 372 457 q 678 528 649 524 q 746 503 718 551 q 719 457 760 474 q 538 402 679 440 q 351 361 397 364 q 300 385 304 358 q 278 370 290 389 q 256 320 265 351 q 238 253 246 289 q 231 138 219 172 q 262 86 243 104 q 325 56 281 68 z "},"":{"ha":451,"x_min":139,"x_max":646,"o":"m 625 778 q 564 654 646 733 q 444 607 511 601 q 344 653 376 613 q 321 747 311 693 q 358 807 331 800 q 389 788 385 814 q 384 754 390 778 q 394 699 378 731 q 465 668 410 667 q 519 701 489 669 q 567 763 550 732 q 601 794 585 793 q 625 778 618 796 m 382 343 q 394 348 382 343 q 430 378 406 353 q 454 422 454 403 q 435 452 454 440 q 389 457 415 464 q 335 425 363 450 q 289 376 307 400 q 275 347 271 351 q 319 335 281 336 q 382 343 358 333 m 380 119 q 382 120 380 119 q 384 121 383 121 q 387 122 385 121 q 389 125 389 124 q 413 148 399 133 q 435 163 428 163 q 449 156 442 163 q 460 147 457 149 q 453 111 482 147 q 383 49 425 75 q 278 20 339 10 q 182 81 218 31 q 150 254 139 135 q 217 413 156 332 q 346 521 278 494 q 382 534 365 533 q 438 529 399 535 q 500 496 478 524 q 535 415 535 461 q 492 339 529 382 q 401 269 454 296 q 275 279 324 246 q 241 275 250 289 q 225 206 232 261 q 271 100 214 110 q 288 97 276 99 q 302 94 299 94 q 314 92 306 93 q 328 93 322 92 q 349 102 339 96 q 365 111 360 108 q 380 119 376 117 z "},"":{"ha":761,"x_min":118,"x_max":911,"o":"m 751 1153 q 825 1135 790 1192 q 832 1091 836 1107 q 801 1043 828 1075 q 726 1025 764 993 q 710 1053 717 1033 q 706 1079 703 1072 q 743 1144 718 1122 q 751 1153 743 1144 m 325 56 l 381 51 q 439 63 414 51 q 622 113 586 88 q 647 119 638 119 q 647 115 644 115 q 672 139 653 118 q 743 180 708 169 q 779 185 778 190 q 759 119 792 163 q 661 39 726 75 q 347 -33 532 -31 q 286 -17 310 -31 q 203 42 236 15 q 150 267 118 126 q 185 378 164 335 q 319 614 215 451 l 328 625 q 368 711 328 635 q 388 769 403 749 q 421 810 381 781 q 492 857 461 839 q 556 885 524 882 q 593 872 589 889 q 640 876 606 868 q 685 885 674 883 q 778 907 694 897 l 854 910 q 901 876 882 919 q 894 838 911 850 q 767 811 878 825 q 603 786 657 797 q 526 758 550 775 q 471 694 501 742 q 415 600 458 686 q 325 460 318 468 q 361 451 354 451 q 428 467 372 457 q 678 528 649 524 q 746 503 718 551 q 719 457 760 474 q 538 402 679 440 q 351 361 397 364 q 300 385 304 358 q 278 370 290 389 q 256 320 265 351 q 238 253 246 289 q 231 138 219 172 q 262 86 243 104 q 325 56 281 68 z "},"":{"ha":451,"x_min":139,"x_max":558,"o":"m 474 736 q 547 718 513 775 q 554 674 558 690 q 524 626 550 658 q 449 608 486 576 q 432 636 439 617 q 428 663 425 656 q 465 728 440 706 q 474 736 465 728 m 382 343 q 394 348 382 343 q 430 378 406 353 q 454 422 454 403 q 435 452 454 440 q 389 457 415 464 q 335 425 363 450 q 289 376 307 400 q 275 347 271 351 q 319 335 281 336 q 382 343 358 333 m 380 119 q 382 120 380 119 q 384 121 383 121 q 387 122 385 121 q 389 125 389 124 q 413 148 399 133 q 435 163 428 163 q 449 156 442 163 q 460 147 457 149 q 453 111 482 147 q 383 49 425 75 q 278 20 339 10 q 182 81 218 31 q 150 254 139 135 q 217 413 156 332 q 346 521 278 494 q 382 534 365 533 q 438 529 399 535 q 500 496 478 524 q 535 415 535 461 q 492 339 529 382 q 401 269 454 296 q 275 279 324 246 q 241 275 250 289 q 225 206 232 261 q 271 100 214 110 q 288 97 276 99 q 302 94 299 94 q 314 92 306 93 q 328 93 322 92 q 349 102 339 96 q 365 111 360 108 q 380 119 376 117 z "},"":{"ha":761,"x_min":118,"x_max":911,"o":"m 325 56 l 381 51 q 439 63 414 51 q 622 113 586 88 q 647 119 638 119 q 647 115 644 115 q 672 139 653 118 q 743 180 708 169 q 779 185 778 190 q 760 119 792 163 q 664 40 728 76 l 665 40 q 533 -70 583 -10 q 500 -160 482 -131 q 525 -168 504 -168 q 588 -144 553 -164 q 636 -118 622 -125 q 675 -126 668 -101 q 649 -172 685 -156 q 617 -186 644 -174 q 511 -226 547 -221 q 447 -174 468 -215 q 443 -96 426 -133 q 501 -17 460 -58 q 347 -33 433 -31 q 286 -17 310 -31 q 203 42 236 15 q 150 267 118 126 q 185 378 164 335 q 319 614 215 451 l 328 625 q 368 711 328 635 q 388 769 403 749 q 421 810 381 781 q 492 857 461 839 q 556 885 524 882 q 593 872 589 889 q 640 876 606 868 q 685 885 674 883 q 778 907 694 897 l 854 910 q 901 876 882 919 q 894 838 911 850 q 767 811 878 825 q 603 786 657 797 q 526 758 550 775 q 471 694 501 742 q 415 600 458 686 q 325 460 318 468 q 361 451 354 451 q 428 467 372 457 q 678 528 649 524 q 746 503 718 551 q 719 457 760 474 q 538 402 679 440 q 351 361 397 364 q 300 385 304 358 q 278 370 290 389 q 256 320 265 351 q 238 253 246 289 q 231 138 219 172 q 262 86 243 104 q 325 56 281 68 z "},"":{"ha":451,"x_min":131,"x_max":535,"o":"m 382 343 q 394 348 382 343 q 430 378 406 353 q 454 422 454 403 q 435 452 454 440 q 389 457 415 464 q 335 425 363 450 q 289 376 307 400 q 275 347 271 351 q 319 335 281 336 q 382 343 358 333 m 380 119 q 382 120 380 119 q 384 121 383 121 q 387 122 385 121 q 389 125 389 124 q 413 148 399 133 q 435 163 428 163 q 449 156 442 163 q 460 147 457 149 q 453 111 482 147 q 383 49 425 75 q 350 28 369 36 q 228 -78 271 -26 q 204 -160 186 -131 q 229 -168 208 -168 q 292 -144 257 -164 q 340 -118 326 -125 q 379 -126 372 -101 q 353 -172 389 -156 q 322 -186 349 -174 q 215 -226 251 -221 q 151 -174 172 -215 q 149 -93 131 -133 q 253 26 175 -39 q 182 81 208 42 q 150 254 139 135 q 217 413 156 332 q 346 521 278 494 q 382 534 365 533 q 438 529 399 535 q 500 496 478 524 q 535 415 535 461 q 492 339 529 382 q 401 269 454 296 q 275 279 324 246 q 241 275 250 289 q 225 206 232 261 q 271 100 214 110 q 288 97 276 99 q 302 94 299 94 q 314 92 306 93 q 328 93 322 92 q 349 102 339 96 q 365 111 360 108 q 380 119 376 117 z "},"":{"ha":761,"x_min":118,"x_max":921,"o":"m 917 1145 q 919 1141 917 1145 q 920 1128 921 1138 q 916 1109 919 1119 q 857 1056 913 1099 q 771 997 801 1014 q 729 1000 746 979 q 663 1062 706 1021 q 617 1110 621 1103 q 625 1153 607 1135 q 675 1139 643 1172 q 753 1068 682 1129 q 844 1128 817 1106 q 885 1155 871 1150 q 906 1156 899 1160 q 917 1145 914 1153 m 325 56 l 381 51 q 439 63 414 51 q 622 113 586 88 q 647 119 638 119 q 647 115 644 115 q 672 139 653 118 q 743 180 708 169 q 779 185 778 190 q 759 119 792 163 q 661 39 726 75 q 347 -33 532 -31 q 286 -17 310 -31 q 203 42 236 15 q 150 267 118 126 q 185 378 164 335 q 319 614 215 451 l 328 625 q 368 711 328 635 q 388 769 403 749 q 421 810 381 781 q 492 857 461 839 q 556 885 524 882 q 593 872 589 889 q 640 876 606 868 q 685 885 674 883 q 778 907 694 897 l 854 910 q 901 876 882 919 q 894 838 911 850 q 767 811 878 825 q 603 786 657 797 q 526 758 550 775 q 471 694 501 742 q 415 600 458 686 q 325 460 318 468 q 361 451 354 451 q 428 467 372 457 q 678 528 649 524 q 746 503 718 551 q 719 457 760 474 q 538 402 679 440 q 351 361 397 364 q 300 385 304 358 q 278 370 290 389 q 256 320 265 351 q 238 253 246 289 q 231 138 219 172 q 262 86 243 104 q 325 56 281 68 z "},"":{"ha":451,"x_min":139,"x_max":632,"o":"m 628 770 q 630 766 628 770 q 631 753 632 763 q 627 734 631 744 q 568 681 624 724 q 482 622 513 639 q 440 625 457 604 q 374 687 417 646 q 328 735 332 728 q 336 778 318 760 q 386 764 354 797 q 464 693 393 754 q 555 753 528 731 q 596 780 582 775 q 617 781 610 785 q 628 770 625 778 m 382 343 q 394 348 382 343 q 430 378 406 353 q 454 422 454 403 q 435 452 454 440 q 389 457 415 464 q 335 425 363 450 q 289 376 307 400 q 275 347 271 351 q 319 335 281 336 q 382 343 358 333 m 380 119 q 382 120 380 119 q 384 121 383 121 q 387 122 385 121 q 389 125 389 124 q 413 148 399 133 q 435 163 428 163 q 449 156 442 163 q 460 147 457 149 q 453 111 482 147 q 383 49 425 75 q 278 20 339 10 q 182 81 218 31 q 150 254 139 135 q 217 413 156 332 q 346 521 278 494 q 382 534 365 533 q 438 529 399 535 q 500 496 478 524 q 535 415 535 461 q 492 339 529 382 q 401 269 454 296 q 275 279 324 246 q 241 275 250 289 q 225 206 232 261 q 271 100 214 110 q 288 97 276 99 q 302 94 299 94 q 314 92 306 93 q 328 93 322 92 q 349 102 339 96 q 365 111 360 108 q 380 119 376 117 z "},"":{"ha":692,"x_min":172,"x_max":900,"o":"m 591 1008 q 589 1011 591 1008 q 589 1028 586 1015 q 601 1053 592 1040 q 658 1106 611 1065 q 731 1160 704 1146 q 774 1157 757 1182 q 835 1099 796 1139 q 888 1042 875 1058 q 882 1000 900 1025 q 825 1018 863 972 q 750 1092 797 1051 q 681 1039 726 1078 q 624 996 636 1000 q 603 996 611 992 q 591 1008 596 1000 m 496 389 q 504 450 475 421 q 592 459 521 461 q 707 436 664 457 q 744 297 765 408 q 660 135 732 243 q 565 38 628 90 q 463 -29 501 -14 q 253 -43 321 -92 q 194 24 215 -19 q 175 113 172 67 q 232 458 174 276 q 342 717 292 632 q 440 850 393 801 q 514 914 488 899 q 683 936 581 953 q 792 889 763 915 q 804 871 794 883 q 803 790 838 828 q 765 789 782 769 q 738 820 751 811 q 706 839 725 829 q 686 849 688 849 q 617 858 664 864 q 544 830 571 853 q 481 763 517 807 q 425 682 444 719 q 307 408 342 536 q 265 228 272 279 q 256 149 258 176 q 256 94 254 121 q 267 51 258 67 q 292 25 276 35 q 399 29 325 3 q 503 83 444 35 q 600 192 561 131 q 661 361 672 325 q 633 378 656 376 q 563 379 610 379 q 496 389 517 379 z "},"":{"ha":493,"x_min":90,"x_max":621,"o":"m 312 627 q 309 631 312 627 q 310 647 307 635 q 322 672 313 660 q 378 725 332 685 q 451 779 425 765 q 494 776 478 801 q 556 718 517 758 q 608 661 596 678 q 603 619 621 644 q 546 638 583 592 q 471 711 518 671 q 402 658 447 697 q 344 615 357 619 q 324 615 332 611 q 312 627 317 619 m 424 424 q 416 453 422 446 q 393 457 410 460 q 275 368 339 449 q 240 299 254 340 q 223 222 225 258 q 235 179 221 185 q 383 282 318 182 q 424 424 431 347 m 349 532 q 411 535 375 546 q 488 493 444 531 q 536 419 521 460 q 528 346 554 381 q 497 301 510 328 q 481 261 483 275 q 410 -17 479 250 q 285 -265 347 -232 q 204 -261 247 -281 q 103 -136 132 -229 q 98 -87 90 -93 q 122 -87 106 -82 q 144 -107 139 -93 q 167 -146 149 -121 q 193 -172 185 -171 q 254 -175 232 -190 q 292 -128 276 -157 q 328 -37 308 -100 q 400 194 386 168 q 372 169 390 186 q 304 122 333 133 q 263 110 296 111 q 200 118 231 108 q 164 142 171 133 q 146 176 157 150 q 142 249 135 201 q 167 343 149 296 q 250 458 193 397 q 349 532 307 519 z "},"":{"ha":692,"x_min":172,"x_max":911,"o":"m 892 1144 q 831 1021 911 1100 q 709 974 776 968 q 609 1019 642 979 q 586 1113 576 1060 q 623 1174 596 1167 q 654 1154 650 1181 q 649 1121 656 1144 q 659 1065 643 1097 q 731 1035 675 1033 q 785 1067 754 1036 q 833 1129 815 1099 q 867 1161 850 1160 q 892 1144 883 1163 m 496 389 q 504 450 475 421 q 592 459 521 461 q 707 436 664 457 q 744 297 765 408 q 660 135 732 243 q 565 38 628 90 q 463 -29 501 -14 q 253 -43 321 -92 q 194 24 215 -19 q 175 113 172 67 q 232 458 174 276 q 342 717 292 632 q 440 850 393 801 q 514 914 488 899 q 683 936 581 953 q 792 889 763 915 q 804 871 794 883 q 803 790 838 828 q 765 789 782 769 q 738 820 751 811 q 706 839 725 829 q 686 849 688 849 q 617 858 664 864 q 544 830 571 853 q 481 763 517 807 q 425 682 444 719 q 307 408 342 536 q 265 228 272 279 q 256 149 258 176 q 256 94 254 121 q 267 51 258 67 q 292 25 276 35 q 399 29 325 3 q 503 83 444 35 q 600 192 561 131 q 661 361 672 325 q 633 378 656 376 q 563 379 610 379 q 496 389 517 379 z "},"":{"ha":493,"x_min":90,"x_max":668,"o":"m 647 778 q 586 654 668 733 q 466 607 533 601 q 366 653 399 613 q 343 747 333 693 q 380 807 353 800 q 411 788 407 814 q 406 754 413 778 q 416 699 400 731 q 488 668 432 667 q 542 701 511 669 q 590 763 572 732 q 624 794 607 793 q 647 778 640 796 m 424 424 q 416 453 422 446 q 393 457 410 460 q 275 368 339 449 q 240 299 254 340 q 223 222 225 258 q 235 179 221 185 q 383 282 318 182 q 424 424 431 347 m 349 532 q 411 535 375 546 q 488 493 444 531 q 536 419 521 460 q 528 346 554 381 q 497 301 510 328 q 481 261 483 275 q 410 -17 479 250 q 285 -265 347 -232 q 204 -261 247 -281 q 103 -136 132 -229 q 98 -87 90 -93 q 122 -87 106 -82 q 144 -107 139 -93 q 167 -146 149 -121 q 193 -172 185 -171 q 254 -175 232 -190 q 292 -128 276 -157 q 328 -37 308 -100 q 400 194 386 168 q 372 169 390 186 q 304 122 333 133 q 263 110 296 111 q 200 118 231 108 q 164 142 171 133 q 146 176 157 150 q 142 249 135 201 q 167 343 149 296 q 250 458 193 397 q 349 532 307 519 z "},"":{"ha":692,"x_min":172,"x_max":838,"o":"m 715 1153 q 789 1135 754 1192 q 796 1091 800 1107 q 765 1043 792 1075 q 690 1025 728 993 q 674 1053 681 1033 q 669 1079 667 1072 q 707 1144 682 1122 q 715 1153 707 1144 m 496 389 q 504 450 475 421 q 592 459 521 461 q 707 436 664 457 q 744 297 765 408 q 660 135 732 243 q 565 38 628 90 q 463 -29 501 -14 q 253 -43 321 -92 q 194 24 215 -19 q 175 113 172 67 q 232 458 174 276 q 342 717 292 632 q 440 850 393 801 q 514 914 488 899 q 683 936 581 953 q 792 889 763 915 q 804 871 794 883 q 803 790 838 828 q 765 789 782 769 q 738 820 751 811 q 706 839 725 829 q 686 849 688 849 q 617 858 664 864 q 544 830 571 853 q 481 763 517 807 q 425 682 444 719 q 307 408 342 536 q 265 228 272 279 q 256 149 258 176 q 256 94 254 121 q 267 51 258 67 q 292 25 276 35 q 399 29 325 3 q 503 83 444 35 q 600 192 561 131 q 661 361 672 325 q 633 378 656 376 q 563 379 610 379 q 496 389 517 379 z "},"":{"ha":493,"x_min":90,"x_max":554,"o":"m 433 736 q 507 718 472 775 q 514 674 518 690 q 483 626 510 658 q 408 608 446 576 q 392 636 399 617 q 388 663 385 656 q 425 728 400 706 q 433 736 425 728 m 424 424 q 416 453 422 446 q 393 457 410 460 q 275 368 339 449 q 240 299 254 340 q 223 222 225 258 q 235 179 221 185 q 383 282 318 182 q 424 424 431 347 m 349 532 q 411 535 375 546 q 488 493 444 531 q 536 419 521 460 q 528 346 554 381 q 497 301 510 328 q 481 261 483 275 q 410 -17 479 250 q 285 -265 347 -232 q 204 -261 247 -281 q 103 -136 132 -229 q 98 -87 90 -93 q 122 -87 106 -82 q 144 -107 139 -93 q 167 -146 149 -121 q 193 -172 185 -171 q 254 -175 232 -190 q 292 -128 276 -157 q 328 -37 308 -100 q 400 194 386 168 q 372 169 390 186 q 304 122 333 133 q 263 110 296 111 q 200 118 231 108 q 164 142 171 133 q 146 176 157 150 q 142 249 135 201 q 167 343 149 296 q 250 458 193 397 q 349 532 307 519 z "},"":{"ha":692,"x_min":172,"x_max":838,"o":"m 267 -312 q 249 -319 258 -312 q 219 -325 240 -325 q 190 -315 197 -325 q 210 -289 190 -306 q 274 -183 276 -218 q 293 -133 272 -149 q 344 -140 314 -117 q 345 -187 350 -168 q 324 -243 340 -206 q 293 -284 315 -256 q 267 -312 271 -312 m 496 389 q 504 450 475 421 q 592 459 521 461 q 707 436 664 457 q 744 297 765 408 q 660 135 732 243 q 565 38 628 90 q 463 -29 501 -14 q 253 -43 321 -92 q 194 24 215 -19 q 175 113 172 67 q 232 458 174 276 q 342 717 292 632 q 440 850 393 801 q 514 914 488 899 q 683 936 581 953 q 792 889 763 915 q 804 871 794 883 q 803 790 838 828 q 765 789 782 769 q 738 820 751 811 q 706 839 725 829 q 686 849 688 849 q 617 858 664 864 q 544 830 571 853 q 481 763 517 807 q 425 682 444 719 q 307 408 342 536 q 265 228 272 279 q 256 149 258 176 q 256 94 254 121 q 267 51 258 67 q 292 25 276 35 q 399 29 325 3 q 503 83 444 35 q 600 192 561 131 q 661 361 672 325 q 633 378 656 376 q 563 379 610 379 q 496 389 517 379 z "},"":{"ha":493,"x_min":90,"x_max":575,"o":"m 424 424 q 416 453 422 446 q 393 457 410 460 q 275 368 339 449 q 240 299 254 340 q 223 222 225 258 q 235 179 221 185 q 383 282 318 182 q 424 424 431 347 m 349 532 q 411 535 375 546 q 488 493 444 531 q 536 419 521 460 q 528 346 554 381 q 497 301 510 328 q 481 261 483 275 q 410 -17 479 250 q 285 -265 347 -232 q 204 -261 247 -281 q 103 -136 132 -229 q 98 -87 90 -93 q 122 -87 106 -82 q 144 -107 139 -93 q 167 -146 149 -121 q 193 -172 185 -171 q 254 -175 232 -190 q 292 -128 276 -157 q 328 -37 308 -100 q 400 194 386 168 q 372 169 390 186 q 304 122 333 133 q 263 110 296 111 q 200 118 231 108 q 164 142 171 133 q 146 176 157 150 q 142 249 135 201 q 167 343 149 296 q 250 458 193 397 q 349 532 307 519 m 499 799 q 524 802 517 799 q 548 803 532 806 q 567 800 564 801 q 574 790 572 799 q 556 764 575 782 q 474 674 479 711 q 448 622 471 635 q 399 638 425 610 q 409 692 399 675 q 431 727 419 710 q 468 772 442 744 q 499 799 494 799 z "},"":{"ha":783,"x_min":110,"x_max":1007,"o":"m 638 1008 q 636 1011 638 1008 q 636 1028 633 1015 q 649 1053 639 1040 q 705 1106 658 1065 q 778 1160 751 1146 q 821 1157 804 1182 q 883 1099 843 1139 q 935 1042 922 1058 q 929 1000 947 1025 q 872 1018 910 972 q 797 1092 844 1051 q 728 1039 774 1078 q 671 996 683 1000 q 651 996 658 992 q 638 1008 643 1000 m 758 215 l 722 92 q 690 -60 690 -56 q 647 -51 683 -67 q 615 -19 619 -36 q 620 17 611 -1 q 665 172 629 36 q 704 304 682 219 q 729 392 726 389 l 729 406 q 616 412 729 413 q 426 401 503 411 l 325 401 q 283 273 318 386 q 228 65 247 160 q 181 -115 208 -31 q 151 -108 167 -108 q 120 -84 131 -103 q 115 -43 110 -65 q 126 10 126 -32 q 142 69 133 24 q 192 258 151 114 q 242 413 232 403 l 242 428 q 257 471 242 449 q 271 528 271 513 q 351 724 271 528 l 351 731 q 386 805 354 733 q 429 900 418 876 q 446 934 440 924 q 456 951 451 944 q 460 963 460 958 q 492 970 471 978 q 525 940 514 963 l 539 918 l 489 818 q 438 710 438 728 q 394 592 406 629 q 371 529 382 554 q 349 475 349 479 q 425 481 349 479 q 693 486 667 482 l 765 493 l 874 825 q 907 902 894 885 q 932 919 919 919 q 958 913 944 919 q 975 897 971 907 q 968 811 1007 868 q 928 721 946 772 q 906 658 911 669 q 896 619 906 629 q 872 576 886 610 q 858 524 858 542 q 844 493 858 507 q 758 215 782 276 z "},"":{"ha":644,"x_min":131,"x_max":794,"o":"m 485 655 q 483 659 485 655 q 483 675 481 663 q 496 700 486 688 q 552 753 506 713 q 625 807 599 793 q 668 804 651 829 q 730 746 690 786 q 782 689 769 706 q 776 647 794 672 q 719 665 757 619 q 644 739 692 699 q 576 686 621 725 q 518 643 531 647 q 498 643 506 639 q 485 655 490 647 m 621 283 l 614 210 l 606 165 l 628 165 l 658 158 q 681 143 671 143 q 689 122 703 143 q 672 106 682 113 q 563 106 606 63 q 540 232 519 149 q 547 321 547 292 q 532 350 546 350 q 401 277 500 350 q 251 129 301 204 q 187 74 210 76 q 148 86 164 72 q 131 110 132 100 q 136 147 131 121 q 218 426 174 306 q 260 552 235 488 q 304 667 286 617 q 339 764 322 718 q 364 831 356 810 q 383 886 375 860 q 406 908 383 908 q 447 869 433 908 q 440 788 460 831 q 372 611 419 746 q 303 432 324 476 q 274 357 303 415 q 256 295 274 351 q 235 211 239 239 q 306 292 256 247 q 400 369 382 357 l 443 399 q 454 406 443 406 q 465 415 465 406 q 497 431 465 424 q 550 439 529 439 q 581 432 571 439 q 606 401 590 425 q 621 283 644 351 z "}}}
